SplineFontDB: 3.0
FontName: Distinguish-Medium
FullName: Distinguish Medium
FamilyName: Distinguish
Weight: Medium
Copyright: Copyright 2015 Google Inc. All Rights Reserved.
Version: 2.000;GOOG;noto-source:20170915:90ef993387c0; ttfautohint (v1.7)
ItalicAngle: 0
UnderlinePosition: -125
UnderlineWidth: 50
Ascent: 800
Descent: 200
InvalidEm: 0
sfntRevision: 0x00020000
LayerCount: 2
Layer: 0 1 "Back" 1
Layer: 1 1 "Fore" 0
XUID: [1021 269 1684064080 14416738]
StyleMap: 0x0000
FSType: 0
OS2Version: 4
OS2_WeightWidthSlopeOnly: 1
OS2_UseTypoMetrics: 0
CreationTime: 1458096639
ModificationTime: 1515966847
PfmFamily: 17
TTFWeight: 500
TTFWidth: 5
LineGap: 0
VLineGap: 0
Panose: 2 11 6 2 4 5 4 2 2 4
OS2TypoAscent: 1069
OS2TypoAOffset: 0
OS2TypoDescent: -293
OS2TypoDOffset: 0
OS2TypoLinegap: 0
OS2WinAscent: 1069
OS2WinAOffset: 0
OS2WinDescent: 293
OS2WinDOffset: 0
HheadAscent: 1069
HheadAOffset: 0
HheadDescent: -293
HheadDOffset: 0
OS2SubXSize: 650
OS2SubYSize: 600
OS2SubXOff: 0
OS2SubYOff: 75
OS2SupXSize: 650
OS2SupYSize: 600
OS2SupXOff: 0
OS2SupYOff: 350
OS2StrikeYSize: 50
OS2StrikeYPos: 322
OS2CapHeight: 714
OS2XHeight: 536
OS2Vendor: 'GOOG'
OS2CodePages: 00000000.00000000
OS2UnicodeRanges: e00002ff.4000001f.08000029.00100000
Lookup: 1 0 0 "'aalt' Access All Alternates lookup 0" { "'aalt' Access All Alternates lookup 0 subtable"  } ['aalt' ('DFLT' <'dflt' > 'cyrl' <'dflt' > 'grek' <'dflt' > 'latn' <'CAT ' 'MAH ' 'MOL ' 'NAV ' 'ROM ' 'dflt' > ) ]
Lookup: 3 0 0 "'aalt' Access All Alternates lookup 1" { "'aalt' Access All Alternates lookup 1 subtable"  } ['aalt' ('DFLT' <'dflt' > 'cyrl' <'dflt' > 'grek' <'dflt' > 'latn' <'CAT ' 'MAH ' 'MOL ' 'NAV ' 'ROM ' 'dflt' > ) ]
Lookup: 4 0 0 "'ccmp' Glyph Composition/Decomposition lookup 2" { "'ccmp' Glyph Composition/Decomposition lookup 2 subtable"  } ['ccmp' ('DFLT' <'dflt' > 'cyrl' <'dflt' > 'grek' <'dflt' > 'latn' <'CAT ' 'MAH ' 'MOL ' 'NAV ' 'ROM ' 'dflt' > ) ]

StartChar: .notdef
Encoding: 65536 -1 0
Width: 600
Flags: W
LayerCount: 2
Fore
SplineSet
94 0 m 1,0,-1
 94 714 l 1,1,-1
 505 714 l 1,2,-1
 505 0 l 1,3,-1
 94 0 l 1,0,-1
145 51 m 1,4,-1
 454 51 l 1,5,-1
 454 663 l 1,6,-1
 145 663 l 1,7,-1
 145 51 l 1,4,-1
EndSplineSet
EndChar

StartChar: exclam
Encoding: 33 33 4
Width: 274
Flags: W
LayerCount: 2
Fore
SplineSet
175 212 m 1,0,-1
 100 212 l 1,1,-1
 75 714 l 1,2,-1
 200 714 l 1,3,-1
 175 212 l 1,0,-1
68 59 m 256,4,5
 68 98 68 98 88 114 c 128,-1,6
 108 130 108 130 137 130 c 0,7,8
 164 130 164 130 184.5 114 c 128,-1,9
 205 98 205 98 205 59 c 256,10,11
 205 20 205 20 184.5 3 c 128,-1,12
 164 -14 164 -14 137 -14 c 0,13,14
 108 -14 108 -14 88 3 c 128,-1,15
 68 20 68 20 68 59 c 256,4,5
EndSplineSet
Substitution2: "'smcp' Lowercase to Small Capitals lookup 34 subtable" exclam.sc
Substitution2: "'c2sc' Capitals to Small Capitals lookup 33 subtable" exclam.sc
EndChar

StartChar: quotedbl
Encoding: 34 34 5
Width: 427
Flags: W
LayerCount: 2
Fore
SplineSet
172 714 m 1,0,-1
 152 456 l 1,1,-1
 85 456 l 1,2,-1
 65 714 l 1,3,-1
 172 714 l 1,0,-1
362 714 m 1,4,-1
 342 456 l 1,5,-1
 275 456 l 1,6,-1
 255 714 l 1,7,-1
 362 714 l 1,4,-1
EndSplineSet
EndChar

StartChar: numbersign
Encoding: 35 35 6
Width: 646
Flags: W
LayerCount: 2
Fore
SplineSet
482 429 m 1,0,-1
 454 283 l 1,1,-1
 587 283 l 1,2,-1
 587 206 l 1,3,-1
 439 206 l 1,4,-1
 399 0 l 1,5,-1
 317 0 l 1,6,-1
 357 206 l 1,7,-1
 228 206 l 1,8,-1
 190 0 l 1,9,-1
 110 0 l 1,10,-1
 147 206 l 1,11,-1
 24 206 l 1,12,-1
 24 283 l 1,13,-1
 162 283 l 1,14,-1
 191 429 l 1,15,-1
 61 429 l 1,16,-1
 61 506 l 1,17,-1
 205 506 l 1,18,-1
 244 714 l 1,19,-1
 327 714 l 1,20,-1
 287 506 l 1,21,-1
 418 506 l 1,22,-1
 457 714 l 1,23,-1
 537 714 l 1,24,-1
 497 506 l 1,25,-1
 621 506 l 1,26,-1
 621 429 l 1,27,-1
 482 429 l 1,0,-1
243 283 m 1,28,-1
 372 283 l 1,29,-1
 401 429 l 1,30,-1
 272 429 l 1,31,-1
 243 283 l 1,28,-1
EndSplineSet
EndChar

StartChar: dollar
Encoding: 36 36 7
Width: 572
Flags: W
LayerCount: 2
Fore
SplineSet
253 -58 m 1,0,-1
 253 46 l 1,1,2
 194 48 194 48 143 57 c 128,-1,3
 92 66 92 66 57 82 c 1,4,-1
 57 180 l 1,5,6
 93 163 93 163 147 149.5 c 128,-1,7
 201 136 201 136 253 135 c 1,8,-1
 253 322 l 1,9,10
 149 354 149 354 102.5 395.5 c 128,-1,11
 56 437 56 437 56 509 c 0,12,13
 56 583 56 583 110 626 c 128,-1,14
 164 669 164 669 253 675 c 1,15,-1
 253 759 l 1,16,-1
 318 759 l 1,17,-1
 318 676 l 1,18,19
 372 674 372 674 417 664 c 128,-1,20
 462 654 462 654 502 637 c 1,21,-1
 469 551 l 1,22,23
 434 564 434 564 395 574 c 128,-1,24
 356 584 356 584 318 587 c 1,25,-1
 318 403 l 1,26,27
 380 384 380 384 426 361.5 c 128,-1,28
 472 339 472 339 496.5 306.5 c 128,-1,29
 521 274 521 274 521 221 c 0,30,31
 521 150 521 150 469 105 c 128,-1,32
 417 60 417 60 318 50 c 1,33,-1
 318 -58 l 1,34,-1
 253 -58 l 1,0,-1
253 426 m 1,35,-1
 253 585 l 1,36,37
 206 581 206 581 183 562 c 128,-1,38
 160 543 160 543 160 514 c 0,39,40
 160 480 160 480 180.5 460.5 c 128,-1,41
 201 441 201 441 253 426 c 1,35,-1
318 139 m 1,42,43
 369 145 369 145 393 164.5 c 128,-1,44
 417 184 417 184 417 215 c 0,45,46
 417 247 417 247 395.5 265 c 128,-1,47
 374 283 374 283 318 299 c 1,48,-1
 318 139 l 1,42,43
EndSplineSet
EndChar

StartChar: percent
Encoding: 37 37 8
Width: 852
Flags: W
LayerCount: 2
Fore
SplineSet
196 724 m 0,0,1
 272 724 272 724 312 665.5 c 128,-1,2
 352 607 352 607 352 501 c 256,3,4
 352 395 352 395 314.5 335.5 c 128,-1,5
 277 276 277 276 196 276 c 0,6,7
 122 276 122 276 83 335.5 c 128,-1,8
 44 395 44 395 44 501 c 256,9,10
 44 607 44 607 80 665.5 c 128,-1,11
 116 724 116 724 196 724 c 0,0,1
668 714 m 1,12,-1
 272 0 l 1,13,-1
 183 0 l 1,14,-1
 579 714 l 1,15,-1
 668 714 l 1,12,-1
196 650 m 0,16,17
 131 650 131 650 131 501 c 0,18,19
 131 350 131 350 196 350 c 0,20,21
 265 350 265 350 265 501 c 0,22,23
 265 650 265 650 196 650 c 0,16,17
652 438 m 0,24,25
 728 438 728 438 768 379.5 c 128,-1,26
 808 321 808 321 808 215 c 256,27,28
 808 109 808 109 770 49.5 c 128,-1,29
 732 -10 732 -10 652 -10 c 0,30,31
 577 -10 577 -10 538 49.5 c 128,-1,32
 499 109 499 109 499 215 c 256,33,34
 499 321 499 321 535.5 379.5 c 128,-1,35
 572 438 572 438 652 438 c 0,24,25
652 364 m 0,36,37
 587 364 587 364 587 215 c 0,38,39
 587 65 587 65 652 65 c 0,40,41
 720 65 720 65 720 215 c 0,42,43
 720 364 720 364 652 364 c 0,36,37
EndSplineSet
EndChar

StartChar: ampersand
Encoding: 38 38 9
Width: 737
Flags: W
LayerCount: 2
Fore
SplineSet
306 725 m 0,0,1
 388 725 388 725 437.5 684.5 c 128,-1,2
 487 644 487 644 487 570 c 0,3,4
 487 506 487 506 446 461 c 128,-1,5
 405 416 405 416 344 380 c 1,6,-1
 521 209 l 1,7,8
 545 240 545 240 561 280 c 128,-1,9
 577 320 577 320 588 365 c 1,10,-1
 696 365 l 1,11,12
 681 303 681 303 655.5 245.5 c 128,-1,13
 630 188 630 188 590 142 c 1,14,-1
 736 0 l 1,15,-1
 598 0 l 1,16,-1
 520 75 l 1,17,18
 474 37 474 37 417.5 13.5 c 128,-1,19
 361 -10 361 -10 284 -10 c 0,20,21
 175 -10 175 -10 112 42.5 c 128,-1,22
 49 95 49 95 49 188 c 0,23,24
 49 264 49 264 88.5 310.5 c 128,-1,25
 128 357 128 357 196 396 c 1,26,27
 162 434 162 434 138 474 c 128,-1,28
 114 514 114 514 114 566 c 0,29,30
 114 640 114 640 166 682.5 c 128,-1,31
 218 725 218 725 306 725 c 0,0,1
303 640 m 0,32,33
 266 640 266 640 241 621 c 128,-1,34
 216 602 216 602 216 564 c 0,35,36
 216 531 216 531 233 502.5 c 128,-1,37
 250 474 250 474 281 441 c 1,38,39
 336 472 336 472 360.5 500 c 128,-1,40
 385 528 385 528 385 566 c 0,41,42
 385 600 385 600 361.5 620 c 128,-1,43
 338 640 338 640 303 640 c 0,32,33
259 331 m 1,44,45
 212 302 212 302 186 271.5 c 128,-1,46
 160 241 160 241 160 194 c 0,47,48
 160 143 160 143 195.5 112.5 c 128,-1,49
 231 82 231 82 289 82 c 0,50,51
 344 82 344 82 384.5 99 c 128,-1,52
 425 116 425 116 454 141 c 1,53,-1
 259 331 l 1,44,45
EndSplineSet
Substitution2: "'smcp' Lowercase to Small Capitals lookup 34 subtable" ampersand.sc
Substitution2: "'c2sc' Capitals to Small Capitals lookup 33 subtable" ampersand.sc
EndChar

StartChar: quotesingle
Encoding: 39 39 10
Width: 237
Flags: W
LayerCount: 2
Fore
SplineSet
172 714 m 1,0,-1
 152 456 l 1,1,-1
 85 456 l 1,2,-1
 65 714 l 1,3,-1
 172 714 l 1,0,-1
EndSplineSet
EndChar

StartChar: parenleft
Encoding: 40 40 11
Width: 312
Flags: W
LayerCount: 2
Fore
SplineSet
40 274 m 0,0,1
 40 396 40 396 75.5 509.5 c 128,-1,2
 111 623 111 623 187 714 c 1,3,-1
 282 714 l 1,4,5
 212 620 212 620 176.5 507 c 128,-1,6
 141 394 141 394 141 275 c 0,7,8
 141 159 141 159 176.5 47 c 128,-1,9
 212 -65 212 -65 281 -158 c 1,10,-1
 187 -158 l 1,11,12
 111 -70 111 -70 75.5 41.5 c 128,-1,13
 40 153 40 153 40 274 c 0,0,1
EndSplineSet
Substitution2: "'smcp' Lowercase to Small Capitals lookup 34 subtable" parenleft.sc
Substitution2: "'c2sc' Capitals to Small Capitals lookup 33 subtable" parenleft.sc
Substitution2: "'sups' Superscript lookup 19 subtable" uni207D
Substitution2: "'subs' Subscript lookup 18 subtable" uni208D
EndChar

StartChar: parenright
Encoding: 41 41 12
Width: 312
Flags: W
LayerCount: 2
Fore
SplineSet
272 274 m 0,0,1
 272 153 272 153 236.5 41.5 c 128,-1,2
 201 -70 201 -70 125 -158 c 1,3,-1
 31 -158 l 1,4,5
 99 -65 99 -65 134.5 47 c 128,-1,6
 170 159 170 159 170 275 c 0,7,8
 170 394 170 394 134.5 507 c 128,-1,9
 99 620 99 620 30 714 c 1,10,-1
 125 714 l 1,11,12
 201 623 201 623 236.5 509.5 c 128,-1,13
 272 396 272 396 272 274 c 0,0,1
EndSplineSet
Substitution2: "'smcp' Lowercase to Small Capitals lookup 34 subtable" parenright.sc
Substitution2: "'c2sc' Capitals to Small Capitals lookup 33 subtable" parenright.sc
Substitution2: "'sups' Superscript lookup 19 subtable" uni207E
Substitution2: "'subs' Subscript lookup 18 subtable" uni208E
EndChar

StartChar: asterisk
Encoding: 42 42 13
Width: 549
Flags: W
LayerCount: 2
Fore
SplineSet
326 760 m 1,0,-1
 306 572 l 1,1,-1
 495 625 l 1,2,-1
 510 524 l 1,3,-1
 331 509 l 1,4,-1
 447 355 l 1,5,-1
 354 305 l 1,6,-1
 271 473 l 1,7,-1
 197 305 l 1,8,-1
 101 355 l 1,9,-1
 215 509 l 1,10,-1
 38 524 l 1,11,-1
 54 625 l 1,12,-1
 240 572 l 1,13,-1
 219 760 l 1,14,-1
 326 760 l 1,0,-1
EndSplineSet
EndChar

StartChar: plus
Encoding: 43 43 14
Width: 572
Flags: W
LayerCount: 2
Fore
SplineSet
326 393 m 1,0,-1
 522 393 l 1,1,-1
 522 312 l 1,2,-1
 326 312 l 1,3,-1
 326 111 l 1,4,-1
 244 111 l 1,5,-1
 244 312 l 1,6,-1
 48 312 l 1,7,-1
 48 393 l 1,8,-1
 244 393 l 1,9,-1
 244 595 l 1,10,-1
 326 595 l 1,11,-1
 326 393 l 1,0,-1
EndSplineSet
Substitution2: "'sups' Superscript lookup 19 subtable" uni207A
Substitution2: "'subs' Subscript lookup 18 subtable" uni208A
EndChar

StartChar: comma
Encoding: 44 44 15
Width: 273
Flags: W
LayerCount: 2
Fore
SplineSet
194 116 m 1,0,-1
 201 105 l 1,1,2
 188 52 188 52 164 -11.5 c 128,-1,3
 140 -75 140 -75 115 -129 c 1,4,-1
 38 -129 l 1,5,6
 52 -71 52 -71 66 -3.5 c 128,-1,7
 80 64 80 64 88 116 c 1,8,-1
 194 116 l 1,0,-1
EndSplineSet
EndChar

StartChar: hyphen
Encoding: 45 45 16
Width: 322
Flags: W
LayerCount: 2
Fore
SplineSet
37 223 m 1,0,-1
 37 313 l 1,1,-1
 285 313 l 1,2,-1
 285 223 l 1,3,-1
 37 223 l 1,0,-1
EndSplineSet
EndChar

StartChar: period
Encoding: 46 46 17
Width: 273
Flags: W
LayerCount: 2
Fore
SplineSet
68 59 m 256,0,1
 68 98 68 98 88 114 c 128,-1,2
 108 130 108 130 136 130 c 256,3,4
 164 130 164 130 184.5 114 c 128,-1,5
 205 98 205 98 205 59 c 256,6,7
 205 20 205 20 184.5 3 c 128,-1,8
 164 -14 164 -14 136 -14 c 256,9,10
 108 -14 108 -14 88 3 c 128,-1,11
 68 20 68 20 68 59 c 256,0,1
EndSplineSet
EndChar

StartChar: slash
Encoding: 47 47 18
Width: 384
Flags: W
LayerCount: 2
Fore
SplineSet
376 714 m 1,0,-1
 110 0 l 1,1,-1
 9 0 l 1,2,-1
 275 714 l 1,3,-1
 376 714 l 1,0,-1
EndSplineSet
Substitution2: "'frac' Diagonal Fractions lookup 22 subtable" fraction
EndChar

StartChar: zero
Encoding: 48 48 19
Width: 572
Flags: W
LayerCount: 2
Fore
SplineSet
217 358 m 128,-1,1
 217 397 217 397 237 413 c 128,-1,2
 257 429 257 429 285 429 c 128,-1,3
 313 429 313 429 333.5 413 c 128,-1,4
 354 397 354 397 354 358 c 128,-1,5
 354 319 354 319 333.5 302 c 128,-1,6
 313 285 313 285 285 285 c 128,-1,7
 257 285 257 285 237 302 c 128,-1,0
 217 319 217 319 217 358 c 128,-1,1
527 358 m 0,8,9
 527 242 527 242 503 160 c 128,-1,10
 479 78 479 78 425.5 34 c 128,-1,11
 372 -10 372 -10 285 -10 c 0,12,13
 162 -10 162 -10 103.5 87.5 c 128,-1,14
 45 185 45 185 45 358 c 0,15,16
 45 474 45 474 68.5 556 c 128,-1,17
 92 638 92 638 145 681.5 c 128,-1,18
 198 725 198 725 285 725 c 0,19,20
 407 725 407 725 467 628.5 c 128,-1,21
 527 532 527 532 527 358 c 0,8,9
151 358 m 0,22,23
 151 218 151 218 181 148.5 c 128,-1,24
 211 79 211 79 285 79 c 0,25,26
 358 79 358 79 389 148 c 128,-1,27
 420 217 420 217 420 358 c 0,28,29
 420 497 420 497 389 566.5 c 128,-1,30
 358 636 358 636 285 636 c 0,31,32
 211 636 211 636 181 566.5 c 128,-1,33
 151 497 151 497 151 358 c 0,22,23
EndSplineSet
Substitution2: "'zero' Slashed Zero lookup 37 subtable" zero.slash
Substitution2: "'case' Case-Sensitive Forms lookup 35 subtable" zero.lf
Substitution2: "'onum' Oldstyle Figures lookup 32 subtable" zero.tosf
Substitution2: "'pnum' Proportional Numbers lookup 30 subtable" zero.lf
Substitution2: "'frac' Diagonal Fractions lookup 23 subtable" zero.numr
Substitution2: "'dnom' Denominators lookup 21 subtable" zero.dnom
Substitution2: "'numr' Numerators lookup 20 subtable" zero.numr
Substitution2: "'sups' Superscript lookup 19 subtable" uni2070
Substitution2: "'subs' Subscript lookup 18 subtable" uni2080
EndChar

StartChar: one
Encoding: 49 49 20
Width: 572
Flags: W
LayerCount: 2
Fore
SplineSet
372 0 m 1,0,-1
 267 0 l 1,1,-1
 267 474 l 2,2,3
 267 512 267 512 268 542.5 c 128,-1,4
 269 573 269 573 271 602 c 1,5,6
 258 588 258 588 244 576 c 128,-1,7
 230 564 230 564 212 549 c 2,8,-1
 134 486 l 1,9,-1
 80 554 l 1,10,-1
 284 714 l 1,11,-1
 372 714 l 1,12,-1
 372 0 l 1,0,-1
EndSplineSet
Substitution2: "'case' Case-Sensitive Forms lookup 35 subtable" one.lf
Substitution2: "'onum' Oldstyle Figures lookup 32 subtable" one.tosf
Substitution2: "'pnum' Proportional Numbers lookup 30 subtable" one.lf
Substitution2: "'frac' Diagonal Fractions lookup 23 subtable" one.numr
Substitution2: "'dnom' Denominators lookup 21 subtable" one.dnom
Substitution2: "'numr' Numerators lookup 20 subtable" one.numr
Substitution2: "'sups' Superscript lookup 19 subtable" uni00B9
Substitution2: "'subs' Subscript lookup 18 subtable" uni2081
EndChar

StartChar: two
Encoding: 50 50 21
Width: 572
Flags: W
LayerCount: 2
Fore
SplineSet
526 0 m 1,0,-1
 46 0 l 1,1,-1
 46 82 l 1,2,-1
 230 269 l 2,3,4
 284 324 284 324 320 364.5 c 128,-1,5
 356 405 356 405 374 442.5 c 128,-1,6
 392 480 392 480 392 524 c 0,7,8
 392 578 392 578 360.5 606 c 128,-1,9
 329 634 329 634 277 634 c 0,10,11
 228 634 228 634 189 616 c 128,-1,12
 150 598 150 598 108 564 c 1,13,-1
 51 635 l 1,14,15
 94 671 94 671 149 697.5 c 128,-1,16
 204 724 204 724 280 724 c 0,17,18
 381 724 381 724 440 672 c 128,-1,19
 499 620 499 620 499 533 c 0,20,21
 499 476 499 476 476 427 c 128,-1,22
 453 378 453 378 411 330 c 128,-1,23
 369 282 369 282 312 228 c 2,24,-1
 179 99 l 1,25,-1
 179 94 l 1,26,-1
 526 94 l 1,27,-1
 526 0 l 1,0,-1
EndSplineSet
Substitution2: "'case' Case-Sensitive Forms lookup 35 subtable" two.lf
Substitution2: "'onum' Oldstyle Figures lookup 32 subtable" two.tosf
Substitution2: "'pnum' Proportional Numbers lookup 30 subtable" two.lf
Substitution2: "'frac' Diagonal Fractions lookup 23 subtable" two.numr
Substitution2: "'dnom' Denominators lookup 21 subtable" two.dnom
Substitution2: "'numr' Numerators lookup 20 subtable" two.numr
Substitution2: "'sups' Superscript lookup 19 subtable" uni00B2
Substitution2: "'subs' Subscript lookup 18 subtable" uni2082
EndChar

StartChar: three
Encoding: 51 51 22
Width: 572
Flags: W
LayerCount: 2
Fore
SplineSet
498 549 m 0,0,1
 498 476 498 476 457 433 c 128,-1,2
 416 390 416 390 349 376 c 1,3,-1
 349 372 l 1,4,5
 434 362 434 362 477 318 c 128,-1,6
 520 274 520 274 520 204 c 0,7,8
 520 142 520 142 490.5 93.5 c 128,-1,9
 461 45 461 45 399.5 17.5 c 128,-1,10
 338 -10 338 -10 242 -10 c 0,11,12
 185 -10 185 -10 136 -1 c 128,-1,13
 87 8 87 8 43 29 c 1,14,-1
 43 125 l 1,15,16
 88 102 88 102 140 90 c 128,-1,17
 192 78 192 78 238 78 c 0,18,19
 330 78 330 78 369.5 112.5 c 128,-1,20
 409 147 409 147 409 209 c 0,21,22
 409 269 409 269 361 297 c 128,-1,23
 313 325 313 325 217 325 c 2,24,-1
 152 325 l 1,25,-1
 152 412 l 1,26,-1
 218 412 l 2,27,28
 309 412 309 412 350 446 c 128,-1,29
 391 480 391 480 391 535 c 0,30,31
 391 583 391 583 359.5 609.5 c 128,-1,32
 328 636 328 636 269 636 c 0,33,34
 214 636 214 636 173.5 618.5 c 128,-1,35
 133 601 133 601 98 578 c 1,36,-1
 46 651 l 1,37,38
 86 681 86 681 142 702.5 c 128,-1,39
 198 724 198 724 272 724 c 0,40,41
 383 724 383 724 440.5 675.5 c 128,-1,42
 498 627 498 627 498 549 c 0,0,1
EndSplineSet
Substitution2: "'case' Case-Sensitive Forms lookup 35 subtable" three.lf
Substitution2: "'onum' Oldstyle Figures lookup 32 subtable" three.tosf
Substitution2: "'pnum' Proportional Numbers lookup 30 subtable" three.lf
Substitution2: "'frac' Diagonal Fractions lookup 23 subtable" three.numr
Substitution2: "'dnom' Denominators lookup 21 subtable" three.dnom
Substitution2: "'numr' Numerators lookup 20 subtable" three.numr
Substitution2: "'sups' Superscript lookup 19 subtable" uni00B3
Substitution2: "'subs' Subscript lookup 18 subtable" uni2083
EndChar

StartChar: four
Encoding: 52 52 23
Width: 572
Flags: W
LayerCount: 2
Fore
SplineSet
553 158 m 1,0,-1
 454 158 l 1,1,-1
 454 0 l 1,2,-1
 351 0 l 1,3,-1
 351 158 l 1,4,-1
 20 158 l 1,5,-1
 20 242 l 1,6,-1
 349 717 l 1,7,-1
 454 717 l 1,8,-1
 454 248 l 1,9,-1
 553 248 l 1,10,-1
 553 158 l 1,0,-1
351 248 m 1,11,-1
 351 442 l 2,12,13
 351 489 351 489 352.5 530.5 c 128,-1,14
 354 572 354 572 356 600 c 1,15,-1
 352 600 l 1,16,17
 344 580 344 580 332 559 c 128,-1,18
 320 538 320 538 309 522 c 2,19,-1
 120 248 l 1,20,-1
 351 248 l 1,11,-1
EndSplineSet
Substitution2: "'case' Case-Sensitive Forms lookup 35 subtable" four.lf
Substitution2: "'onum' Oldstyle Figures lookup 32 subtable" four.tosf
Substitution2: "'pnum' Proportional Numbers lookup 30 subtable" four.lf
Substitution2: "'frac' Diagonal Fractions lookup 23 subtable" four.numr
Substitution2: "'dnom' Denominators lookup 21 subtable" four.dnom
Substitution2: "'numr' Numerators lookup 20 subtable" four.numr
Substitution2: "'sups' Superscript lookup 19 subtable" uni2074
Substitution2: "'subs' Subscript lookup 18 subtable" uni2084
EndChar

StartChar: five
Encoding: 53 53 24
Width: 572
Flags: W
LayerCount: 2
Fore
SplineSet
282 443 m 0,0,1
 388 443 388 443 453 388 c 128,-1,2
 518 333 518 333 518 231 c 0,3,4
 518 118 518 118 447 54 c 128,-1,5
 376 -10 376 -10 246 -10 c 0,6,7
 190 -10 190 -10 141.5 0 c 128,-1,8
 93 10 93 10 59 29 c 1,9,-1
 59 126 l 1,10,11
 95 105 95 105 146.5 92 c 128,-1,12
 198 79 198 79 245 79 c 0,13,14
 320 79 320 79 365 113.5 c 128,-1,15
 410 148 410 148 410 221 c 0,16,17
 410 286 410 286 369.5 320.5 c 128,-1,18
 329 355 329 355 242 355 c 0,19,20
 214 355 214 355 179.5 350 c 128,-1,21
 145 345 145 345 124 340 c 1,22,-1
 75 369 l 1,23,-1
 102 714 l 1,24,-1
 469 714 l 1,25,-1
 469 620 l 1,26,-1
 194 620 l 1,27,-1
 178 433 l 1,28,29
 195 436 195 436 221 439.5 c 128,-1,30
 247 443 247 443 282 443 c 0,0,1
EndSplineSet
Substitution2: "'case' Case-Sensitive Forms lookup 35 subtable" five.lf
Substitution2: "'onum' Oldstyle Figures lookup 32 subtable" five.tosf
Substitution2: "'pnum' Proportional Numbers lookup 30 subtable" five.lf
Substitution2: "'frac' Diagonal Fractions lookup 23 subtable" five.numr
Substitution2: "'dnom' Denominators lookup 21 subtable" five.dnom
Substitution2: "'numr' Numerators lookup 20 subtable" five.numr
Substitution2: "'sups' Superscript lookup 19 subtable" uni2075
Substitution2: "'subs' Subscript lookup 18 subtable" uni2085
EndChar

StartChar: six
Encoding: 54 54 25
Width: 572
Flags: W
LayerCount: 2
Fore
SplineSet
49 304 m 0,0,1
 49 366 49 366 57.5 426 c 128,-1,2
 66 486 66 486 87.5 539.5 c 128,-1,3
 109 593 109 593 147 634.5 c 128,-1,4
 185 676 185 676 243.5 699.5 c 128,-1,5
 302 723 302 723 385 723 c 0,6,7
 406 723 406 723 432.5 721.5 c 128,-1,8
 459 720 459 720 476 715 c 1,9,-1
 476 626 l 1,10,11
 457 632 457 632 434.5 635 c 128,-1,12
 412 638 412 638 390 638 c 0,13,14
 321 638 321 638 276 617 c 128,-1,15
 231 596 231 596 205 559 c 128,-1,16
 179 522 179 522 167 473 c 128,-1,17
 155 424 155 424 152 368 c 1,18,-1
 158 368 l 1,19,20
 180 403 180 403 220 427.5 c 128,-1,21
 260 452 260 452 323 452 c 0,22,23
 416 452 416 452 472.5 394.5 c 128,-1,24
 529 337 529 337 529 232 c 0,25,26
 529 120 529 120 466.5 55 c 128,-1,27
 404 -10 404 -10 297 -10 c 0,28,29
 228 -10 228 -10 171.5 24 c 128,-1,30
 115 58 115 58 82 127.5 c 128,-1,31
 49 197 49 197 49 304 c 0,0,1
296 78 m 0,32,33
 353 78 353 78 389 115.5 c 128,-1,34
 425 153 425 153 425 232 c 0,35,36
 425 295 425 295 393.5 332 c 128,-1,37
 362 369 362 369 299 369 c 0,38,39
 256 369 256 369 224 351 c 128,-1,40
 192 333 192 333 174 305 c 128,-1,41
 156 277 156 277 156 248 c 0,42,43
 156 208 156 208 172 168.5 c 128,-1,44
 188 129 188 129 219 103.5 c 128,-1,45
 250 78 250 78 296 78 c 0,32,33
EndSplineSet
Substitution2: "'case' Case-Sensitive Forms lookup 35 subtable" six.lf
Substitution2: "'onum' Oldstyle Figures lookup 32 subtable" six.tosf
Substitution2: "'pnum' Proportional Numbers lookup 30 subtable" six.lf
Substitution2: "'frac' Diagonal Fractions lookup 23 subtable" six.numr
Substitution2: "'dnom' Denominators lookup 21 subtable" six.dnom
Substitution2: "'numr' Numerators lookup 20 subtable" six.numr
Substitution2: "'sups' Superscript lookup 19 subtable" uni2076
Substitution2: "'subs' Subscript lookup 18 subtable" uni2086
EndChar

StartChar: seven
Encoding: 55 55 26
Width: 572
Flags: W
LayerCount: 2
Fore
SplineSet
129 0 m 1,0,-1
 414 620 l 1,1,-1
 39 620 l 1,2,-1
 39 714 l 1,3,-1
 528 714 l 1,4,-1
 528 638 l 1,5,-1
 244 0 l 1,6,-1
 129 0 l 1,0,-1
EndSplineSet
Substitution2: "'case' Case-Sensitive Forms lookup 35 subtable" seven.lf
Substitution2: "'onum' Oldstyle Figures lookup 32 subtable" seven.tosf
Substitution2: "'pnum' Proportional Numbers lookup 30 subtable" seven.lf
Substitution2: "'frac' Diagonal Fractions lookup 23 subtable" seven.numr
Substitution2: "'dnom' Denominators lookup 21 subtable" seven.dnom
Substitution2: "'numr' Numerators lookup 20 subtable" seven.numr
Substitution2: "'sups' Superscript lookup 19 subtable" uni2077
Substitution2: "'subs' Subscript lookup 18 subtable" uni2087
EndChar

StartChar: eight
Encoding: 56 56 27
Width: 572
Flags: W
LayerCount: 2
Fore
SplineSet
285 724 m 0,0,1
 348 724 348 724 397 704.5 c 128,-1,2
 446 685 446 685 474.5 646.5 c 128,-1,3
 503 608 503 608 503 552 c 0,4,5
 503 488 503 488 464 447 c 128,-1,6
 425 406 425 406 370 378 c 1,7,8
 412 357 412 357 447.5 330.5 c 128,-1,9
 483 304 483 304 504.5 268.5 c 128,-1,10
 526 233 526 233 526 185 c 0,11,12
 526 125 526 125 496 81.5 c 128,-1,13
 466 38 466 38 412.5 14 c 128,-1,14
 359 -10 359 -10 287 -10 c 0,15,16
 171 -10 171 -10 108 40.5 c 128,-1,17
 45 91 45 91 45 182 c 0,18,19
 45 230 45 230 65 266.5 c 128,-1,20
 85 303 85 303 118 329 c 128,-1,21
 151 355 151 355 190 373 c 1,22,23
 138 403 138 403 103 445.5 c 128,-1,24
 68 488 68 488 68 553 c 0,25,26
 68 608 68 608 97 646.5 c 128,-1,27
 126 685 126 685 175 704.5 c 128,-1,28
 224 724 224 724 285 724 c 0,0,1
284 641 m 0,29,30
 234 641 234 641 202 616.5 c 128,-1,31
 170 592 170 592 170 547 c 0,32,33
 170 497 170 497 204.5 469.5 c 128,-1,34
 239 442 239 442 288 420 c 1,35,36
 334 440 334 440 367 469 c 128,-1,37
 400 498 400 498 400 547 c 0,38,39
 400 592 400 592 368 616.5 c 128,-1,40
 336 641 336 641 284 641 c 0,29,30
147 184 m 0,41,42
 147 136 147 136 181 104 c 128,-1,43
 215 72 215 72 285 72 c 0,44,45
 353 72 353 72 388.5 103.5 c 128,-1,46
 424 135 424 135 424 185 c 0,47,48
 424 234 424 234 385 266 c 128,-1,49
 346 298 346 298 288 323 c 2,50,-1
 273 329 l 1,51,52
 212 303 212 303 179.5 268.5 c 128,-1,53
 147 234 147 234 147 184 c 0,41,42
EndSplineSet
Substitution2: "'case' Case-Sensitive Forms lookup 35 subtable" eight.lf
Substitution2: "'onum' Oldstyle Figures lookup 32 subtable" eight.tosf
Substitution2: "'pnum' Proportional Numbers lookup 30 subtable" eight.lf
Substitution2: "'frac' Diagonal Fractions lookup 23 subtable" eight.numr
Substitution2: "'dnom' Denominators lookup 21 subtable" eight.dnom
Substitution2: "'numr' Numerators lookup 20 subtable" eight.numr
Substitution2: "'sups' Superscript lookup 19 subtable" uni2078
Substitution2: "'subs' Subscript lookup 18 subtable" uni2088
EndChar

StartChar: nine
Encoding: 57 57 28
Width: 572
Flags: W
LayerCount: 2
Fore
SplineSet
525 409 m 0,0,1
 525 348 525 348 516.5 287.5 c 128,-1,2
 508 227 508 227 486.5 173.5 c 128,-1,3
 465 120 465 120 427 78.5 c 128,-1,4
 389 37 389 37 330 13.5 c 128,-1,5
 271 -10 271 -10 188 -10 c 0,6,7
 168 -10 168 -10 140.5 -8 c 128,-1,8
 113 -6 113 -6 96 -1 c 1,9,-1
 96 88 l 1,10,11
 115 82 115 82 138.5 79 c 128,-1,12
 162 76 162 76 184 76 c 0,13,14
 253 76 253 76 298 96.5 c 128,-1,15
 343 117 343 117 369 154 c 128,-1,16
 395 191 395 191 407 239.5 c 128,-1,17
 419 288 419 288 421 344 c 1,18,-1
 415 344 l 1,19,20
 393 310 393 310 354 285.5 c 128,-1,21
 315 261 315 261 249 261 c 0,22,23
 157 261 157 261 101 318.5 c 128,-1,24
 45 376 45 376 45 480 c 0,25,26
 45 593 45 593 108 658 c 128,-1,27
 171 723 171 723 277 723 c 0,28,29
 346 723 346 723 402.5 689 c 128,-1,30
 459 655 459 655 492 585.5 c 128,-1,31
 525 516 525 516 525 409 c 0,0,1
278 636 m 0,32,33
 221 636 221 636 185 598 c 128,-1,34
 149 560 149 560 149 482 c 0,35,36
 149 418 149 418 180 381 c 128,-1,37
 211 344 211 344 274 344 c 0,38,39
 318 344 318 344 350.5 362 c 128,-1,40
 383 380 383 380 400.5 408 c 128,-1,41
 418 436 418 436 418 466 c 0,42,43
 418 506 418 506 402.5 545 c 128,-1,44
 387 584 387 584 355.5 610 c 128,-1,45
 324 636 324 636 278 636 c 0,32,33
EndSplineSet
Substitution2: "'case' Case-Sensitive Forms lookup 35 subtable" nine.lf
Substitution2: "'onum' Oldstyle Figures lookup 32 subtable" nine.tosf
Substitution2: "'pnum' Proportional Numbers lookup 30 subtable" nine.lf
Substitution2: "'frac' Diagonal Fractions lookup 23 subtable" nine.numr
Substitution2: "'dnom' Denominators lookup 21 subtable" nine.dnom
Substitution2: "'numr' Numerators lookup 20 subtable" nine.numr
Substitution2: "'sups' Superscript lookup 19 subtable" uni2079
Substitution2: "'subs' Subscript lookup 18 subtable" uni2089
EndChar

StartChar: colon
Encoding: 58 58 29
Width: 273
Flags: W
LayerCount: 2
Fore
SplineSet
68 479 m 0,0,1
 68 520 68 520 88 536 c 128,-1,2
 108 552 108 552 136 552 c 256,3,4
 164 552 164 552 184.5 536 c 128,-1,5
 205 520 205 520 205 479 c 0,6,7
 205 441 205 441 184.5 424 c 128,-1,8
 164 407 164 407 136 407 c 256,9,10
 108 407 108 407 88 424 c 128,-1,11
 68 441 68 441 68 479 c 0,0,1
68 59 m 256,12,13
 68 98 68 98 88 114 c 128,-1,14
 108 130 108 130 136 130 c 256,15,16
 164 130 164 130 184.5 114 c 128,-1,17
 205 98 205 98 205 59 c 256,18,19
 205 20 205 20 184.5 3 c 128,-1,20
 164 -14 164 -14 136 -14 c 256,21,22
 108 -14 108 -14 88 3 c 128,-1,23
 68 20 68 20 68 59 c 256,12,13
EndSplineSet
EndChar

StartChar: semicolon
Encoding: 59 59 30
Width: 273
Flags: W
LayerCount: 2
Fore
SplineSet
66 479 m 0,0,1
 66 520 66 520 86 536 c 128,-1,2
 106 552 106 552 135 552 c 256,3,4
 164 552 164 552 184 536 c 128,-1,5
 204 520 204 520 204 479 c 0,6,7
 204 441 204 441 184 424 c 128,-1,8
 164 407 164 407 135 407 c 256,9,10
 106 407 106 407 86 424 c 128,-1,11
 66 441 66 441 66 479 c 0,0,1
188 116 m 1,12,-1
 195 105 l 1,13,14
 182 52 182 52 157.5 -11.5 c 128,-1,15
 133 -75 133 -75 109 -129 c 1,16,-1
 31 -129 l 1,17,18
 45 -72 45 -72 59.5 -4 c 128,-1,19
 74 64 74 64 81 116 c 1,20,-1
 188 116 l 1,12,-1
EndSplineSet
EndChar

StartChar: less
Encoding: 60 60 31
Width: 572
Flags: W
LayerCount: 2
Fore
SplineSet
523 111 m 1,0,-1
 48 320 l 1,1,-1
 48 376 l 1,2,-1
 523 613 l 1,3,-1
 523 524 l 1,4,-1
 159 352 l 1,5,-1
 523 200 l 1,6,-1
 523 111 l 1,0,-1
EndSplineSet
EndChar

StartChar: equal
Encoding: 61 61 32
Width: 572
Flags: W
LayerCount: 2
Fore
SplineSet
52 410 m 1,0,-1
 52 491 l 1,1,-1
 518 491 l 1,2,-1
 518 410 l 1,3,-1
 52 410 l 1,0,-1
52 213 m 1,4,-1
 52 295 l 1,5,-1
 518 295 l 1,6,-1
 518 213 l 1,7,-1
 52 213 l 1,4,-1
EndSplineSet
Substitution2: "'sups' Superscript lookup 19 subtable" uni207C
Substitution2: "'subs' Subscript lookup 18 subtable" uni208C
EndChar

StartChar: greater
Encoding: 62 62 33
Width: 572
Flags: W
LayerCount: 2
Fore
SplineSet
48 200 m 1,0,-1
 412 352 l 1,1,-1
 48 524 l 1,2,-1
 48 613 l 1,3,-1
 523 376 l 1,4,-1
 523 320 l 1,5,-1
 48 111 l 1,6,-1
 48 200 l 1,0,-1
EndSplineSet
EndChar

StartChar: question
Encoding: 63 63 34
Width: 447
Flags: W
LayerCount: 2
Fore
SplineSet
139 212 m 1,0,-1
 139 241 l 2,1,2
 139 296 139 296 157.5 331.5 c 128,-1,3
 176 367 176 367 225 407 c 0,4,5
 261 436 261 436 281.5 456.5 c 128,-1,6
 302 477 302 477 311 497.5 c 128,-1,7
 320 518 320 518 320 545 c 0,8,9
 320 588 320 588 291 611 c 128,-1,10
 262 634 262 634 209 634 c 0,11,12
 162 634 162 634 123 621.5 c 128,-1,13
 84 609 84 609 47 591 c 1,14,-1
 9 671 l 1,15,16
 52 694 52 694 103 709 c 128,-1,17
 154 724 154 724 216 724 c 0,18,19
 314 724 314 724 367.5 676 c 128,-1,20
 421 628 421 628 421 548 c 0,21,22
 421 504 421 504 407 473 c 128,-1,23
 393 442 393 442 366.5 416 c 128,-1,24
 340 390 340 390 304 360 c 0,25,26
 272 334 272 334 255 315 c 128,-1,27
 238 296 238 296 232 277 c 128,-1,28
 226 258 226 258 226 232 c 2,29,-1
 226 212 l 1,30,-1
 139 212 l 1,0,-1
118 59 m 256,31,32
 118 98 118 98 137.5 114 c 128,-1,33
 157 130 157 130 187 130 c 0,34,35
 215 130 215 130 235 114 c 128,-1,36
 255 98 255 98 255 59 c 256,37,38
 255 20 255 20 235 3 c 128,-1,39
 215 -14 215 -14 187 -14 c 0,40,41
 157 -14 157 -14 137.5 3 c 128,-1,42
 118 20 118 20 118 59 c 256,31,32
EndSplineSet
Substitution2: "'smcp' Lowercase to Small Capitals lookup 34 subtable" question.sc
Substitution2: "'c2sc' Capitals to Small Capitals lookup 33 subtable" question.sc
EndChar

StartChar: at
Encoding: 64 64 35
Width: 898
Flags: W
LayerCount: 2
Fore
SplineSet
843 357 m 0,0,1
 843 311 843 311 832 267 c 128,-1,2
 821 223 821 223 799 187 c 128,-1,3
 777 151 777 151 744 129.5 c 128,-1,4
 711 108 711 108 667 108 c 0,5,6
 624 108 624 108 597 131.5 c 128,-1,7
 570 155 570 155 563 188 c 1,8,-1
 557 188 l 1,9,10
 538 154 538 154 504 131 c 128,-1,11
 470 108 470 108 418 108 c 0,12,13
 338 108 338 108 294.5 159.5 c 128,-1,14
 251 211 251 211 251 296 c 0,15,16
 251 362 251 362 278 413 c 128,-1,17
 305 464 305 464 354 493 c 128,-1,18
 403 522 403 522 470 522 c 0,19,20
 515 522 515 522 559.5 514.5 c 128,-1,21
 604 507 604 507 630 497 c 1,22,-1
 620 294 l 2,23,24
 619 278 619 278 619 269.5 c 128,-1,25
 619 261 619 261 619 258 c 0,26,27
 619 209 619 209 635.5 193.5 c 128,-1,28
 652 178 652 178 673 178 c 0,29,30
 702 178 702 178 721.5 202.5 c 128,-1,31
 741 227 741 227 751.5 267.5 c 128,-1,32
 762 308 762 308 762 358 c 0,33,34
 762 448 762 448 725.5 511 c 128,-1,35
 689 574 689 574 625.5 607 c 128,-1,36
 562 640 562 640 481 640 c 0,37,38
 370 640 370 640 293.5 594 c 128,-1,39
 217 548 217 548 177.5 468 c 128,-1,40
 138 388 138 388 138 284 c 0,41,42
 138 140 138 140 214.5 63 c 128,-1,43
 291 -14 291 -14 435 -14 c 0,44,45
 495 -14 495 -14 552.5 -0.5 c 128,-1,46
 610 13 610 13 656 30 c 1,47,-1
 656 -46 l 1,48,49
 612 -65 612 -65 556.5 -76.5 c 128,-1,50
 501 -88 501 -88 436 -88 c 0,51,52
 316 -88 316 -88 231 -44 c 128,-1,53
 146 0 146 0 101 82.5 c 128,-1,54
 56 165 56 165 56 281 c 0,55,56
 56 374 56 374 85.5 452.5 c 128,-1,57
 115 531 115 531 170 590 c 128,-1,58
 225 649 225 649 303.5 681.5 c 128,-1,59
 382 714 382 714 481 714 c 0,60,61
 586 714 586 714 668 671 c 128,-1,62
 750 628 750 628 796.5 548 c 128,-1,63
 843 468 843 468 843 357 c 0,0,1
339 294 m 0,64,65
 339 232 339 232 363.5 205 c 128,-1,66
 388 178 388 178 430 178 c 0,67,68
 484 178 484 178 507.5 218 c 128,-1,69
 531 258 531 258 535 323 c 2,70,-1
 541 443 l 1,71,72
 528 447 528 447 510 449.5 c 128,-1,73
 492 452 492 452 472 452 c 0,74,75
 424 452 424 452 394.5 429 c 128,-1,76
 365 406 365 406 352 370 c 128,-1,77
 339 334 339 334 339 294 c 0,64,65
EndSplineSet
EndChar

StartChar: A
Encoding: 65 65 36
Width: 654
GlyphClass: 2
Flags: W
AnchorPoint: "Anchor-3" 540 714 basechar 0
AnchorPoint: "Anchor-2" 326 714 basechar 0
AnchorPoint: "Anchor-0" 330 0 basechar 0
LayerCount: 2
Fore
SplineSet
540 0 m 1,0,-1
 464 206 l 1,1,-1
 188 206 l 1,2,-1
 112 0 l 1,3,-1
 0 0 l 1,4,-1
 271 717 l 1,5,-1
 383 717 l 1,6,-1
 653 0 l 1,7,-1
 540 0 l 1,0,-1
434 300 m 1,8,-1
 362 501 l 2,9,10
 358 512 358 512 351 534 c 128,-1,11
 344 556 344 556 337 580 c 128,-1,12
 330 604 330 604 326 619 c 1,13,14
 318 588 318 588 308 553 c 128,-1,15
 298 518 298 518 292 501 c 2,16,-1
 220 300 l 1,17,-1
 434 300 l 1,8,-1
EndSplineSet
Substitution2: "'c2sc' Capitals to Small Capitals lookup 33 subtable" a.sc
Substitution2: "Single Substitution lookup 28 subtable" ordfeminine
EndChar

StartChar: B
Encoding: 66 66 37
Width: 656
GlyphClass: 2
Flags: W
AnchorPoint: "Anchor-3" 636 714 basechar 0
AnchorPoint: "Anchor-2" 328 714 basechar 0
AnchorPoint: "Anchor-0" 322 0 basechar 0
LayerCount: 2
Fore
SplineSet
95 714 m 1,0,-1
 304 714 l 2,1,2
 440 714 440 714 510.5 674 c 128,-1,3
 581 634 581 634 581 536 c 0,4,5
 581 474 581 474 547.5 432 c 128,-1,6
 514 390 514 390 452 379 c 1,7,-1
 452 374 l 1,8,9
 494 366 494 366 528.5 347.5 c 128,-1,10
 563 329 563 329 583 294.5 c 128,-1,11
 603 260 603 260 603 204 c 0,12,13
 603 106 603 106 535 53 c 128,-1,14
 467 0 467 0 351 0 c 2,15,-1
 95 0 l 1,16,-1
 95 714 l 1,0,-1
203 416 m 1,17,-1
 322 416 l 2,18,19
 406 416 406 416 437.5 443 c 128,-1,20
 469 470 469 470 469 523 c 256,21,22
 469 576 469 576 430.5 599.5 c 128,-1,23
 392 623 392 623 310 623 c 2,24,-1
 203 623 l 1,25,-1
 203 416 l 1,17,-1
203 328 m 1,26,-1
 203 90 l 1,27,-1
 334 90 l 2,28,29
 420 90 420 90 454.5 124 c 128,-1,30
 489 158 489 158 489 214 c 0,31,32
 489 265 489 265 453.5 296.5 c 128,-1,33
 418 328 418 328 327 328 c 2,34,-1
 203 328 l 1,26,-1
EndSplineSet
Substitution2: "'c2sc' Capitals to Small Capitals lookup 33 subtable" b.sc
EndChar

StartChar: C
Encoding: 67 67 38
Width: 633
GlyphClass: 2
Flags: W
AnchorPoint: "Anchor-3" 613 714 basechar 0
AnchorPoint: "Anchor-2" 379 714 basechar 0
AnchorPoint: "Anchor-0" 371 0 basechar 0
LayerCount: 2
Fore
SplineSet
400 631 m 0,0,1
 294 631 294 631 233.5 557.5 c 128,-1,2
 173 484 173 484 173 356 c 0,3,4
 173 229 173 229 229 156 c 128,-1,5
 285 83 285 83 399 83 c 0,6,7
 445 83 445 83 487.5 91.5 c 128,-1,8
 530 100 530 100 574 114 c 1,9,-1
 574 21 l 1,10,11
 532 5 532 5 488 -2.5 c 128,-1,12
 444 -10 444 -10 386 -10 c 0,13,14
 276 -10 276 -10 203.5 35.5 c 128,-1,15
 131 81 131 81 95.5 163.5 c 128,-1,16
 60 246 60 246 60 357 c 0,17,18
 60 465 60 465 99.5 547.5 c 128,-1,19
 139 630 139 630 215 677 c 128,-1,20
 291 724 291 724 401 724 c 0,21,22
 455 724 455 724 506.5 712.5 c 128,-1,23
 558 701 558 701 601 680 c 1,24,-1
 561 590 l 1,25,26
 526 606 526 606 486 618.5 c 128,-1,27
 446 631 446 631 400 631 c 0,0,1
EndSplineSet
Substitution2: "'c2sc' Capitals to Small Capitals lookup 33 subtable" c.sc
EndChar

StartChar: D
Encoding: 68 68 39
Width: 733
GlyphClass: 2
Flags: W
AnchorPoint: "Anchor-3" 713 714 basechar 0
AnchorPoint: "Anchor-2" 364 714 basechar 0
AnchorPoint: "Anchor-1" 366 357 basechar 0
AnchorPoint: "Anchor-0" 343 0 basechar 0
LayerCount: 2
Fore
SplineSet
673 364 m 0,0,1
 673 183 673 183 573.5 91.5 c 128,-1,2
 474 0 474 0 295 0 c 2,3,-1
 95 0 l 1,4,-1
 95 714 l 1,5,-1
 316 714 l 2,6,7
 425 714 425 714 505 674 c 128,-1,8
 585 634 585 634 629 556 c 128,-1,9
 673 478 673 478 673 364 c 0,0,1
560 361 m 0,10,11
 560 496 560 496 495 559.5 c 128,-1,12
 430 623 430 623 309 623 c 2,13,-1
 203 623 l 1,14,-1
 203 91 l 1,15,-1
 290 91 l 2,16,17
 560 91 560 91 560 361 c 0,10,11
EndSplineSet
Substitution2: "'c2sc' Capitals to Small Capitals lookup 33 subtable" d.sc
EndChar

StartChar: E
Encoding: 69 69 40
Width: 557
GlyphClass: 2
Flags: W
AnchorPoint: "Anchor-3" 537 714 basechar 0
AnchorPoint: "Anchor-2" 304 714 basechar 0
AnchorPoint: "Anchor-0" 301 0 basechar 0
LayerCount: 2
Fore
SplineSet
497 0 m 1,0,-1
 95 0 l 1,1,-1
 95 714 l 1,2,-1
 497 714 l 1,3,-1
 497 622 l 1,4,-1
 203 622 l 1,5,-1
 203 418 l 1,6,-1
 479 418 l 1,7,-1
 479 327 l 1,8,-1
 203 327 l 1,9,-1
 203 93 l 1,10,-1
 497 93 l 1,11,-1
 497 0 l 1,0,-1
EndSplineSet
Substitution2: "'c2sc' Capitals to Small Capitals lookup 33 subtable" e.sc
EndChar

StartChar: F
Encoding: 70 70 41
Width: 528
GlyphClass: 2
Flags: W
AnchorPoint: "Anchor-3" 508 714 basechar 0
AnchorPoint: "Anchor-2" 298 714 basechar 0
AnchorPoint: "Anchor-0" 264 0 basechar 0
LayerCount: 2
Fore
SplineSet
202 0 m 1,0,-1
 95 0 l 1,1,-1
 95 714 l 1,2,-1
 497 714 l 1,3,-1
 497 622 l 1,4,-1
 202 622 l 1,5,-1
 202 389 l 1,6,-1
 478 389 l 1,7,-1
 478 297 l 1,8,-1
 202 297 l 1,9,-1
 202 0 l 1,0,-1
EndSplineSet
Substitution2: "'c2sc' Capitals to Small Capitals lookup 33 subtable" f.sc
EndChar

StartChar: G
Encoding: 71 71 42
Width: 727
GlyphClass: 2
Flags: W
AnchorPoint: "Anchor-3" 707 714 basechar 0
AnchorPoint: "Anchor-2" 404 714 basechar 0
AnchorPoint: "Anchor-0" 398 0 basechar 0
LayerCount: 2
Fore
SplineSet
393 384 m 1,0,-1
 651 384 l 1,1,-1
 651 28 l 1,2,3
 594 9 594 9 534.5 -0.5 c 128,-1,4
 475 -10 475 -10 399 -10 c 0,5,6
 235 -10 235 -10 147.5 87 c 128,-1,7
 60 184 60 184 60 357 c 0,8,9
 60 469 60 469 103.5 551.5 c 128,-1,10
 147 634 147 634 230 679 c 128,-1,11
 313 724 313 724 431 724 c 0,12,13
 490 724 490 724 544 712 c 128,-1,14
 598 700 598 700 644 681 c 1,15,-1
 605 591 l 1,16,17
 568 608 568 608 522 619.5 c 128,-1,18
 476 631 476 631 427 631 c 0,19,20
 348 631 348 631 290.5 597.5 c 128,-1,21
 233 564 233 564 202.5 502 c 128,-1,22
 172 440 172 440 172 356 c 0,23,24
 172 276 172 276 197 214 c 128,-1,25
 222 152 222 152 276 117 c 128,-1,26
 330 82 330 82 417 82 c 0,27,28
 460 82 460 82 489.5 86.5 c 128,-1,29
 519 91 519 91 544 97 c 1,30,-1
 544 291 l 1,31,-1
 393 291 l 1,32,-1
 393 384 l 1,0,-1
EndSplineSet
Substitution2: "'c2sc' Capitals to Small Capitals lookup 33 subtable" g.sc
EndChar

StartChar: H
Encoding: 72 72 43
Width: 748
GlyphClass: 2
Flags: W
AnchorPoint: "Anchor-3" 728 714 basechar 0
AnchorPoint: "Anchor-2" 375 714 basechar 0
AnchorPoint: "Anchor-1" 375 357 basechar 0
AnchorPoint: "Anchor-0" 371 0 basechar 0
LayerCount: 2
Fore
SplineSet
652 0 m 1,0,-1
 544 0 l 1,1,-1
 544 326 l 1,2,-1
 203 326 l 1,3,-1
 203 0 l 1,4,-1
 95 0 l 1,5,-1
 95 714 l 1,6,-1
 203 714 l 1,7,-1
 203 418 l 1,8,-1
 544 418 l 1,9,-1
 544 714 l 1,10,-1
 652 714 l 1,11,-1
 652 0 l 1,0,-1
EndSplineSet
Substitution2: "'c2sc' Capitals to Small Capitals lookup 33 subtable" h.sc
EndChar

StartChar: I
Encoding: 73 73 44
Width: 354
GlyphClass: 2
Flags: W
AnchorPoint: "Anchor-3" 334 714 basechar 0
AnchorPoint: "Anchor-2" 177 714 basechar 0
AnchorPoint: "Anchor-0" 177 0 basechar 0
LayerCount: 2
Fore
SplineSet
315 0 m 1,0,-1
 38 0 l 1,1,-1
 38 62 l 1,2,-1
 123 87 l 1,3,-1
 123 626 l 1,4,-1
 38 652 l 1,5,-1
 38 714 l 1,6,-1
 315 714 l 1,7,-1
 315 652 l 1,8,-1
 231 626 l 1,9,-1
 231 87 l 1,10,-1
 315 62 l 1,11,-1
 315 0 l 1,0,-1
EndSplineSet
Substitution2: "'c2sc' Capitals to Small Capitals lookup 33 subtable" i.sc
EndChar

StartChar: J
Encoding: 74 74 45
Width: 290
GlyphClass: 2
Flags: W
AnchorPoint: "Anchor-3" 270 714 basechar 0
AnchorPoint: "Anchor-2" 146 714 basechar 0
AnchorPoint: "Anchor-0" 2 -176 basechar 0
LayerCount: 2
Fore
SplineSet
2 -196 m 0,0,1
 -24 -196 -24 -196 -43.5 -192.5 c 128,-1,2
 -63 -189 -63 -189 -77 -183 c 1,3,-1
 -77 -93 l 1,4,5
 -61 -97 -61 -97 -43 -100 c 128,-1,6
 -25 -103 -25 -103 -5 -103 c 0,7,8
 20 -103 20 -103 42 -93 c 128,-1,9
 64 -83 64 -83 77.5 -57.5 c 128,-1,10
 91 -32 91 -32 91 16 c 2,11,-1
 91 714 l 1,12,-1
 199 714 l 1,13,-1
 199 21 l 2,14,15
 199 -92 199 -92 144.5 -144 c 128,-1,16
 90 -196 90 -196 2 -196 c 0,0,1
EndSplineSet
Substitution2: "'c2sc' Capitals to Small Capitals lookup 33 subtable" j.sc
EndChar

StartChar: K
Encoding: 75 75 46
Width: 632
GlyphClass: 2
Flags: W
AnchorPoint: "Anchor-3" 612 714 basechar 0
AnchorPoint: "Anchor-2" 343 714 basechar 0
AnchorPoint: "Anchor-0" 335 0 basechar 0
LayerCount: 2
Fore
SplineSet
632 0 m 1,0,-1
 507 0 l 1,1,-1
 273 329 l 1,2,-1
 203 271 l 1,3,-1
 203 0 l 1,4,-1
 95 0 l 1,5,-1
 95 714 l 1,6,-1
 203 714 l 1,7,-1
 203 369 l 1,8,9
 228 399 228 399 255 429 c 128,-1,10
 282 459 282 459 307 490 c 2,11,-1
 500 714 l 1,12,-1
 624 714 l 1,13,-1
 351 402 l 1,14,-1
 632 0 l 1,0,-1
EndSplineSet
Substitution2: "'c2sc' Capitals to Small Capitals lookup 33 subtable" k.sc
EndChar

StartChar: L
Encoding: 76 76 47
Width: 536
GlyphClass: 2
Flags: W
AnchorPoint: "Anchor-3" 370 714 basechar 0
AnchorPoint: "Anchor-2" 147 714 basechar 0
AnchorPoint: "Anchor-1" 268 357 basechar 0
AnchorPoint: "Anchor-0" 302 0 basechar 0
LayerCount: 2
Fore
SplineSet
95 0 m 1,0,-1
 95 714 l 1,1,-1
 203 714 l 1,2,-1
 203 93 l 1,3,-1
 508 93 l 1,4,-1
 508 0 l 1,5,-1
 95 0 l 1,0,-1
EndSplineSet
Substitution2: "'c2sc' Capitals to Small Capitals lookup 33 subtable" l.sc
EndChar

StartChar: M
Encoding: 77 77 48
Width: 918
GlyphClass: 2
Flags: W
AnchorPoint: "Anchor-3" 898 714 basechar 0
AnchorPoint: "Anchor-2" 459 714 basechar 0
AnchorPoint: "Anchor-0" 453 0 basechar 0
LayerCount: 2
Fore
SplineSet
406 0 m 1,0,-1
 190 607 l 1,1,-1
 186 607 l 1,2,3
 188 586 188 586 189.5 552.5 c 128,-1,4
 191 519 191 519 192 479.5 c 128,-1,5
 193 440 193 440 193 403 c 2,6,-1
 193 0 l 1,7,-1
 95 0 l 1,8,-1
 95 714 l 1,9,-1
 249 714 l 1,10,-1
 454 141 l 1,11,-1
 458 141 l 1,12,-1
 669 714 l 1,13,-1
 823 714 l 1,14,-1
 823 0 l 1,15,-1
 718 0 l 1,16,-1
 718 409 l 2,17,18
 718 444 718 444 719.5 481 c 128,-1,19
 721 518 721 518 722.5 551 c 128,-1,20
 724 584 724 584 725 606 c 1,21,-1
 721 606 l 1,22,-1
 499 0 l 1,23,-1
 406 0 l 1,0,-1
EndSplineSet
Substitution2: "'c2sc' Capitals to Small Capitals lookup 33 subtable" m.sc
EndChar

StartChar: N
Encoding: 78 78 49
Width: 776
GlyphClass: 2
Flags: W
AnchorPoint: "Anchor-3" 756 714 basechar 0
AnchorPoint: "Anchor-2" 388 714 basechar 0
AnchorPoint: "Anchor-0" 388 0 basechar 0
LayerCount: 2
Fore
SplineSet
681 0 m 1,0,-1
 550 0 l 1,1,-1
 189 577 l 1,2,-1
 185 577 l 1,3,4
 187 537 187 537 189.5 485.5 c 128,-1,5
 192 434 192 434 193 380 c 2,6,-1
 193 0 l 1,7,-1
 95 0 l 1,8,-1
 95 714 l 1,9,-1
 225 714 l 1,10,-1
 585 140 l 1,11,-1
 588 140 l 1,12,13
 587 161 587 161 585.5 193 c 128,-1,14
 584 225 584 225 583 261.5 c 128,-1,15
 582 298 582 298 581 330 c 2,16,-1
 581 714 l 1,17,-1
 681 714 l 1,18,-1
 681 0 l 1,0,-1
EndSplineSet
Substitution2: "'c2sc' Capitals to Small Capitals lookup 33 subtable" n.sc
EndChar

StartChar: O
Encoding: 79 79 50
Width: 785
GlyphClass: 2
Flags: W
AnchorPoint: "Anchor-3" 765 714 basechar 0
AnchorPoint: "Anchor-2" 393 714 basechar 0
AnchorPoint: "Anchor-1" 393 357 basechar 0
AnchorPoint: "Anchor-0" 394 0 basechar 0
LayerCount: 2
Fore
SplineSet
725 358 m 256,0,1
 725 247 725 247 688 164.5 c 128,-1,2
 651 82 651 82 577 36 c 128,-1,3
 503 -10 503 -10 393 -10 c 0,4,5
 280 -10 280 -10 206 36 c 128,-1,6
 132 82 132 82 96 165 c 128,-1,7
 60 248 60 248 60 359 c 0,8,9
 60 469 60 469 96 551.5 c 128,-1,10
 132 634 132 634 206 679.5 c 128,-1,11
 280 725 280 725 394 725 c 0,12,13
 504 725 504 725 577.5 679.5 c 128,-1,14
 651 634 651 634 688 551.5 c 128,-1,15
 725 469 725 469 725 358 c 256,0,1
174 358 m 256,16,17
 174 230 174 230 227 156 c 128,-1,18
 280 82 280 82 393 82 c 0,19,20
 507 82 507 82 559 156 c 128,-1,21
 611 230 611 230 611 358 c 256,22,23
 611 486 611 486 559 559 c 128,-1,24
 507 632 507 632 394 632 c 0,25,26
 280 632 280 632 227 559 c 128,-1,27
 174 486 174 486 174 358 c 256,16,17
EndSplineSet
Substitution2: "'c2sc' Capitals to Small Capitals lookup 33 subtable" o.sc
Substitution2: "Single Substitution lookup 28 subtable" ordmasculine
EndChar

StartChar: P
Encoding: 80 80 51
Width: 612
GlyphClass: 2
Flags: W
AnchorPoint: "Anchor-3" 592 714 basechar 0
AnchorPoint: "Anchor-2" 319 714 basechar 0
AnchorPoint: "Anchor-0" 306 0 basechar 0
LayerCount: 2
Fore
SplineSet
295 714 m 2,0,1
 435 714 435 714 499 657.5 c 128,-1,2
 563 601 563 601 563 500 c 0,3,4
 563 440 563 440 536.5 388 c 128,-1,5
 510 336 510 336 448 303.5 c 128,-1,6
 386 271 386 271 280 271 c 2,7,-1
 203 271 l 1,8,-1
 203 0 l 1,9,-1
 95 0 l 1,10,-1
 95 714 l 1,11,-1
 295 714 l 2,0,1
287 623 m 2,12,-1
 203 623 l 1,13,-1
 203 362 l 1,14,-1
 268 362 l 2,15,16
 359 362 359 362 405.5 392.5 c 128,-1,17
 452 423 452 423 452 496 c 0,18,19
 452 560 452 560 412 591.5 c 128,-1,20
 372 623 372 623 287 623 c 2,12,-1
EndSplineSet
Substitution2: "'c2sc' Capitals to Small Capitals lookup 33 subtable" p.sc
EndChar

StartChar: Q
Encoding: 81 81 52
Width: 785
GlyphClass: 2
Flags: W
AnchorPoint: "Anchor-3" 765 714 basechar 0
AnchorPoint: "Anchor-2" 393 714 basechar 0
AnchorPoint: "Anchor-0" 393 -170 basechar 0
LayerCount: 2
Fore
SplineSet
725 358 m 0,0,1
 725 230 725 230 675.5 139 c 128,-1,2
 626 48 626 48 527 12 c 1,3,-1
 698 -170 l 1,4,-1
 550 -170 l 1,5,-1
 414 -9 l 2,6,7
 409 -9 409 -9 403.5 -9.5 c 128,-1,8
 398 -10 398 -10 393 -10 c 0,9,10
 280 -10 280 -10 206 36 c 128,-1,11
 132 82 132 82 96 165 c 128,-1,12
 60 248 60 248 60 359 c 0,13,14
 60 469 60 469 96 551.5 c 128,-1,15
 132 634 132 634 206 679.5 c 128,-1,16
 280 725 280 725 394 725 c 0,17,18
 504 725 504 725 577.5 679.5 c 128,-1,19
 651 634 651 634 688 551.5 c 128,-1,20
 725 469 725 469 725 358 c 0,0,1
174 358 m 256,21,22
 174 230 174 230 227 156 c 128,-1,23
 280 82 280 82 393 82 c 0,24,25
 507 82 507 82 559 156 c 128,-1,26
 611 230 611 230 611 358 c 256,27,28
 611 486 611 486 559 559 c 128,-1,29
 507 632 507 632 394 632 c 0,30,31
 280 632 280 632 227 559 c 128,-1,32
 174 486 174 486 174 358 c 256,21,22
EndSplineSet
Substitution2: "'c2sc' Capitals to Small Capitals lookup 33 subtable" q.sc
EndChar

StartChar: R
Encoding: 82 82 53
Width: 633
GlyphClass: 2
Flags: W
AnchorPoint: "Anchor-3" 613 714 basechar 0
AnchorPoint: "Anchor-2" 319 714 basechar 0
AnchorPoint: "Anchor-0" 337 0 basechar 0
LayerCount: 2
Fore
SplineSet
295 714 m 2,0,1
 432 714 432 714 497.5 663 c 128,-1,2
 563 612 563 612 563 508 c 0,3,4
 563 453 563 453 543 415.5 c 128,-1,5
 523 378 523 378 490.5 354 c 128,-1,6
 458 330 458 330 423 317 c 1,7,-1
 623 0 l 1,8,-1
 499 0 l 1,9,-1
 327 289 l 1,10,-1
 203 289 l 1,11,-1
 203 0 l 1,12,-1
 95 0 l 1,13,-1
 95 714 l 1,14,-1
 295 714 l 2,0,1
288 622 m 2,15,-1
 203 622 l 1,16,-1
 203 379 l 1,17,-1
 293 379 l 2,18,19
 376 379 376 379 414 410.5 c 128,-1,20
 452 442 452 442 452 504 c 0,21,22
 452 568 452 568 412 595 c 128,-1,23
 372 622 372 622 288 622 c 2,15,-1
EndSplineSet
Substitution2: "'c2sc' Capitals to Small Capitals lookup 33 subtable" r.sc
EndChar

StartChar: S
Encoding: 83 83 54
Width: 550
GlyphClass: 2
Flags: W
AnchorPoint: "Anchor-3" 530 714 basechar 0
AnchorPoint: "Anchor-2" 285 714 basechar 0
AnchorPoint: "Anchor-0" 260 0 basechar 0
LayerCount: 2
Fore
SplineSet
505 193 m 0,0,1
 505 98 505 98 436 44 c 128,-1,2
 367 -10 367 -10 247 -10 c 0,3,4
 188 -10 188 -10 137 -0.5 c 128,-1,5
 86 9 86 9 50 27 c 1,6,-1
 50 129 l 1,7,8
 90 111 90 111 144 96.5 c 128,-1,9
 198 82 198 82 254 82 c 0,10,11
 326 82 326 82 362 110 c 128,-1,12
 398 138 398 138 398 185 c 0,13,14
 398 218 398 218 382 240.5 c 128,-1,15
 366 263 366 263 330.5 282.5 c 128,-1,16
 295 302 295 302 238 324 c 0,17,18
 186 344 186 344 145 371 c 128,-1,19
 104 398 104 398 81 438 c 128,-1,20
 58 478 58 478 58 536 c 0,21,22
 58 624 58 624 122 674 c 128,-1,23
 186 724 186 724 290 724 c 0,24,25
 348 724 348 724 397.5 712 c 128,-1,26
 447 700 447 700 492 681 c 1,27,-1
 458 592 l 1,28,29
 417 609 417 609 374.5 620 c 128,-1,30
 332 631 332 631 287 631 c 0,31,32
 228 631 228 631 197 605 c 128,-1,33
 166 579 166 579 166 537 c 0,34,35
 166 504 166 504 181 481.5 c 128,-1,36
 196 459 196 459 229 440.5 c 128,-1,37
 262 422 262 422 316 401 c 0,38,39
 376 377 376 377 418.5 350.5 c 128,-1,40
 461 324 461 324 483 286.5 c 128,-1,41
 505 249 505 249 505 193 c 0,0,1
EndSplineSet
Substitution2: "'c2sc' Capitals to Small Capitals lookup 33 subtable" s.sc
EndChar

StartChar: T
Encoding: 84 84 55
Width: 563
GlyphClass: 2
Flags: W
AnchorPoint: "Anchor-3" 543 714 basechar 0
AnchorPoint: "Anchor-2" 282 714 basechar 0
AnchorPoint: "Anchor-1" 282 357 basechar 0
AnchorPoint: "Anchor-0" 282 0 basechar 0
LayerCount: 2
Fore
SplineSet
335 0 m 1,0,-1
 227 0 l 1,1,-1
 227 621 l 1,2,-1
 13 621 l 1,3,-1
 13 714 l 1,4,-1
 549 714 l 1,5,-1
 549 621 l 1,6,-1
 335 621 l 1,7,-1
 335 0 l 1,0,-1
EndSplineSet
Substitution2: "'c2sc' Capitals to Small Capitals lookup 33 subtable" t.sc
EndChar

StartChar: U
Encoding: 85 85 56
Width: 738
GlyphClass: 2
Flags: W
AnchorPoint: "Anchor-3" 718 714 basechar 0
AnchorPoint: "Anchor-2" 370 714 basechar 0
AnchorPoint: "Anchor-0" 368 0 basechar 0
LayerCount: 2
Fore
SplineSet
649 714 m 1,0,-1
 649 252 l 2,1,2
 649 178 649 178 618.5 118.5 c 128,-1,3
 588 59 588 59 525 24.5 c 128,-1,4
 462 -10 462 -10 366 -10 c 0,5,6
 230 -10 230 -10 159.5 62.5 c 128,-1,7
 89 135 89 135 89 254 c 2,8,-1
 89 714 l 1,9,-1
 197 714 l 1,10,-1
 197 259 l 2,11,12
 197 82 197 82 371 82 c 0,13,14
 461 82 461 82 501.5 130 c 128,-1,15
 542 178 542 178 542 260 c 2,16,-1
 542 714 l 1,17,-1
 649 714 l 1,0,-1
EndSplineSet
Substitution2: "'c2sc' Capitals to Small Capitals lookup 33 subtable" u.sc
EndChar

StartChar: V
Encoding: 86 86 57
Width: 615
GlyphClass: 2
Flags: W
AnchorPoint: "Anchor-3" 595 714 basechar 0
AnchorPoint: "Anchor-2" 310 714 basechar 0
AnchorPoint: "Anchor-0" 306 0 basechar 0
LayerCount: 2
Fore
SplineSet
615 714 m 1,0,-1
 363 0 l 1,1,-1
 251 0 l 1,2,-1
 0 714 l 1,3,-1
 111 714 l 1,4,-1
 264 266 l 2,5,6
 277 230 277 230 289 187 c 128,-1,7
 301 144 301 144 307 109 c 1,8,9
 313 144 313 144 325 187 c 128,-1,10
 337 230 337 230 350 267 c 2,11,-1
 503 714 l 1,12,-1
 615 714 l 1,0,-1
EndSplineSet
Substitution2: "'c2sc' Capitals to Small Capitals lookup 33 subtable" v.sc
EndChar

StartChar: W
Encoding: 87 87 58
Width: 941
GlyphClass: 2
Flags: W
AnchorPoint: "Anchor-3" 921 714 basechar 0
AnchorPoint: "Anchor-2" 471 714 basechar 0
AnchorPoint: "Anchor-0" 465 0 basechar 0
LayerCount: 2
Fore
SplineSet
932 714 m 1,0,-1
 744 0 l 1,1,-1
 629 0 l 1,2,-1
 503 441 l 2,3,4
 496 465 496 465 488.5 495 c 128,-1,5
 481 525 481 525 475 551.5 c 128,-1,6
 469 578 469 578 467 589 c 1,7,8
 466 578 466 578 461 552 c 128,-1,9
 456 526 456 526 449 495 c 128,-1,10
 442 464 442 464 434 438 c 2,11,-1
 310 0 l 1,12,-1
 195 0 l 1,13,-1
 8 714 l 1,14,-1
 119 714 l 1,15,-1
 224 292 l 2,16,17
 234 248 234 248 243.5 201 c 128,-1,18
 253 154 253 154 258 117 c 1,19,20
 263 155 263 155 273.5 204 c 128,-1,21
 284 253 284 253 295 292 c 2,22,-1
 414 714 l 1,23,-1
 522 714 l 1,24,-1
 645 290 l 2,25,26
 657 250 657 250 667 201 c 128,-1,27
 677 152 677 152 682 117 c 1,28,29
 686 154 686 154 696 201 c 128,-1,30
 706 248 706 248 717 292 c 2,31,-1
 822 714 l 1,32,-1
 932 714 l 1,0,-1
EndSplineSet
Substitution2: "'c2sc' Capitals to Small Capitals lookup 33 subtable" w.sc
EndChar

StartChar: X
Encoding: 88 88 59
Width: 610
GlyphClass: 2
Flags: W
AnchorPoint: "Anchor-3" 590 714 basechar 0
AnchorPoint: "Anchor-2" 304 714 basechar 0
AnchorPoint: "Anchor-0" 305 0 basechar 0
LayerCount: 2
Fore
SplineSet
607 0 m 1,0,-1
 484 0 l 1,1,-1
 302 298 l 1,2,-1
 118 0 l 1,3,-1
 3 0 l 1,4,-1
 240 371 l 1,5,-1
 18 714 l 1,6,-1
 138 714 l 1,7,-1
 306 441 l 1,8,-1
 475 714 l 1,9,-1
 590 714 l 1,10,-1
 368 370 l 1,11,-1
 607 0 l 1,0,-1
EndSplineSet
Substitution2: "'c2sc' Capitals to Small Capitals lookup 33 subtable" x.sc
EndChar

StartChar: Y
Encoding: 89 89 60
Width: 583
GlyphClass: 2
Flags: W
AnchorPoint: "Anchor-3" 563 714 basechar 0
AnchorPoint: "Anchor-2" 292 714 basechar 0
AnchorPoint: "Anchor-0" 292 0 basechar 0
LayerCount: 2
Fore
SplineSet
292 380 m 1,0,-1
 467 714 l 1,1,-1
 583 714 l 1,2,-1
 345 277 l 1,3,-1
 345 0 l 1,4,-1
 238 0 l 1,5,-1
 238 273 l 1,6,-1
 0 714 l 1,7,-1
 117 714 l 1,8,-1
 292 380 l 1,0,-1
EndSplineSet
Substitution2: "'c2sc' Capitals to Small Capitals lookup 33 subtable" y.sc
EndChar

StartChar: Z
Encoding: 90 90 61
Width: 574
GlyphClass: 2
Flags: W
AnchorPoint: "Anchor-3" 554 714 basechar 0
AnchorPoint: "Anchor-2" 291 714 basechar 0
AnchorPoint: "Anchor-0" 300 0 basechar 0
LayerCount: 2
Fore
SplineSet
539 0 m 1,0,-1
 34 0 l 1,1,-1
 34 77 l 1,2,-1
 400 621 l 1,3,-1
 45 621 l 1,4,-1
 45 714 l 1,5,-1
 530 714 l 1,6,-1
 530 637 l 1,7,-1
 164 93 l 1,8,-1
 539 93 l 1,9,-1
 539 0 l 1,0,-1
EndSplineSet
Substitution2: "'c2sc' Capitals to Small Capitals lookup 33 subtable" z.sc
EndChar

StartChar: bracketleft
Encoding: 91 91 62
Width: 330
Flags: W
LayerCount: 2
Fore
SplineSet
305 -158 m 1,0,-1
 77 -158 l 1,1,-1
 77 714 l 1,2,-1
 305 714 l 1,3,-1
 305 633 l 1,4,-1
 175 633 l 1,5,-1
 175 -77 l 1,6,-1
 305 -77 l 1,7,-1
 305 -158 l 1,0,-1
EndSplineSet
Substitution2: "'smcp' Lowercase to Small Capitals lookup 34 subtable" bracketleft.sc
Substitution2: "'c2sc' Capitals to Small Capitals lookup 33 subtable" bracketleft.sc
EndChar

StartChar: backslash
Encoding: 92 92 63
Width: 384
Flags: W
LayerCount: 2
Fore
SplineSet
109 714 m 1,0,-1
 376 0 l 1,1,-1
 275 0 l 1,2,-1
 9 714 l 1,3,-1
 109 714 l 1,0,-1
EndSplineSet
EndChar

StartChar: bracketright
Encoding: 93 93 64
Width: 330
Flags: W
LayerCount: 2
Fore
SplineSet
25 -77 m 1,0,-1
 154 -77 l 1,1,-1
 154 633 l 1,2,-1
 25 633 l 1,3,-1
 25 714 l 1,4,-1
 253 714 l 1,5,-1
 253 -158 l 1,6,-1
 25 -158 l 1,7,-1
 25 -77 l 1,0,-1
EndSplineSet
Substitution2: "'smcp' Lowercase to Small Capitals lookup 34 subtable" bracketright.sc
Substitution2: "'c2sc' Capitals to Small Capitals lookup 33 subtable" bracketright.sc
EndChar

StartChar: asciicircum
Encoding: 94 94 65
Width: 572
Flags: W
LayerCount: 2
Fore
SplineSet
34 263 m 1,0,-1
 246 719 l 1,1,-1
 302 719 l 1,2,-1
 538 263 l 1,3,-1
 449 263 l 1,4,-1
 276 609 l 1,5,-1
 122 263 l 1,6,-1
 34 263 l 1,0,-1
EndSplineSet
EndChar

StartChar: underscore
Encoding: 95 95 66
Width: 434
Flags: W
LayerCount: 2
Fore
SplineSet
436 -155 m 1,0,-1
 -2 -155 l 1,1,-1
 -2 -90 l 1,2,-1
 436 -90 l 1,3,-1
 436 -155 l 1,0,-1
EndSplineSet
EndChar

StartChar: grave
Encoding: 96 96 67
Width: 305
Flags: W
LayerCount: 2
Fore
SplineSet
163 766 m 1,0,1
 175 744 175 744 193 716.5 c 128,-1,2
 211 689 211 689 230.5 662.5 c 128,-1,3
 250 636 250 636 265 618 c 1,4,-1
 265 606 l 1,5,-1
 194 606 l 1,6,7
 170 624 170 624 139.5 652.5 c 128,-1,8
 109 681 109 681 81.5 709.5 c 128,-1,9
 54 738 54 738 40 756 c 1,10,-1
 40 766 l 1,11,-1
 163 766 l 1,0,1
EndSplineSet
EndChar

StartChar: a
Encoding: 97 97 68
Width: 574
GlyphClass: 2
Flags: W
AnchorPoint: "Anchor-3" 524 539 basechar 0
AnchorPoint: "Anchor-2" 287 539 basechar 0
AnchorPoint: "Anchor-0" 287 0 basechar 0
LayerCount: 2
Fore
SplineSet
292 549 m 0,0,1
 393 549 393 549 443.5 504.5 c 128,-1,2
 494 460 494 460 494 365 c 2,3,-1
 494 0 l 1,4,-1
 419 0 l 1,5,-1
 398 75 l 1,6,-1
 394 75 l 1,7,8
 359 31 359 31 320.5 10.5 c 128,-1,9
 282 -10 282 -10 214 -10 c 0,10,11
 141 -10 141 -10 93 29.5 c 128,-1,12
 45 69 45 69 45 153 c 0,13,14
 45 236 45 236 107.5 278.5 c 128,-1,15
 170 321 170 321 298 325 c 2,16,-1
 390 328 l 1,17,-1
 390 358 l 2,18,19
 390 417 390 417 363 441.5 c 128,-1,20
 336 466 336 466 287 466 c 0,21,22
 246 466 246 466 208 454 c 128,-1,23
 170 442 170 442 135 425 c 1,24,-1
 101 502 l 1,25,26
 139 522 139 522 188.5 535.5 c 128,-1,27
 238 549 238 549 292 549 c 0,0,1
389 259 m 1,28,-1
 317 257 l 2,29,30
 225 253 225 253 189.5 226 c 128,-1,31
 154 199 154 199 154 152 c 0,32,33
 154 110 154 110 179 91 c 128,-1,34
 204 72 204 72 244 72 c 0,35,36
 306 72 306 72 347.5 107 c 128,-1,37
 389 142 389 142 389 212 c 2,38,-1
 389 259 l 1,28,-1
EndSplineSet
Substitution2: "'smcp' Lowercase to Small Capitals lookup 34 subtable" a.sc
Substitution2: "Single Substitution lookup 28 subtable" ordfeminine
EndChar

StartChar: b
Encoding: 98 98 69
Width: 620
GlyphClass: 2
Flags: W
AnchorPoint: "Anchor-3" 523 760 basechar 0
AnchorPoint: "Anchor-2" 334 760 basechar 0
AnchorPoint: "Anchor-0" 325 0 basechar 0
LayerCount: 2
Fore
SplineSet
189 760 m 1,0,-1
 189 577 l 2,1,2
 189 545 189 545 187.5 514.5 c 128,-1,3
 186 484 186 484 184 468 c 1,4,-1
 189 468 l 1,5,6
 212 502 212 502 251 525 c 128,-1,7
 290 548 290 548 352 548 c 0,8,9
 449 548 449 548 508.5 478 c 128,-1,10
 568 408 568 408 568 270 c 0,11,12
 568 131 568 131 508 60.5 c 128,-1,13
 448 -10 448 -10 351 -10 c 0,14,15
 289 -10 289 -10 250.5 12.5 c 128,-1,16
 212 35 212 35 189 66 c 1,17,-1
 181 66 l 1,18,-1
 161 0 l 1,19,-1
 83 0 l 1,20,-1
 83 760 l 1,21,-1
 189 760 l 1,0,-1
327 462 m 0,22,23
 250 462 250 462 220 416.5 c 128,-1,24
 190 371 190 371 189 277 c 2,25,-1
 189 269 l 2,26,27
 189 176 189 176 218.5 126.5 c 128,-1,28
 248 77 248 77 329 77 c 0,29,30
 394 77 394 77 426.5 127 c 128,-1,31
 459 177 459 177 459 271 c 0,32,33
 459 462 459 462 327 462 c 0,22,23
EndSplineSet
Substitution2: "'smcp' Lowercase to Small Capitals lookup 34 subtable" b.sc
EndChar

StartChar: c
Encoding: 99 99 70
Width: 490
GlyphClass: 2
Flags: W
AnchorPoint: "Anchor-3" 467 539 basechar 0
AnchorPoint: "Anchor-2" 285 539 basechar 0
AnchorPoint: "Anchor-0" 284 0 basechar 0
LayerCount: 2
Fore
SplineSet
300 -10 m 0,0,1
 188 -10 188 -10 120 56.5 c 128,-1,2
 52 123 52 123 52 266 c 0,3,4
 52 366 52 366 85 428 c 128,-1,5
 118 490 118 490 176 519.5 c 128,-1,6
 234 549 234 549 308 549 c 0,7,8
 353 549 353 549 392.5 540 c 128,-1,9
 432 531 432 531 458 518 c 1,10,-1
 426 432 l 1,11,12
 398 442 398 442 367 450.5 c 128,-1,13
 336 459 336 459 307 459 c 0,14,15
 161 459 161 459 161 267 c 0,16,17
 161 175 161 175 197 127 c 128,-1,18
 233 79 233 79 303 79 c 0,19,20
 347 79 347 79 382 89 c 128,-1,21
 417 99 417 99 446 115 c 1,22,-1
 446 23 l 1,23,24
 417 6 417 6 383 -2 c 128,-1,25
 349 -10 349 -10 300 -10 c 0,0,1
EndSplineSet
Substitution2: "'smcp' Lowercase to Small Capitals lookup 34 subtable" c.sc
EndChar

StartChar: d
Encoding: 100 100 71
Width: 620
GlyphClass: 2
Flags: W
AnchorPoint: "Anchor-3" 562 760 basechar 0
AnchorPoint: "Anchor-2" 267 760 basechar 0
AnchorPoint: "Anchor-1" 311 269 basechar 0
AnchorPoint: "Anchor-0" 295 0 basechar 0
LayerCount: 2
Fore
SplineSet
268 -10 m 0,0,1
 170 -10 170 -10 111 60 c 128,-1,2
 52 130 52 130 52 268 c 0,3,4
 52 407 52 407 112 478 c 128,-1,5
 172 549 172 549 270 549 c 0,6,7
 331 549 331 549 370 526 c 128,-1,8
 409 503 409 503 433 470 c 1,9,-1
 439 470 l 1,10,11
 437 484 437 484 434 511 c 128,-1,12
 431 538 431 538 431 558 c 2,13,-1
 431 760 l 1,14,-1
 537 760 l 1,15,-1
 537 0 l 1,16,-1
 454 0 l 1,17,-1
 436 72 l 1,18,-1
 431 72 l 1,19,20
 408 38 408 38 369 14 c 128,-1,21
 330 -10 330 -10 268 -10 c 0,0,1
293 77 m 0,22,23
 371 77 371 77 402.5 120 c 128,-1,24
 434 163 434 163 435 251 c 2,25,-1
 435 267 l 2,26,27
 435 362 435 362 404.5 412 c 128,-1,28
 374 462 374 462 292 462 c 0,29,30
 227 462 227 462 194 410 c 128,-1,31
 161 358 161 358 161 266 c 0,32,33
 161 175 161 175 194 126 c 128,-1,34
 227 77 227 77 293 77 c 0,22,23
EndSplineSet
Substitution2: "'smcp' Lowercase to Small Capitals lookup 34 subtable" d.sc
EndChar

StartChar: e
Encoding: 101 101 72
Width: 572
GlyphClass: 2
Flags: W
AnchorPoint: "Anchor-3" 552 539 basechar 0
AnchorPoint: "Anchor-2" 288 539 basechar 0
AnchorPoint: "Anchor-0" 300 0 basechar 0
LayerCount: 2
Fore
SplineSet
295 549 m 0,0,1
 401 549 401 549 462 483.5 c 128,-1,2
 523 418 523 418 523 305 c 2,3,-1
 523 247 l 1,4,-1
 161 247 l 1,5,6
 163 164 163 164 204.5 120 c 128,-1,7
 246 76 246 76 321 76 c 0,8,9
 373 76 373 76 413.5 85.5 c 128,-1,10
 454 95 454 95 497 114 c 1,11,-1
 497 26 l 1,12,13
 456 7 456 7 415 -1.5 c 128,-1,14
 374 -10 374 -10 317 -10 c 0,15,16
 239 -10 239 -10 179 21 c 128,-1,17
 119 52 119 52 85.5 113 c 128,-1,18
 52 174 52 174 52 265 c 256,19,20
 52 356 52 356 82.5 419 c 128,-1,21
 113 482 113 482 167.5 515.5 c 128,-1,22
 222 549 222 549 295 549 c 0,0,1
295 467 m 0,23,24
 238 467 238 467 203.5 430 c 128,-1,25
 169 393 169 393 163 325 c 1,26,-1
 417 325 l 1,27,28
 416 388 416 388 386.5 427.5 c 128,-1,29
 357 467 357 467 295 467 c 0,23,24
EndSplineSet
Substitution2: "'smcp' Lowercase to Small Capitals lookup 34 subtable" e.sc
EndChar

StartChar: f
Encoding: 102 102 73
Width: 357
GlyphClass: 2
Flags: W
AnchorPoint: "Anchor-3" 391 765 basechar 0
AnchorPoint: "Anchor-2" 257 765 basechar 0
AnchorPoint: "Anchor-0" 160 0 basechar 0
LayerCount: 2
Fore
SplineSet
346 458 m 1,0,-1
 213 458 l 1,1,-1
 213 0 l 1,2,-1
 107 0 l 1,3,-1
 107 458 l 1,4,-1
 16 458 l 1,5,-1
 16 508 l 1,6,-1
 107 541 l 1,7,-1
 107 575 l 2,8,9
 107 678 107 678 154.5 721.5 c 128,-1,10
 202 765 202 765 287 765 c 0,11,12
 322 765 322 765 351 759 c 128,-1,13
 380 753 380 753 400 746 c 1,14,-1
 373 665 l 1,15,16
 356 670 356 670 335 674.5 c 128,-1,17
 314 679 314 679 292 679 c 0,18,19
 213 679 213 679 213 574 c 2,20,-1
 213 539 l 1,21,-1
 346 539 l 1,22,-1
 346 458 l 1,0,-1
EndSplineSet
Substitution2: "'smcp' Lowercase to Small Capitals lookup 34 subtable" f.sc
EndChar

StartChar: g
Encoding: 103 103 74
Width: 620
GlyphClass: 2
Flags: W
AnchorPoint: "Anchor-3" 562 539 basechar 0
AnchorPoint: "Anchor-2" 302 539 basechar 0
AnchorPoint: "Anchor-0" 298 -240 basechar 0
LayerCount: 2
Fore
SplineSet
269 549 m 0,0,1
 321 549 321 549 363 529 c 128,-1,2
 405 509 405 509 434 468 c 1,3,-1
 439 468 l 1,4,-1
 451 539 l 1,5,-1
 537 539 l 1,6,-1
 537 -7 l 2,7,8
 537 -240 537 -240 288 -240 c 0,9,10
 230 -240 230 -240 181 -232 c 128,-1,11
 132 -224 132 -224 91 -207 c 1,12,-1
 91 -114 l 1,13,14
 133 -135 133 -135 184.5 -145.5 c 128,-1,15
 236 -156 236 -156 294 -156 c 0,16,17
 359 -156 359 -156 395.5 -118.5 c 128,-1,18
 432 -81 432 -81 432 -13 c 2,19,-1
 432 5 l 2,20,21
 432 18 432 18 433 39 c 128,-1,22
 434 60 434 60 435 71 c 1,23,-1
 431 71 l 1,24,25
 403 29 403 29 362.5 9.5 c 128,-1,26
 322 -10 322 -10 269 -10 c 0,27,28
 167 -10 167 -10 109.5 63.5 c 128,-1,29
 52 137 52 137 52 268 c 0,30,31
 52 398 52 398 109.5 473.5 c 128,-1,32
 167 549 167 549 269 549 c 0,0,1
291 461 m 0,33,34
 228 461 228 461 194.5 411.5 c 128,-1,35
 161 362 161 362 161 267 c 0,36,37
 161 173 161 173 194.5 124 c 128,-1,38
 228 75 228 75 293 75 c 0,39,40
 367 75 367 75 401.5 115.5 c 128,-1,41
 436 156 436 156 436 248 c 2,42,-1
 436 268 l 2,43,44
 436 372 436 372 401 416.5 c 128,-1,45
 366 461 366 461 291 461 c 0,33,34
EndSplineSet
Substitution2: "'smcp' Lowercase to Small Capitals lookup 34 subtable" g.sc
EndChar

StartChar: h
Encoding: 104 104 75
Width: 630
GlyphClass: 2
Flags: W
AnchorPoint: "Anchor-3" 543 760 basechar 0
AnchorPoint: "Anchor-2" 137 760 basechar 0
AnchorPoint: "Anchor-1" 315 269 basechar 0
AnchorPoint: "Anchor-0" 316 0 basechar 0
LayerCount: 2
Fore
SplineSet
189 760 m 1,0,-1
 189 557 l 2,1,2
 189 532 189 532 187 507 c 128,-1,3
 185 482 185 482 183 466 c 1,4,-1
 190 466 l 1,5,6
 216 507 216 507 259.5 527.5 c 128,-1,7
 303 548 303 548 354 548 c 0,8,9
 449 548 449 548 499.5 501 c 128,-1,10
 550 454 550 454 550 351 c 2,11,-1
 550 0 l 1,12,-1
 445 0 l 1,13,-1
 445 336 l 2,14,15
 445 462 445 462 334 462 c 0,16,17
 251 462 251 462 220 412 c 128,-1,18
 189 362 189 362 189 271 c 2,19,-1
 189 0 l 1,20,-1
 83 0 l 1,21,-1
 83 760 l 1,22,-1
 189 760 l 1,0,-1
EndSplineSet
Substitution2: "'smcp' Lowercase to Small Capitals lookup 34 subtable" h.sc
Substitution2: "'subs' Subscript lookup 18 subtable" uni2095
EndChar

StartChar: i
Encoding: 105 105 76
Width: 272
GlyphClass: 2
Flags: W
AnchorPoint: "Anchor-3" 252 744 basechar 0
AnchorPoint: "Anchor-2" 136 744 basechar 0
AnchorPoint: "Anchor-0" 138 0 basechar 0
LayerCount: 2
Fore
SplineSet
137 744 m 0,0,1
 161 744 161 744 179 730 c 128,-1,2
 197 716 197 716 197 683 c 0,3,4
 197 651 197 651 179 636.5 c 128,-1,5
 161 622 161 622 137 622 c 0,6,7
 112 622 112 622 94 636.5 c 128,-1,8
 76 651 76 651 76 683 c 0,9,10
 76 716 76 716 94 730 c 128,-1,11
 112 744 112 744 137 744 c 0,0,1
189 539 m 1,12,-1
 189 0 l 1,13,-1
 83 0 l 1,14,-1
 83 539 l 1,15,-1
 189 539 l 1,12,-1
EndSplineSet
Substitution2: "'smcp' Lowercase to Small Capitals lookup 34 subtable" i.sc
Substitution2: "Single Substitution lookup 5 subtable" dotlessi
Substitution2: "Single Substitution lookup 4 subtable" dotlessi
EndChar

StartChar: j
Encoding: 106 106 77
Width: 272
GlyphClass: 2
Flags: W
AnchorPoint: "Anchor-3" 252 744 basechar 0
AnchorPoint: "Anchor-2" 136 744 basechar 0
AnchorPoint: "Anchor-0" 26 -240 basechar 0
LayerCount: 2
Fore
SplineSet
76 683 m 0,0,1
 76 716 76 716 94 730 c 128,-1,2
 112 744 112 744 137 744 c 0,3,4
 161 744 161 744 179 730 c 128,-1,5
 197 716 197 716 197 683 c 0,6,7
 197 651 197 651 179 636.5 c 128,-1,8
 161 622 161 622 137 622 c 0,9,10
 112 622 112 622 94 636.5 c 128,-1,11
 76 651 76 651 76 683 c 0,0,1
26 -240 m 0,12,13
 0 -240 0 -240 -21.5 -236.5 c 128,-1,14
 -43 -233 -43 -233 -58 -228 c 1,15,-1
 -58 -143 l 1,16,17
 -42 -148 -42 -148 -26 -150.5 c 128,-1,18
 -10 -153 -10 -153 10 -153 c 0,19,20
 42 -153 42 -153 62.5 -135.5 c 128,-1,21
 83 -118 83 -118 83 -69 c 2,22,-1
 83 539 l 1,23,-1
 189 539 l 1,24,-1
 189 -74 l 2,25,26
 189 -149 189 -149 150.5 -194.5 c 128,-1,27
 112 -240 112 -240 26 -240 c 0,12,13
EndSplineSet
Substitution2: "'smcp' Lowercase to Small Capitals lookup 34 subtable" j.sc
Substitution2: "Single Substitution lookup 5 subtable" uni0237
Substitution2: "Single Substitution lookup 4 subtable" uni0237
EndChar

StartChar: k
Encoding: 107 107 78
Width: 559
GlyphClass: 2
Flags: W
AnchorPoint: "Anchor-3" 555 760 basechar 0
AnchorPoint: "Anchor-2" 138 760 basechar 0
AnchorPoint: "Anchor-0" 280 0 basechar 0
LayerCount: 2
Fore
SplineSet
188 760 m 1,0,-1
 188 380 l 2,1,2
 188 360 188 360 186 332 c 128,-1,3
 184 304 184 304 183 282 c 1,4,-1
 186 282 l 1,5,6
 197 297 197 297 216.5 321.5 c 128,-1,7
 236 346 236 346 251 362 c 2,8,-1
 416 539 l 1,9,-1
 539 539 l 1,10,-1
 322 308 l 1,11,-1
 553 0 l 1,12,-1
 428 0 l 1,13,-1
 250 241 l 1,14,-1
 188 189 l 1,15,-1
 188 0 l 1,16,-1
 83 0 l 1,17,-1
 83 760 l 1,18,-1
 188 760 l 1,0,-1
EndSplineSet
Substitution2: "'smcp' Lowercase to Small Capitals lookup 34 subtable" k.sc
Substitution2: "'subs' Subscript lookup 18 subtable" uni2096
EndChar

StartChar: l
Encoding: 108 108 79
Width: 346
GlyphClass: 2
Flags: W
AnchorPoint: "Anchor-0" 136 -9 basechar 0
AnchorPoint: "Anchor-2" 136 760 basechar 0
LayerCount: 2
Fore
SplineSet
231 -9 m 0,0,1
 158 -9 158 -9 120.5 29.5 c 128,-1,2
 83 68 83 68 83 161 c 2,3,-1
 83 760 l 1,4,-1
 188 760 l 1,5,-1
 188 162 l 2,6,7
 188 77 188 77 250 77 c 0,8,9
 257 77 257 77 274 80 c 128,-1,10
 291 83 291 83 304 88 c 1,11,-1
 304 7 l 1,12,13
 272 -9 272 -9 231 -9 c 0,0,1
EndSplineSet
Substitution2: "'smcp' Lowercase to Small Capitals lookup 34 subtable" l.sc
Substitution2: "'subs' Subscript lookup 18 subtable" uni2097
EndChar

StartChar: m
Encoding: 109 109 80
Width: 949
GlyphClass: 2
Flags: W
AnchorPoint: "Anchor-3" 899 539 basechar 0
AnchorPoint: "Anchor-2" 485 539 basechar 0
AnchorPoint: "Anchor-0" 478 0 basechar 0
LayerCount: 2
Fore
SplineSet
687 549 m 0,0,1
 778 549 778 549 824 502 c 128,-1,2
 870 455 870 455 870 351 c 2,3,-1
 870 0 l 1,4,-1
 764 0 l 1,5,-1
 764 337 l 2,6,7
 764 462 764 462 663 462 c 0,8,9
 591 462 591 462 560 417.5 c 128,-1,10
 529 373 529 373 529 290 c 2,11,-1
 529 0 l 1,12,-1
 424 0 l 1,13,-1
 424 337 l 2,14,15
 424 462 424 462 322 462 c 0,16,17
 246 462 246 462 217.5 413 c 128,-1,18
 189 364 189 364 189 272 c 2,19,-1
 189 0 l 1,20,-1
 83 0 l 1,21,-1
 83 539 l 1,22,-1
 167 539 l 1,23,-1
 182 467 l 1,24,-1
 188 467 l 1,25,26
 213 509 213 509 255.5 529 c 128,-1,27
 298 549 298 549 346 549 c 0,28,29
 470 549 470 549 510 462 c 1,30,-1
 518 462 l 1,31,32
 544 506 544 506 590 527.5 c 128,-1,33
 636 549 636 549 687 549 c 0,0,1
EndSplineSet
Substitution2: "'smcp' Lowercase to Small Capitals lookup 34 subtable" m.sc
Substitution2: "'subs' Subscript lookup 18 subtable" uni2098
EndChar

StartChar: n
Encoding: 110 110 81
Width: 630
GlyphClass: 2
Flags: W
AnchorPoint: "Anchor-3" 575 539 basechar 0
AnchorPoint: "Anchor-2" 315 539 basechar 0
AnchorPoint: "Anchor-0" 315 0 basechar 0
LayerCount: 2
Fore
SplineSet
356 549 m 0,0,1
 450 549 450 549 500 502 c 128,-1,2
 550 455 550 455 550 351 c 2,3,-1
 550 0 l 1,4,-1
 445 0 l 1,5,-1
 445 336 l 2,6,7
 445 462 445 462 334 462 c 0,8,9
 252 462 252 462 220.5 413 c 128,-1,10
 189 364 189 364 189 272 c 2,11,-1
 189 0 l 1,12,-1
 83 0 l 1,13,-1
 83 539 l 1,14,-1
 167 539 l 1,15,-1
 182 467 l 1,16,-1
 188 467 l 1,17,18
 214 509 214 509 259.5 529 c 128,-1,19
 305 549 305 549 356 549 c 0,0,1
EndSplineSet
Substitution2: "'smcp' Lowercase to Small Capitals lookup 34 subtable" n.sc
Substitution2: "'sups' Superscript lookup 19 subtable" nsuperior
Substitution2: "'subs' Subscript lookup 18 subtable" uni2099
EndChar

StartChar: o
Encoding: 111 111 82
Width: 609
GlyphClass: 2
Flags: W
AnchorPoint: "Anchor-3" 582 539 basechar 0
AnchorPoint: "Anchor-2" 305 539 basechar 0
AnchorPoint: "Anchor-1" 305 269 basechar 0
AnchorPoint: "Anchor-0" 304 0 basechar 0
LayerCount: 2
Fore
SplineSet
558 270 m 0,0,1
 558 136 558 136 489 63 c 128,-1,2
 420 -10 420 -10 303 -10 c 0,3,4
 230 -10 230 -10 173.5 22.5 c 128,-1,5
 117 55 117 55 84.5 117.5 c 128,-1,6
 52 180 52 180 52 270 c 0,7,8
 52 404 52 404 120 476.5 c 128,-1,9
 188 549 188 549 306 549 c 0,10,11
 380 549 380 549 436.5 516.5 c 128,-1,12
 493 484 493 484 525.5 422 c 128,-1,13
 558 360 558 360 558 270 c 0,0,1
161 270 m 0,14,15
 161 179 161 179 195.5 128 c 128,-1,16
 230 77 230 77 305 77 c 256,17,18
 380 77 380 77 414.5 128 c 128,-1,19
 449 179 449 179 449 270 c 0,20,21
 449 362 449 362 414.5 411.5 c 128,-1,22
 380 461 380 461 304 461 c 0,23,24
 229 461 229 461 195 411.5 c 128,-1,25
 161 362 161 362 161 270 c 0,14,15
EndSplineSet
Substitution2: "'smcp' Lowercase to Small Capitals lookup 34 subtable" o.sc
Substitution2: "Single Substitution lookup 28 subtable" ordmasculine
EndChar

StartChar: p
Encoding: 112 112 83
Width: 620
GlyphClass: 2
Flags: W
AnchorPoint: "Anchor-3" 593 539 basechar 0
AnchorPoint: "Anchor-2" 334 539 basechar 0
AnchorPoint: "Anchor-0" 136 -240 basechar 0
LayerCount: 2
Fore
SplineSet
352 549 m 0,0,1
 450 549 450 549 509 479 c 128,-1,2
 568 409 568 409 568 270 c 0,3,4
 568 133 568 133 508 61.5 c 128,-1,5
 448 -10 448 -10 351 -10 c 0,6,7
 290 -10 290 -10 251 12.5 c 128,-1,8
 212 35 212 35 189 66 c 1,9,-1
 182 66 l 1,10,11
 184 48 184 48 186.5 23.5 c 128,-1,12
 189 -1 189 -1 189 -20 c 2,13,-1
 189 -240 l 1,14,-1
 83 -240 l 1,15,-1
 83 539 l 1,16,-1
 169 539 l 1,17,-1
 184 467 l 1,18,-1
 189 467 l 1,19,20
 212 501 212 501 250.5 525 c 128,-1,21
 289 549 289 549 352 549 c 0,0,1
327 462 m 0,22,23
 252 462 252 462 221 419 c 128,-1,24
 190 376 190 376 189 287 c 2,25,-1
 189 271 l 2,26,27
 189 177 189 177 219 127 c 128,-1,28
 249 77 249 77 329 77 c 0,29,30
 395 77 395 77 427 131 c 128,-1,31
 459 185 459 185 459 272 c 0,32,33
 459 360 459 360 426.5 411 c 128,-1,34
 394 462 394 462 327 462 c 0,22,23
EndSplineSet
Substitution2: "'smcp' Lowercase to Small Capitals lookup 34 subtable" p.sc
Substitution2: "'subs' Subscript lookup 18 subtable" uni209A
EndChar

StartChar: q
Encoding: 113 113 84
Width: 620
GlyphClass: 2
Flags: W
AnchorPoint: "Anchor-3" 562 539 basechar 0
AnchorPoint: "Anchor-2" 311 539 basechar 0
AnchorPoint: "Anchor-0" 484 -240 basechar 0
LayerCount: 2
Fore
SplineSet
431 -240 m 1,0,-1
 431 -11 l 2,1,2
 431 8 431 8 432.5 31 c 128,-1,3
 434 54 434 54 437 72 c 1,4,-1
 431 72 l 1,5,6
 408 38 408 38 368.5 14 c 128,-1,7
 329 -10 329 -10 267 -10 c 0,8,9
 171 -10 171 -10 111.5 60 c 128,-1,10
 52 130 52 130 52 268 c 0,11,12
 52 407 52 407 112.5 478 c 128,-1,13
 173 549 173 549 270 549 c 0,14,15
 332 549 332 549 371 525.5 c 128,-1,16
 410 502 410 502 434 467 c 1,17,-1
 438 467 l 1,18,-1
 451 539 l 1,19,-1
 537 539 l 1,20,-1
 537 -240 l 1,21,-1
 431 -240 l 1,0,-1
294 76 m 0,22,23
 370 76 370 76 402 118.5 c 128,-1,24
 434 161 434 161 435 249 c 2,25,-1
 435 267 l 2,26,27
 435 363 435 363 404 412.5 c 128,-1,28
 373 462 373 462 292 462 c 0,29,30
 226 462 226 462 193.5 410 c 128,-1,31
 161 358 161 358 161 266 c 0,32,33
 161 175 161 175 193.5 125.5 c 128,-1,34
 226 76 226 76 294 76 c 0,22,23
EndSplineSet
Substitution2: "'smcp' Lowercase to Small Capitals lookup 34 subtable" q.sc
EndChar

StartChar: r
Encoding: 114 114 85
Width: 425
GlyphClass: 2
Flags: W
AnchorPoint: "Anchor-3" 405 539 basechar 0
AnchorPoint: "Anchor-2" 244 539 basechar 0
AnchorPoint: "Anchor-0" 135 0 basechar 0
LayerCount: 2
Fore
SplineSet
349 549 m 0,0,1
 381 549 381 549 408 544 c 1,2,-1
 397 445 l 1,3,4
 371 452 371 452 343 452 c 0,5,6
 302 452 302 452 267 432 c 128,-1,7
 232 412 232 412 210.5 374.5 c 128,-1,8
 189 337 189 337 189 284 c 2,9,-1
 189 0 l 1,10,-1
 83 0 l 1,11,-1
 83 539 l 1,12,-1
 167 539 l 1,13,-1
 181 443 l 1,14,-1
 185 443 l 1,15,16
 210 486 210 486 252 517.5 c 128,-1,17
 294 549 294 549 349 549 c 0,0,1
EndSplineSet
Substitution2: "'smcp' Lowercase to Small Capitals lookup 34 subtable" r.sc
EndChar

StartChar: s
Encoding: 115 115 86
Width: 484
GlyphClass: 2
Flags: W
AnchorPoint: "Anchor-3" 444 539 basechar 0
AnchorPoint: "Anchor-2" 243 539 basechar 0
AnchorPoint: "Anchor-0" 243 0 basechar 0
LayerCount: 2
Fore
SplineSet
441 152 m 0,0,1
 441 72 441 72 383.5 31 c 128,-1,2
 326 -10 326 -10 222 -10 c 0,3,4
 165 -10 165 -10 124.5 -2 c 128,-1,5
 84 6 84 6 50 23 c 1,6,-1
 50 116 l 1,7,8
 85 99 85 99 132.5 85.5 c 128,-1,9
 180 72 180 72 225 72 c 0,10,11
 285 72 285 72 311.5 91 c 128,-1,12
 338 110 338 110 338 142 c 0,13,14
 338 160 338 160 328 174.5 c 128,-1,15
 318 189 318 189 290.5 204.5 c 128,-1,16
 263 220 263 220 210 240 c 0,17,18
 158 260 158 260 122.5 281 c 128,-1,19
 87 302 87 302 68 331 c 128,-1,20
 49 360 49 360 49 404 c 0,21,22
 49 474 49 474 105.5 511.5 c 128,-1,23
 162 549 162 549 255 549 c 0,24,25
 304 549 304 549 347.5 539 c 128,-1,26
 391 529 391 529 432 511 c 1,27,-1
 397 430 l 1,28,29
 362 445 362 445 325 455.5 c 128,-1,30
 288 466 288 466 250 466 c 0,31,32
 152 466 152 466 152 409 c 0,33,34
 152 390 152 390 163.5 376 c 128,-1,35
 175 362 175 362 203.5 348 c 128,-1,36
 232 334 232 334 283 314 c 0,37,38
 332 295 332 295 367.5 274.5 c 128,-1,39
 403 254 403 254 422 225 c 128,-1,40
 441 196 441 196 441 152 c 0,0,1
EndSplineSet
Substitution2: "'smcp' Lowercase to Small Capitals lookup 34 subtable" s.sc
Substitution2: "'subs' Subscript lookup 18 subtable" uni209B
EndChar

StartChar: t
Encoding: 116 116 87
Width: 383
GlyphClass: 2
Flags: W
AnchorPoint: "Anchor-3" 353 660 basechar 0
AnchorPoint: "Anchor-2" 167 660 basechar 0
AnchorPoint: "Anchor-1" 192 269 basechar 0
AnchorPoint: "Anchor-0" 222 0 basechar 0
LayerCount: 2
Fore
SplineSet
277 76 m 0,0,1
 322 76 322 76 358 89 c 1,2,-1
 358 9 l 1,3,4
 341 1 341 1 312 -4.5 c 128,-1,5
 283 -10 283 -10 254 -10 c 0,6,7
 210 -10 210 -10 173.5 5 c 128,-1,8
 137 20 137 20 115 57 c 128,-1,9
 93 94 93 94 93 160 c 2,10,-1
 93 458 l 1,11,-1
 18 458 l 1,12,-1
 18 506 l 1,13,-1
 97 546 l 1,14,-1
 134 660 l 1,15,-1
 199 660 l 1,16,-1
 199 539 l 1,17,-1
 353 539 l 1,18,-1
 353 458 l 1,19,-1
 199 458 l 1,20,-1
 199 162 l 2,21,22
 199 118 199 118 220.5 97 c 128,-1,23
 242 76 242 76 277 76 c 0,0,1
EndSplineSet
Substitution2: "'smcp' Lowercase to Small Capitals lookup 34 subtable" t.sc
Substitution2: "'subs' Subscript lookup 18 subtable" uni209C
EndChar

StartChar: u
Encoding: 117 117 88
Width: 630
GlyphClass: 2
Flags: W
AnchorPoint: "Anchor-3" 574 539 basechar 0
AnchorPoint: "Anchor-2" 315 539 basechar 0
AnchorPoint: "Anchor-0" 301 0 basechar 0
LayerCount: 2
Fore
SplineSet
547 539 m 1,0,-1
 547 0 l 1,1,-1
 462 0 l 1,2,-1
 447 71 l 1,3,-1
 442 71 l 1,4,5
 416 29 416 29 370 9.5 c 128,-1,6
 324 -10 324 -10 273 -10 c 0,7,8
 178 -10 178 -10 128 36.5 c 128,-1,9
 78 83 78 83 78 186 c 2,10,-1
 78 539 l 1,11,-1
 185 539 l 1,12,-1
 185 202 l 2,13,14
 185 139 185 139 211.5 108 c 128,-1,15
 238 77 238 77 294 77 c 0,16,17
 377 77 377 77 409 125.5 c 128,-1,18
 441 174 441 174 441 266 c 2,19,-1
 441 539 l 1,20,-1
 547 539 l 1,0,-1
EndSplineSet
Substitution2: "'smcp' Lowercase to Small Capitals lookup 34 subtable" u.sc
EndChar

StartChar: v
Encoding: 118 118 89
Width: 526
GlyphClass: 2
Flags: W
AnchorPoint: "Anchor-3" 506 539 basechar 0
AnchorPoint: "Anchor-2" 261 539 basechar 0
AnchorPoint: "Anchor-0" 261 0 basechar 0
LayerCount: 2
Fore
SplineSet
204 0 m 1,0,-1
 0 539 l 1,1,-1
 112 539 l 1,2,-1
 224 224 l 2,3,4
 234 192 234 192 245 154 c 128,-1,5
 256 116 256 116 260 91 c 1,6,-1
 264 91 l 1,7,8
 268 116 268 116 280 154.5 c 128,-1,9
 292 193 292 193 302 224 c 2,10,-1
 414 539 l 1,11,-1
 526 539 l 1,12,-1
 321 0 l 1,13,-1
 204 0 l 1,0,-1
EndSplineSet
Substitution2: "'smcp' Lowercase to Small Capitals lookup 34 subtable" v.sc
EndChar

StartChar: w
Encoding: 119 119 90
Width: 807
GlyphClass: 2
Flags: W
AnchorPoint: "Anchor-3" 787 539 basechar 0
AnchorPoint: "Anchor-2" 403 539 basechar 0
AnchorPoint: "Anchor-0" 403 0 basechar 0
LayerCount: 2
Fore
SplineSet
524 1 m 1,0,-1
 447 270 l 2,1,2
 440 296 440 296 431 329.5 c 128,-1,3
 422 363 422 363 415 393.5 c 128,-1,4
 408 424 408 424 404 441 c 1,5,-1
 400 441 l 1,6,7
 397 424 397 424 390 393.5 c 128,-1,8
 383 363 383 363 374.5 329.5 c 128,-1,9
 366 296 366 296 358 269 c 2,10,-1
 278 1 l 1,11,-1
 160 1 l 1,12,-1
 11 540 l 1,13,-1
 119 540 l 1,14,-1
 189 267 l 2,15,16
 200 225 200 225 209.5 177.5 c 128,-1,17
 219 130 219 130 223 101 c 1,18,-1
 227 101 l 1,19,20
 230 118 230 118 235.5 146.5 c 128,-1,21
 241 175 241 175 247.5 203 c 128,-1,22
 254 231 254 231 260 249 c 2,23,-1
 346 540 l 1,24,-1
 462 540 l 1,25,-1
 546 249 l 2,26,27
 552 229 552 229 559 201.5 c 128,-1,28
 566 174 566 174 571.5 147 c 128,-1,29
 577 120 577 120 579 102 c 1,30,-1
 583 102 l 1,31,32
 585 118 585 118 590 146 c 128,-1,33
 595 174 595 174 602.5 206 c 128,-1,34
 610 238 610 238 617 267 c 2,35,-1
 689 540 l 1,36,-1
 796 540 l 1,37,-1
 645 1 l 1,38,-1
 524 1 l 1,0,-1
EndSplineSet
Substitution2: "'smcp' Lowercase to Small Capitals lookup 34 subtable" w.sc
EndChar

StartChar: x
Encoding: 120 120 91
Width: 543
GlyphClass: 2
Flags: W
AnchorPoint: "Anchor-3" 523 539 basechar 0
AnchorPoint: "Anchor-2" 270 539 basechar 0
AnchorPoint: "Anchor-0" 272 0 basechar 0
LayerCount: 2
Fore
SplineSet
206 275 m 1,0,-1
 23 539 l 1,1,-1
 144 539 l 1,2,-1
 272 345 l 1,3,-1
 400 539 l 1,4,-1
 520 539 l 1,5,-1
 337 275 l 1,6,-1
 529 0 l 1,7,-1
 409 0 l 1,8,-1
 272 206 l 1,9,-1
 134 0 l 1,10,-1
 14 0 l 1,11,-1
 206 275 l 1,0,-1
EndSplineSet
Substitution2: "'smcp' Lowercase to Small Capitals lookup 34 subtable" x.sc
EndChar

StartChar: y
Encoding: 121 121 92
Width: 527
GlyphClass: 2
Flags: W
AnchorPoint: "Anchor-3" 507 539 basechar 0
AnchorPoint: "Anchor-2" 264 539 basechar 0
AnchorPoint: "Anchor-0" 102 -240 basechar 0
LayerCount: 2
Fore
SplineSet
1 539 m 1,0,-1
 115 539 l 1,1,-1
 227 233 l 2,2,3
 240 198 240 198 250 166 c 128,-1,4
 260 134 260 134 264 102 c 1,5,-1
 268 102 l 1,6,7
 273 128 273 128 283.5 163 c 128,-1,8
 294 198 294 198 307 234 c 2,9,-1
 413 539 l 1,10,-1
 527 539 l 1,11,-1
 296 -73 l 2,12,13
 267 -151 267 -151 218.5 -195.5 c 128,-1,14
 170 -240 170 -240 92 -240 c 0,15,16
 67 -240 67 -240 49 -237.5 c 128,-1,17
 31 -235 31 -235 18 -232 c 1,18,-1
 18 -148 l 1,19,20
 28 -150 28 -150 44 -152 c 128,-1,21
 60 -154 60 -154 77 -154 c 0,22,23
 123 -154 123 -154 151 -127.5 c 128,-1,24
 179 -101 179 -101 195 -58 c 2,25,-1
 217 0 l 1,26,-1
 1 539 l 1,0,-1
EndSplineSet
Substitution2: "'smcp' Lowercase to Small Capitals lookup 34 subtable" y.sc
EndChar

StartChar: z
Encoding: 122 122 93
Width: 475
GlyphClass: 2
Flags: W
AnchorPoint: "Anchor-3" 438 539 basechar 0
AnchorPoint: "Anchor-2" 238 539 basechar 0
AnchorPoint: "Anchor-0" 244 0 basechar 0
LayerCount: 2
Fore
SplineSet
439 0 m 1,0,-1
 35 0 l 1,1,-1
 35 67 l 1,2,-1
 313 457 l 1,3,-1
 52 457 l 1,4,-1
 52 539 l 1,5,-1
 431 539 l 1,6,-1
 431 464 l 1,7,-1
 159 82 l 1,8,-1
 439 82 l 1,9,-1
 439 0 l 1,0,-1
EndSplineSet
Substitution2: "'smcp' Lowercase to Small Capitals lookup 34 subtable" z.sc
EndChar

StartChar: braceleft
Encoding: 123 123 94
Width: 384
Flags: W
LayerCount: 2
Fore
SplineSet
350 -158 m 1,0,1
 247 -157 247 -157 197 -120.5 c 128,-1,2
 147 -84 147 -84 147 -6 c 2,3,-1
 147 143 l 2,4,5
 147 193 147 193 115.5 214 c 128,-1,6
 84 235 84 235 24 235 c 1,7,-1
 24 321 l 1,8,9
 84 322 84 322 115.5 342.5 c 128,-1,10
 147 363 147 363 147 412 c 2,11,-1
 147 562 l 2,12,13
 147 640 147 640 198.5 677 c 128,-1,14
 250 714 250 714 350 714 c 1,15,-1
 350 631 l 1,16,17
 302 630 302 630 274 610.5 c 128,-1,18
 246 591 246 591 246 544 c 2,19,-1
 246 400 l 2,20,21
 246 300 246 300 136 282 c 1,22,-1
 136 276 l 1,23,24
 246 257 246 257 246 158 c 2,25,-1
 246 11 l 2,26,27
 246 -36 246 -36 273 -55 c 128,-1,28
 300 -74 300 -74 350 -75 c 1,29,-1
 350 -158 l 1,0,1
EndSplineSet
Substitution2: "'smcp' Lowercase to Small Capitals lookup 34 subtable" braceleft.sc
Substitution2: "'c2sc' Capitals to Small Capitals lookup 33 subtable" braceleft.sc
EndChar

StartChar: bar
Encoding: 124 124 95
Width: 551
Flags: W
LayerCount: 2
Fore
SplineSet
234 759 m 1,0,-1
 317 759 l 1,1,-1
 317 -237 l 1,2,-1
 234 -237 l 1,3,-1
 234 759 l 1,0,-1
EndSplineSet
EndChar

StartChar: braceright
Encoding: 125 125 96
Width: 384
Flags: W
LayerCount: 2
Fore
SplineSet
34 -158 m 1,0,-1
 34 -75 l 1,1,2
 82 -74 82 -74 110 -54.5 c 128,-1,3
 138 -35 138 -35 138 12 c 2,4,-1
 138 157 l 2,5,6
 138 257 138 257 248 275 c 1,7,-1
 248 281 l 1,8,9
 138 299 138 299 138 399 c 2,10,-1
 138 545 l 2,11,12
 138 592 138 592 111 611 c 128,-1,13
 84 630 84 630 34 631 c 1,14,-1
 34 714 l 1,15,16
 138 713 138 713 187.5 676.5 c 128,-1,17
 237 640 237 640 237 562 c 2,18,-1
 237 413 l 2,19,20
 237 364 237 364 268.5 342.5 c 128,-1,21
 300 321 300 321 360 321 c 1,22,-1
 360 235 l 1,23,24
 300 235 300 235 268.5 214.5 c 128,-1,25
 237 194 237 194 237 144 c 2,26,-1
 237 -6 l 2,27,28
 237 -84 237 -84 185.5 -121 c 128,-1,29
 134 -158 134 -158 34 -158 c 1,0,-1
EndSplineSet
Substitution2: "'smcp' Lowercase to Small Capitals lookup 34 subtable" braceright.sc
Substitution2: "'c2sc' Capitals to Small Capitals lookup 33 subtable" braceright.sc
EndChar

StartChar: asciitilde
Encoding: 126 126 97
Width: 572
Flags: W
LayerCount: 2
Fore
SplineSet
269 314 m 0,0,1
 232 330 232 330 208 335.5 c 128,-1,2
 184 341 184 341 162 341 c 0,3,4
 134 341 134 341 103 324 c 128,-1,5
 72 307 72 307 48 282 c 1,6,-1
 48 370 l 1,7,8
 96 423 96 423 169 423 c 0,9,10
 198 423 198 423 227 416.5 c 128,-1,11
 256 410 256 410 302 391 c 0,12,13
 339 375 339 375 363 369.5 c 128,-1,14
 387 364 387 364 408 364 c 0,15,16
 437 364 437 364 468 381 c 128,-1,17
 499 398 499 398 523 423 c 1,18,-1
 523 336 l 1,19,20
 474 282 474 282 402 282 c 0,21,22
 373 282 373 282 344 288 c 128,-1,23
 315 294 315 294 269 314 c 0,0,1
EndSplineSet
EndChar

StartChar: exclamdown
Encoding: 161 161 99
Width: 274
Flags: W
LayerCount: 2
Fore
SplineSet
205 474 m 0,0,1
 205 434 205 434 184.5 418 c 128,-1,2
 164 402 164 402 136 402 c 256,3,4
 108 402 108 402 88 418 c 128,-1,5
 68 434 68 434 68 474 c 0,6,7
 68 512 68 512 88 529 c 128,-1,8
 108 546 108 546 136 546 c 256,9,10
 164 546 164 546 184.5 529 c 128,-1,11
 205 512 205 512 205 474 c 0,0,1
98 320 m 1,12,-1
 174 320 l 1,13,-1
 199 -181 l 1,14,-1
 73 -181 l 1,15,-1
 98 320 l 1,12,-1
EndSplineSet
Substitution2: "'smcp' Lowercase to Small Capitals lookup 34 subtable" exclamdown.sc
Substitution2: "'c2sc' Capitals to Small Capitals lookup 33 subtable" exclamdown.sc
EndChar

StartChar: cent
Encoding: 162 162 100
Width: 572
Flags: W
LayerCount: 2
Fore
SplineSet
356 724 m 1,0,-1
 356 645 l 1,1,2
 396 644 396 644 431 635 c 128,-1,3
 466 626 466 626 492 614 c 1,4,-1
 460 528 l 1,5,6
 432 539 432 539 400 547.5 c 128,-1,7
 368 556 368 556 339 556 c 0,8,9
 193 556 193 556 193 363 c 0,10,11
 193 266 193 266 229.5 221 c 128,-1,12
 266 176 266 176 337 176 c 0,13,14
 381 176 381 176 414 185 c 128,-1,15
 447 194 447 194 480 208 c 1,16,-1
 480 117 l 1,17,18
 452 103 452 103 422 95.5 c 128,-1,19
 392 88 392 88 355 86 c 1,20,-1
 355 -10 l 1,21,-1
 282 -10 l 1,22,-1
 282 89 l 1,23,24
 191 102 191 102 138 165.5 c 128,-1,25
 85 229 85 229 85 362 c 0,26,27
 85 454 85 454 109.5 512 c 128,-1,28
 134 570 134 570 178 601 c 128,-1,29
 222 632 222 632 282 641 c 1,30,-1
 282 724 l 1,31,-1
 356 724 l 1,0,-1
EndSplineSet
EndChar

StartChar: sterling
Encoding: 163 163 101
Width: 572
Flags: W
LayerCount: 2
Fore
SplineSet
336 723 m 0,0,1
 391 723 391 723 436 711.5 c 128,-1,2
 481 700 481 700 517 683 c 1,3,-1
 482 600 l 1,4,5
 450 614 450 614 414 625 c 128,-1,6
 378 636 378 636 341 636 c 0,7,8
 292 636 292 636 264 610 c 128,-1,9
 236 584 236 584 236 523 c 2,10,-1
 236 398 l 1,11,-1
 433 398 l 1,12,-1
 433 319 l 1,13,-1
 236 319 l 1,14,-1
 236 225 l 2,15,16
 236 166 236 166 214 137.5 c 128,-1,17
 192 109 192 109 166 94 c 1,18,-1
 540 94 l 1,19,-1
 540 0 l 1,20,-1
 34 0 l 1,21,-1
 34 88 l 1,22,23
 77 101 77 101 103.5 131 c 128,-1,24
 130 161 130 161 130 224 c 2,25,-1
 130 319 l 1,26,-1
 37 319 l 1,27,-1
 37 398 l 1,28,-1
 130 398 l 1,29,-1
 130 530 l 2,30,31
 130 625 130 625 187.5 674 c 128,-1,32
 245 723 245 723 336 723 c 0,0,1
EndSplineSet
EndChar

StartChar: currency
Encoding: 164 164 102
Width: 572
Flags: W
LayerCount: 2
Fore
SplineSet
91 353 m 256,0,1
 91 382 91 382 99.5 409 c 128,-1,2
 108 436 108 436 123 459 c 1,3,-1
 58 525 l 1,4,-1
 114 579 l 1,5,-1
 178 516 l 1,6,7
 201 531 201 531 228.5 539.5 c 128,-1,8
 256 548 256 548 286 548 c 0,9,10
 343 548 343 548 392 516 c 1,11,-1
 457 579 l 1,12,-1
 512 526 l 1,13,-1
 449 460 l 1,14,15
 463 438 463 438 472 410 c 128,-1,16
 481 382 481 382 481 353 c 0,17,18
 481 323 481 323 472.5 295.5 c 128,-1,19
 464 268 464 268 449 245 c 1,20,-1
 511 181 l 1,21,-1
 457 127 l 1,22,-1
 392 190 l 1,23,24
 369 176 369 176 342 167.5 c 128,-1,25
 315 159 315 159 286 159 c 0,26,27
 224 159 224 159 178 191 c 1,28,-1
 114 128 l 1,29,-1
 59 182 l 1,30,-1
 123 246 l 1,31,32
 108 269 108 269 99.5 296.5 c 128,-1,33
 91 324 91 324 91 353 c 256,0,1
168 353 m 0,34,35
 168 304 168 304 202 269.5 c 128,-1,36
 236 235 236 235 286 235 c 256,37,38
 336 235 336 235 370.5 269.5 c 128,-1,39
 405 304 405 304 405 353 c 0,40,41
 405 403 405 403 370.5 438 c 128,-1,42
 336 473 336 473 286 473 c 0,43,44
 253 473 253 473 226 457 c 128,-1,45
 199 441 199 441 183.5 413.5 c 128,-1,46
 168 386 168 386 168 353 c 0,34,35
EndSplineSet
EndChar

StartChar: yen
Encoding: 165 165 103
Width: 572
Flags: W
LayerCount: 2
Fore
SplineSet
285 381 m 1,0,-1
 449 714 l 1,1,-1
 559 714 l 1,2,-1
 362 342 l 1,3,-1
 478 342 l 1,4,-1
 478 271 l 1,5,-1
 336 271 l 1,6,-1
 336 194 l 1,7,-1
 478 194 l 1,8,-1
 478 123 l 1,9,-1
 336 123 l 1,10,-1
 336 0 l 1,11,-1
 234 0 l 1,12,-1
 234 123 l 1,13,-1
 92 123 l 1,14,-1
 92 194 l 1,15,-1
 234 194 l 1,16,-1
 234 271 l 1,17,-1
 92 271 l 1,18,-1
 92 342 l 1,19,-1
 205 342 l 1,20,-1
 11 714 l 1,21,-1
 122 714 l 1,22,-1
 285 381 l 1,0,-1
EndSplineSet
EndChar

StartChar: brokenbar
Encoding: 166 166 104
Width: 551
Flags: W
LayerCount: 2
Fore
SplineSet
234 759 m 1,0,-1
 317 759 l 1,1,-1
 317 373 l 1,2,-1
 234 373 l 1,3,-1
 234 759 l 1,0,-1
234 149 m 1,4,-1
 317 149 l 1,5,-1
 317 -237 l 1,6,-1
 234 -237 l 1,7,-1
 234 149 l 1,4,-1
EndSplineSet
EndChar

StartChar: section
Encoding: 167 167 105
Width: 505
Flags: W
LayerCount: 2
Fore
SplineSet
65 394 m 0,0,1
 65 441 65 441 87.5 471.5 c 128,-1,2
 110 502 110 502 140 518 c 1,3,4
 106 538 106 538 86.5 565.5 c 128,-1,5
 67 593 67 593 67 633 c 0,6,7
 67 694 67 694 118.5 729.5 c 128,-1,8
 170 765 170 765 264 765 c 0,9,10
 318 765 318 765 358 755 c 128,-1,11
 398 745 398 745 437 729 c 1,12,-1
 406 654 l 1,13,14
 372 668 372 668 338 679 c 128,-1,15
 304 690 304 690 259 690 c 0,16,17
 205 690 205 690 182.5 675.5 c 128,-1,18
 160 661 160 661 160 635 c 0,19,20
 160 608 160 608 186.5 589 c 128,-1,21
 213 570 213 570 283 544 c 0,22,23
 358 516 358 516 401 479 c 128,-1,24
 444 442 444 442 444 382 c 0,25,26
 444 332 444 332 423 300.5 c 128,-1,27
 402 269 402 269 373 251 c 1,28,29
 407 232 407 232 425 206 c 128,-1,30
 443 180 443 180 443 142 c 0,31,32
 443 72 443 72 385.5 33 c 128,-1,33
 328 -6 328 -6 226 -6 c 0,34,35
 171 -6 171 -6 130 3 c 128,-1,36
 89 12 89 12 57 28 c 1,37,-1
 57 111 l 1,38,39
 91 94 91 94 138 81 c 128,-1,40
 185 68 185 68 229 68 c 0,41,42
 297 68 297 68 323 88 c 128,-1,43
 349 108 349 108 349 135 c 0,44,45
 349 153 349 153 340 166.5 c 128,-1,46
 331 180 331 180 305 194.5 c 128,-1,47
 279 209 279 209 228 229 c 0,48,49
 150 258 150 258 107.5 293 c 128,-1,50
 65 328 65 328 65 394 c 0,0,1
150 404 m 0,51,52
 150 370 150 370 180 345 c 128,-1,53
 210 320 210 320 284 291 c 2,54,-1
 301 285 l 1,55,56
 322 297 322 297 340 317.5 c 128,-1,57
 358 338 358 338 358 369 c 0,58,59
 358 392 358 392 345.5 411.5 c 128,-1,60
 333 431 333 431 301.5 448.5 c 128,-1,61
 270 466 270 466 213 485 c 1,62,63
 189 478 189 478 169.5 456.5 c 128,-1,64
 150 435 150 435 150 404 c 0,51,52
EndSplineSet
EndChar

StartChar: dieresis
Encoding: 168 168 106
Width: 588
Flags: W
LayerCount: 2
Fore
SplineSet
145 682 m 0,0,1
 145 711 145 711 160.5 723.5 c 128,-1,2
 176 736 176 736 198 736 c 256,3,4
 220 736 220 736 236 723.5 c 128,-1,5
 252 711 252 711 252 682 c 0,6,7
 252 655 252 655 236 641.5 c 128,-1,8
 220 628 220 628 198 628 c 256,9,10
 176 628 176 628 160.5 641.5 c 128,-1,11
 145 655 145 655 145 682 c 0,0,1
336 682 m 0,12,13
 336 711 336 711 351 723.5 c 128,-1,14
 366 736 366 736 389 736 c 0,15,16
 410 736 410 736 426 723.5 c 128,-1,17
 442 711 442 711 442 682 c 0,18,19
 442 655 442 655 426 641.5 c 128,-1,20
 410 628 410 628 389 628 c 0,21,22
 366 628 366 628 351 641.5 c 128,-1,23
 336 655 336 655 336 682 c 0,12,13
EndSplineSet
EndChar

StartChar: copyright
Encoding: 169 169 107
Width: 832
Flags: W
LayerCount: 2
Fore
SplineSet
416 -10 m 256,0,1
 336 -10 336 -10 269 17 c 128,-1,2
 202 44 202 44 152.5 93.5 c 128,-1,3
 103 143 103 143 76 210 c 128,-1,4
 49 277 49 277 49 357 c 0,5,6
 49 436 49 436 76.5 503 c 128,-1,7
 104 570 104 570 153 619.5 c 128,-1,8
 202 669 202 669 269 696.5 c 128,-1,9
 336 724 336 724 416 724 c 0,10,11
 492 724 492 724 558.5 697 c 128,-1,12
 625 670 625 670 675.5 620.5 c 128,-1,13
 726 571 726 571 754.5 504 c 128,-1,14
 783 437 783 437 783 357 c 256,15,16
 783 277 783 277 756 210 c 128,-1,17
 729 143 729 143 679.5 93.5 c 128,-1,18
 630 44 630 44 563 17 c 128,-1,19
 496 -10 496 -10 416 -10 c 256,0,1
416 46 m 0,20,21
 479 46 479 46 534.5 69 c 128,-1,22
 590 92 590 92 632 133.5 c 128,-1,23
 674 175 674 175 698 232 c 128,-1,24
 722 289 722 289 722 357 c 0,25,26
 722 421 722 421 699.5 477.5 c 128,-1,27
 677 534 677 534 635.5 576.5 c 128,-1,28
 594 619 594 619 538 643.5 c 128,-1,29
 482 668 482 668 416 668 c 0,30,31
 327 668 327 668 257.5 628 c 128,-1,32
 188 588 188 588 148.5 518 c 128,-1,33
 109 448 109 448 109 357 c 0,34,35
 109 270 109 270 148.5 199.5 c 128,-1,36
 188 129 188 129 257 87.5 c 128,-1,37
 326 46 326 46 416 46 c 0,20,21
431 132 m 0,38,39
 331 132 331 132 281.5 193.5 c 128,-1,40
 232 255 232 255 232 357 c 0,41,42
 232 422 232 422 255.5 473 c 128,-1,43
 279 524 279 524 324.5 553 c 128,-1,44
 370 582 370 582 435 582 c 256,45,46
 500 582 500 582 558 552 c 1,47,-1
 529 489 l 1,48,49
 479 515 479 515 436 515 c 0,50,51
 377 515 377 515 344.5 472.5 c 128,-1,52
 312 430 312 430 312 357 c 0,53,54
 312 280 312 280 340.5 239 c 128,-1,55
 369 198 369 198 435 198 c 0,56,57
 458 198 458 198 486.5 204.5 c 128,-1,58
 515 211 515 211 540 221 c 1,59,-1
 540 156 l 1,60,61
 516 146 516 146 491 139 c 128,-1,62
 466 132 466 132 431 132 c 0,38,39
EndSplineSet
EndChar

StartChar: ordfeminine
Encoding: 170 170 108
Width: 365
Flags: W
LayerCount: 2
Fore
SplineSet
184 722 m 0,0,1
 317 722 317 722 317 603 c 2,2,-1
 317 384 l 1,3,-1
 265 384 l 1,4,-1
 252 430 l 1,5,6
 232 407 232 407 203 392.5 c 128,-1,7
 174 378 174 378 137 378 c 0,8,9
 88 378 88 378 58.5 403 c 128,-1,10
 29 428 29 428 29 480 c 256,11,12
 29 532 29 532 70 558 c 128,-1,13
 111 584 111 584 191 587 c 2,14,-1
 245 589 l 1,15,-1
 245 607 l 2,16,17
 245 637 245 637 225.5 650 c 128,-1,18
 206 663 206 663 176 663 c 0,19,20
 150 663 150 663 124.5 655.5 c 128,-1,21
 99 648 99 648 74 636 c 1,22,-1
 49 690 l 1,23,24
 77 704 77 704 111 713 c 128,-1,25
 145 722 145 722 184 722 c 0,0,1
245 540 m 1,26,-1
 197 538 l 2,27,28
 142 536 142 536 123 520.5 c 128,-1,29
 104 505 104 505 104 481 c 256,30,31
 104 457 104 457 117.5 446.5 c 128,-1,32
 131 436 131 436 153 436 c 0,33,34
 200 436 200 436 222.5 459 c 128,-1,35
 245 482 245 482 245 519 c 2,36,-1
 245 540 l 1,26,-1
EndSplineSet
EndChar

StartChar: guillemotleft
Encoding: 171 171 109
Width: 540
Flags: W
LayerCount: 2
Fore
SplineSet
40 273 m 1,0,-1
 212 480 l 1,1,-1
 288 438 l 1,2,-1
 149 267 l 1,3,-1
 288 96 l 1,4,-1
 212 53 l 1,5,-1
 40 260 l 1,6,-1
 40 273 l 1,0,-1
252 273 m 1,7,-1
 426 480 l 1,8,-1
 501 438 l 1,9,-1
 362 267 l 1,10,-1
 501 96 l 1,11,-1
 426 53 l 1,12,-1
 252 260 l 1,13,-1
 252 273 l 1,7,-1
EndSplineSet
EndChar

StartChar: logicalnot
Encoding: 172 172 110
Width: 572
Flags: W
LayerCount: 2
Fore
SplineSet
522 393 m 1,0,-1
 522 126 l 1,1,-1
 441 126 l 1,2,-1
 441 312 l 1,3,-1
 48 312 l 1,4,-1
 48 393 l 1,5,-1
 522 393 l 1,0,-1
EndSplineSet
EndChar

StartChar: registered
Encoding: 174 174 112
Width: 832
Flags: W
LayerCount: 2
Fore
SplineSet
416 -10 m 256,0,1
 336 -10 336 -10 269 17 c 128,-1,2
 202 44 202 44 152.5 93.5 c 128,-1,3
 103 143 103 143 76 210 c 128,-1,4
 49 277 49 277 49 357 c 0,5,6
 49 436 49 436 76.5 503 c 128,-1,7
 104 570 104 570 153 619.5 c 128,-1,8
 202 669 202 669 269 696.5 c 128,-1,9
 336 724 336 724 416 724 c 0,10,11
 492 724 492 724 558.5 697 c 128,-1,12
 625 670 625 670 675.5 620.5 c 128,-1,13
 726 571 726 571 754.5 504 c 128,-1,14
 783 437 783 437 783 357 c 256,15,16
 783 277 783 277 756 210 c 128,-1,17
 729 143 729 143 679.5 93.5 c 128,-1,18
 630 44 630 44 563 17 c 128,-1,19
 496 -10 496 -10 416 -10 c 256,0,1
416 46 m 0,20,21
 479 46 479 46 534.5 69 c 128,-1,22
 590 92 590 92 632 133.5 c 128,-1,23
 674 175 674 175 698 232 c 128,-1,24
 722 289 722 289 722 357 c 0,25,26
 722 421 722 421 699.5 477.5 c 128,-1,27
 677 534 677 534 635.5 576.5 c 128,-1,28
 594 619 594 619 538 643.5 c 128,-1,29
 482 668 482 668 416 668 c 0,30,31
 327 668 327 668 257.5 628 c 128,-1,32
 188 588 188 588 148.5 518 c 128,-1,33
 109 448 109 448 109 357 c 0,34,35
 109 270 109 270 148.5 199.5 c 128,-1,36
 188 129 188 129 257 87.5 c 128,-1,37
 326 46 326 46 416 46 c 0,20,21
278 138 m 1,38,-1
 278 576 l 1,39,-1
 407 576 l 2,40,41
 489 576 489 576 527 543 c 128,-1,42
 565 510 565 510 565 446 c 0,43,44
 565 399 565 399 541 371.5 c 128,-1,45
 517 344 517 344 487 332 c 1,46,-1
 603 138 l 1,47,-1
 516 138 l 1,48,-1
 417 310 l 1,49,-1
 355 310 l 1,50,-1
 355 138 l 1,51,-1
 278 138 l 1,38,-1
355 373 m 1,52,-1
 405 373 l 2,53,54
 444 373 444 373 465.5 392.5 c 128,-1,55
 487 412 487 412 487 444 c 0,56,57
 487 479 487 479 467.5 495 c 128,-1,58
 448 511 448 511 404 511 c 2,59,-1
 355 511 l 1,60,-1
 355 373 l 1,52,-1
EndSplineSet
EndChar

StartChar: overscore
Encoding: 175 175 113
Width: 500
Flags: W
LayerCount: 2
Fore
SplineSet
503 760 m 1,0,-1
 -3 760 l 1,1,-1
 -3 835 l 1,2,-1
 503 835 l 1,3,-1
 503 760 l 1,0,-1
EndSplineSet
Substitution2: "'smcp' Lowercase to Small Capitals lookup 34 subtable" overscore.sc
Substitution2: "'c2sc' Capitals to Small Capitals lookup 33 subtable" overscore.sc
EndChar

StartChar: degree
Encoding: 176 176 114
Width: 428
Flags: W
LayerCount: 2
Fore
SplineSet
214 408 m 0,0,1
 140 408 140 408 95 452 c 128,-1,2
 50 496 50 496 50 566 c 256,3,4
 50 636 50 636 95 680 c 128,-1,5
 140 724 140 724 214 724 c 0,6,7
 287 724 287 724 332 680 c 128,-1,8
 377 636 377 636 377 566 c 256,9,10
 377 496 377 496 332 452 c 128,-1,11
 287 408 287 408 214 408 c 0,0,1
215 477 m 0,12,13
 258 477 258 477 280.5 501.5 c 128,-1,14
 303 526 303 526 303 566 c 0,15,16
 303 607 303 607 279.5 631.5 c 128,-1,17
 256 656 256 656 215 656 c 0,18,19
 171 656 171 656 148 631.5 c 128,-1,20
 125 607 125 607 125 566 c 0,21,22
 125 526 125 526 148 501.5 c 128,-1,23
 171 477 171 477 215 477 c 0,12,13
EndSplineSet
EndChar

StartChar: plusminus
Encoding: 177 177 115
Width: 572
Flags: W
LayerCount: 2
Fore
SplineSet
326 404 m 1,0,-1
 522 404 l 1,1,-1
 522 323 l 1,2,-1
 326 323 l 1,3,-1
 326 122 l 1,4,-1
 244 122 l 1,5,-1
 244 323 l 1,6,-1
 48 323 l 1,7,-1
 48 404 l 1,8,-1
 244 404 l 1,9,-1
 244 606 l 1,10,-1
 326 606 l 1,11,-1
 326 404 l 1,0,-1
48 0 m 1,12,-1
 48 82 l 1,13,-1
 523 82 l 1,14,-1
 523 0 l 1,15,-1
 48 0 l 1,12,-1
EndSplineSet
EndChar

StartChar: uni00B2
Encoding: 178 178 116
Width: 359
Flags: W
LayerCount: 2
Fore
SplineSet
317 416 m 1,0,-1
 25 416 l 1,1,-1
 25 478 l 1,2,-1
 138 589 l 2,3,4
 176 625 176 625 195.5 648 c 128,-1,5
 215 671 215 671 222.5 689 c 128,-1,6
 230 707 230 707 230 728 c 0,7,8
 230 756 230 756 213 770.5 c 128,-1,9
 196 785 196 785 170 785 c 0,10,11
 143 785 143 785 119.5 773.5 c 128,-1,12
 96 762 96 762 70 742 c 1,13,-1
 27 796 l 1,14,15
 57 822 57 822 93 837.5 c 128,-1,16
 129 853 129 853 175 853 c 0,17,18
 239 853 239 853 276.5 821.5 c 128,-1,19
 314 790 314 790 314 734 c 0,20,21
 314 686 314 686 285.5 647.5 c 128,-1,22
 257 609 257 609 201 556 c 2,23,-1
 129 489 l 1,24,-1
 317 489 l 1,25,-1
 317 416 l 1,0,-1
EndSplineSet
EndChar

StartChar: uni00B3
Encoding: 179 179 117
Width: 359
Flags: W
LayerCount: 2
Fore
SplineSet
171 853 m 0,0,1
 238 853 238 853 275.5 822.5 c 128,-1,2
 313 792 313 792 313 742 c 0,3,4
 313 704 313 704 292 678 c 128,-1,5
 271 652 271 652 237 642 c 1,6,-1
 237 638 l 1,7,8
 279 630 279 630 302.5 603 c 128,-1,9
 326 576 326 576 326 538 c 0,10,11
 326 480 326 480 283.5 444 c 128,-1,12
 241 408 241 408 152 408 c 0,13,14
 115 408 115 408 83 415 c 128,-1,15
 51 422 51 422 21 438 c 1,16,-1
 21 510 l 1,17,18
 89 473 89 473 153 473 c 0,19,20
 244 473 244 473 244 542 c 0,21,22
 244 606 244 606 142 606 c 2,23,-1
 86 606 l 1,24,-1
 86 667 l 1,25,-1
 139 667 l 2,26,27
 190 667 190 667 210.5 685.5 c 128,-1,28
 231 704 231 704 231 732 c 256,29,30
 231 760 231 760 213.5 774 c 128,-1,31
 196 788 196 788 167 788 c 256,32,33
 138 788 138 788 113.5 778 c 128,-1,34
 89 768 89 768 62 750 c 1,35,-1
 22 803 l 1,36,37
 53 826 53 826 88 839.5 c 128,-1,38
 123 853 123 853 171 853 c 0,0,1
EndSplineSet
EndChar

StartChar: acute
Encoding: 180 180 118
Width: 305
Flags: W
LayerCount: 2
Fore
SplineSet
265 766 m 1,0,-1
 265 756 l 1,1,2
 250 738 250 738 222.5 709.5 c 128,-1,3
 195 681 195 681 164.5 652.5 c 128,-1,4
 134 624 134 624 110 606 c 1,5,-1
 40 606 l 1,6,-1
 40 618 l 1,7,8
 55 636 55 636 74 662.5 c 128,-1,9
 93 689 93 689 110.5 716.5 c 128,-1,10
 128 744 128 744 141 766 c 1,11,-1
 265 766 l 1,0,-1
EndSplineSet
EndChar

StartChar: uni00B5
Encoding: 181 181 119
Width: 634
Flags: W
LayerCount: 2
Fore
SplineSet
551 539 m 1,0,-1
 551 0 l 1,1,-1
 468 0 l 1,2,-1
 452 72 l 1,3,-1
 446 72 l 1,4,5
 422 32 422 32 385 11 c 128,-1,6
 348 -10 348 -10 296 -10 c 0,7,8
 260 -10 260 -10 233 2 c 128,-1,9
 206 14 206 14 188 35 c 1,10,-1
 184 35 l 1,11,12
 186 18 186 18 187.5 -14.5 c 128,-1,13
 189 -47 189 -47 189 -84 c 2,14,-1
 189 -240 l 1,15,-1
 83 -240 l 1,16,-1
 83 539 l 1,17,-1
 189 539 l 1,18,-1
 189 201 l 2,19,20
 189 77 189 77 300 77 c 0,21,22
 382 77 382 77 413.5 125.5 c 128,-1,23
 445 174 445 174 445 266 c 2,24,-1
 445 539 l 1,25,-1
 551 539 l 1,0,-1
EndSplineSet
EndChar

StartChar: paragraph
Encoding: 182 182 120
Width: 655
Flags: W
LayerCount: 2
Fore
SplineSet
555 -127 m 1,0,-1
 491 -127 l 1,1,-1
 491 692 l 1,2,-1
 395 692 l 1,3,-1
 395 -127 l 1,4,-1
 331 -127 l 1,5,-1
 331 273 l 1,6,7
 316 268 316 268 297 266 c 128,-1,8
 278 264 278 264 260 264 c 0,9,10
 198 264 198 264 152 287 c 128,-1,11
 106 310 106 310 80.5 364 c 128,-1,12
 55 418 55 418 55 509 c 0,13,14
 55 604 55 604 82.5 659 c 128,-1,15
 110 714 110 714 160 737 c 128,-1,16
 210 760 210 760 275 760 c 2,17,-1
 555 760 l 1,18,-1
 555 -127 l 1,0,-1
EndSplineSet
EndChar

StartChar: cedilla
Encoding: 184 184 122
Width: 219
Flags: W
LayerCount: 2
Fore
SplineSet
210 -134 m 0,0,1
 210 -184 210 -184 174 -212 c 128,-1,2
 138 -240 138 -240 61 -240 c 0,3,4
 44 -240 44 -240 29.5 -238 c 128,-1,5
 15 -236 15 -236 5 -234 c 1,6,-1
 5 -171 l 1,7,8
 16 -173 16 -173 32 -175 c 128,-1,9
 48 -177 48 -177 63 -177 c 0,10,11
 92 -177 92 -177 108.5 -168.5 c 128,-1,12
 125 -160 125 -160 125 -137 c 0,13,14
 125 -113 125 -113 101.5 -100.5 c 128,-1,15
 78 -88 78 -88 37 -83 c 1,16,-1
 79 0 l 1,17,-1
 147 0 l 1,18,-1
 125 -46 l 1,19,20
 160 -55 160 -55 185 -75.5 c 128,-1,21
 210 -96 210 -96 210 -134 c 0,0,1
EndSplineSet
EndChar

StartChar: uni00B9
Encoding: 185 185 123
Width: 359
Flags: W
LayerCount: 2
Fore
SplineSet
253 844 m 1,0,-1
 253 416 l 1,1,-1
 169 416 l 1,2,-1
 169 675 l 2,3,4
 169 699 169 699 170.5 724 c 128,-1,5
 172 749 172 749 173 767 c 1,6,7
 164 759 164 759 152 748 c 128,-1,8
 140 737 140 737 129 729 c 2,9,-1
 80 692 l 1,10,-1
 39 745 l 1,11,-1
 174 844 l 1,12,-1
 253 844 l 1,0,-1
EndSplineSet
EndChar

StartChar: ordmasculine
Encoding: 186 186 124
Width: 380
Flags: W
LayerCount: 2
Fore
SplineSet
349 551 m 256,0,1
 349 468 349 468 305.5 423 c 128,-1,2
 262 378 262 378 189 378 c 0,3,4
 120 378 120 378 75.5 422.5 c 128,-1,5
 31 467 31 467 31 551 c 0,6,7
 31 634 31 634 74 678 c 128,-1,8
 117 722 117 722 191 722 c 0,9,10
 262 722 262 722 305.5 678 c 128,-1,11
 349 634 349 634 349 551 c 256,0,1
104 551 m 256,12,13
 104 495 104 495 124 467 c 128,-1,14
 144 439 144 439 190 439 c 0,15,16
 234 439 234 439 254.5 467 c 128,-1,17
 275 495 275 495 275 551 c 256,18,19
 275 607 275 607 254.5 634 c 128,-1,20
 234 661 234 661 190 661 c 0,21,22
 145 661 145 661 124.5 634 c 128,-1,23
 104 607 104 607 104 551 c 256,12,13
EndSplineSet
EndChar

StartChar: guillemotright
Encoding: 187 187 125
Width: 540
Flags: W
LayerCount: 2
Fore
SplineSet
500 260 m 1,0,-1
 327 53 l 1,1,-1
 252 96 l 1,2,-1
 391 267 l 1,3,-1
 252 438 l 1,4,-1
 327 480 l 1,5,-1
 500 273 l 1,6,-1
 500 260 l 1,0,-1
287 260 m 1,7,-1
 115 53 l 1,8,-1
 39 96 l 1,9,-1
 178 267 l 1,10,-1
 39 438 l 1,11,-1
 115 480 l 1,12,-1
 287 273 l 1,13,-1
 287 260 l 1,7,-1
EndSplineSet
EndChar

StartChar: onequarter
Encoding: 188 188 126
Width: 770
Flags: W
LayerCount: 2
Fore
SplineSet
135 0 m 1,0,-1
 559 714 l 1,1,-1
 646 714 l 1,2,-1
 222 0 l 1,3,-1
 135 0 l 1,0,-1
160 286 m 1,4,-1
 160 545 l 2,5,6
 160 569 160 569 161 594 c 128,-1,7
 162 619 162 619 164 637 c 1,8,9
 156 629 156 629 143.5 618 c 128,-1,10
 131 607 131 607 120 599 c 2,11,-1
 71 562 l 1,12,-1
 30 615 l 1,13,-1
 165 714 l 1,14,-1
 244 714 l 1,15,-1
 244 286 l 1,16,-1
 160 286 l 1,4,-1
613 0 m 1,17,-1
 613 90 l 1,18,-1
 420 90 l 1,19,-1
 420 148 l 1,20,-1
 615 431 l 1,21,-1
 700 431 l 1,22,-1
 700 156 l 1,23,-1
 761 156 l 1,24,-1
 761 90 l 1,25,-1
 700 90 l 1,26,-1
 700 0 l 1,27,-1
 613 0 l 1,17,-1
496 156 m 1,28,-1
 613 156 l 1,29,-1
 613 245 l 2,30,31
 613 266 613 266 613.5 292.5 c 128,-1,32
 614 319 614 319 616 343 c 1,33,34
 611 331 611 331 596.5 306.5 c 128,-1,35
 582 282 582 282 571 266 c 2,36,-1
 496 156 l 1,28,-1
EndSplineSet
EndChar

StartChar: onehalf
Encoding: 189 189 127
Width: 801
Flags: W
LayerCount: 2
Fore
SplineSet
114 0 m 1,0,-1
 538 714 l 1,1,-1
 625 714 l 1,2,-1
 201 0 l 1,3,-1
 114 0 l 1,0,-1
152 286 m 1,4,-1
 152 545 l 2,5,6
 152 569 152 569 153 594 c 128,-1,7
 154 619 154 619 156 637 c 1,8,9
 147 629 147 629 135 618 c 128,-1,10
 123 607 123 607 112 599 c 2,11,-1
 62 562 l 1,12,-1
 22 615 l 1,13,-1
 157 714 l 1,14,-1
 236 714 l 1,15,-1
 236 286 l 1,16,-1
 152 286 l 1,4,-1
468 0 m 1,17,-1
 468 62 l 1,18,-1
 581 173 l 2,19,20
 618 209 618 209 638 232 c 128,-1,21
 658 255 658 255 665 273 c 128,-1,22
 672 291 672 291 672 312 c 0,23,24
 672 340 672 340 655.5 354.5 c 128,-1,25
 639 369 639 369 612 369 c 0,26,27
 586 369 586 369 562 357.5 c 128,-1,28
 538 346 538 346 512 326 c 1,29,-1
 470 380 l 1,30,31
 500 406 500 406 536 421.5 c 128,-1,32
 572 437 572 437 618 437 c 0,33,34
 682 437 682 437 719.5 405.5 c 128,-1,35
 757 374 757 374 757 318 c 0,36,37
 757 270 757 270 728.5 231.5 c 128,-1,38
 700 193 700 193 644 140 c 2,39,-1
 572 73 l 1,40,-1
 760 73 l 1,41,-1
 760 0 l 1,42,-1
 468 0 l 1,17,-1
EndSplineSet
EndChar

StartChar: threequarters
Encoding: 190 190 128
Width: 800
Flags: W
LayerCount: 2
Fore
SplineSet
155 278 m 0,0,1
 118 278 118 278 86 285 c 128,-1,2
 54 292 54 292 24 308 c 1,3,-1
 24 380 l 1,4,5
 92 343 92 343 156 343 c 0,6,7
 247 343 247 343 247 412 c 0,8,9
 247 476 247 476 145 476 c 2,10,-1
 89 476 l 1,11,-1
 89 537 l 1,12,-1
 142 537 l 2,13,14
 193 537 193 537 213.5 555.5 c 128,-1,15
 234 574 234 574 234 602 c 256,16,17
 234 630 234 630 216 644 c 128,-1,18
 198 658 198 658 170 658 c 256,19,20
 142 658 142 658 117 648 c 128,-1,21
 92 638 92 638 65 620 c 1,22,-1
 25 673 l 1,23,24
 56 696 56 696 91 709.5 c 128,-1,25
 126 723 126 723 174 723 c 0,26,27
 242 723 242 723 279 692.5 c 128,-1,28
 316 662 316 662 316 612 c 0,29,30
 316 574 316 574 295 548 c 128,-1,31
 274 522 274 522 240 512 c 1,32,-1
 240 508 l 1,33,34
 282 500 282 500 305.5 473 c 128,-1,35
 329 446 329 446 329 408 c 0,36,37
 329 350 329 350 286.5 314 c 128,-1,38
 244 278 244 278 155 278 c 0,0,1
176 0 m 1,39,-1
 600 714 l 1,40,-1
 688 714 l 1,41,-1
 264 0 l 1,42,-1
 176 0 l 1,39,-1
643 0 m 1,43,-1
 643 90 l 1,44,-1
 450 90 l 1,45,-1
 450 148 l 1,46,-1
 644 431 l 1,47,-1
 730 431 l 1,48,-1
 730 156 l 1,49,-1
 791 156 l 1,50,-1
 791 90 l 1,51,-1
 730 90 l 1,52,-1
 730 0 l 1,53,-1
 643 0 l 1,43,-1
526 156 m 1,54,-1
 643 156 l 1,55,-1
 643 245 l 2,56,57
 643 266 643 266 643.5 292.5 c 128,-1,58
 644 319 644 319 646 343 c 1,59,60
 641 331 641 331 626.5 306.5 c 128,-1,61
 612 282 612 282 601 266 c 2,62,-1
 526 156 l 1,54,-1
EndSplineSet
EndChar

StartChar: AE
Encoding: 198 198 136
Width: 902
GlyphClass: 2
Flags: W
AnchorPoint: "Anchor-2" 497 714 basechar 0
AnchorPoint: "Anchor-0" 451 0 basechar 0
LayerCount: 2
Fore
SplineSet
842 0 m 1,0,-1
 454 0 l 1,1,-1
 454 206 l 1,2,-1
 207 206 l 1,3,-1
 110 0 l 1,4,-1
 -1 0 l 1,5,-1
 333 714 l 1,6,-1
 842 714 l 1,7,-1
 842 622 l 1,8,-1
 562 622 l 1,9,-1
 562 418 l 1,10,-1
 824 418 l 1,11,-1
 824 327 l 1,12,-1
 562 327 l 1,13,-1
 562 93 l 1,14,-1
 842 93 l 1,15,-1
 842 0 l 1,0,-1
248 300 m 1,16,-1
 454 300 l 1,17,-1
 454 620 l 1,18,-1
 395 620 l 1,19,-1
 248 300 l 1,16,-1
EndSplineSet
Substitution2: "'c2sc' Capitals to Small Capitals lookup 33 subtable" ae.sc
EndChar

StartChar: Eth
Encoding: 208 208 146
Width: 733
GlyphClass: 2
Flags: W
AnchorPoint: "Anchor-2" 366 714 basechar 0
AnchorPoint: "Anchor-0" 366 0 basechar 0
LayerCount: 2
Fore
SplineSet
316 714 m 2,0,1
 424 714 424 714 504.5 674 c 128,-1,2
 585 634 585 634 629 556 c 128,-1,3
 673 478 673 478 673 364 c 0,4,5
 673 183 673 183 573 91.5 c 128,-1,6
 473 0 473 0 294 0 c 2,7,-1
 100 0 l 1,8,-1
 100 307 l 1,9,-1
 28 307 l 1,10,-1
 28 399 l 1,11,-1
 100 399 l 1,12,-1
 100 714 l 1,13,-1
 316 714 l 2,0,1
309 623 m 2,14,-1
 208 623 l 1,15,-1
 208 399 l 1,16,-1
 368 399 l 1,17,-1
 368 307 l 1,18,-1
 208 307 l 1,19,-1
 208 91 l 1,20,-1
 290 91 l 2,21,22
 560 91 560 91 560 361 c 0,23,24
 560 496 560 496 494 559.5 c 128,-1,25
 428 623 428 623 309 623 c 2,14,-1
EndSplineSet
Substitution2: "'c2sc' Capitals to Small Capitals lookup 33 subtable" eth.sc
EndChar

StartChar: multiply
Encoding: 215 215 153
Width: 572
Flags: W
LayerCount: 2
Fore
SplineSet
449 574 m 1,0,-1
 507 517 l 1,1,-1
 343 353 l 1,2,-1
 505 189 l 1,3,-1
 449 132 l 1,4,-1
 284 294 l 1,5,-1
 123 132 l 1,6,-1
 65 190 l 1,7,-1
 227 353 l 1,8,-1
 64 516 l 1,9,-1
 122 574 l 1,10,-1
 285 411 l 1,11,-1
 449 574 l 1,0,-1
EndSplineSet
EndChar

StartChar: Oslash
Encoding: 216 216 154
Width: 785
GlyphClass: 2
Flags: W
AnchorPoint: "Anchor-2" 395 714 basechar 0
AnchorPoint: "Anchor-0" 393 0 basechar 0
LayerCount: 2
Fore
SplineSet
725 358 m 0,0,1
 725 247 725 247 688 164.5 c 128,-1,2
 651 82 651 82 577 36 c 128,-1,3
 503 -10 503 -10 393 -10 c 0,4,5
 286 -10 286 -10 214 33 c 1,6,-1
 167 -35 l 1,7,-1
 101 9 l 1,8,-1
 151 81 l 1,9,10
 105 130 105 130 82.5 200.5 c 128,-1,11
 60 271 60 271 60 359 c 0,12,13
 60 469 60 469 96 551.5 c 128,-1,14
 132 634 132 634 206 679.5 c 128,-1,15
 280 725 280 725 394 725 c 0,16,17
 445 725 445 725 489 713.5 c 128,-1,18
 533 702 533 702 569 683 c 1,19,-1
 614 748 l 1,20,-1
 680 704 l 1,21,-1
 631 635 l 1,22,23
 678 587 678 587 701.5 516.5 c 128,-1,24
 725 446 725 446 725 358 c 0,0,1
174 358 m 0,25,26
 174 301 174 301 184 254.5 c 128,-1,27
 194 208 194 208 215 174 c 1,28,-1
 513 601 l 1,29,30
 465 632 465 632 394 632 c 0,31,32
 280 632 280 632 227 559 c 128,-1,33
 174 486 174 486 174 358 c 0,25,26
611 358 m 0,34,35
 611 475 611 475 568 543 c 1,36,-1
 271 115 l 1,37,38
 294 99 294 99 325 90.5 c 128,-1,39
 356 82 356 82 393 82 c 0,40,41
 507 82 507 82 559 156 c 128,-1,42
 611 230 611 230 611 358 c 0,34,35
EndSplineSet
Substitution2: "'c2sc' Capitals to Small Capitals lookup 33 subtable" oslash.sc
EndChar

StartChar: Thorn
Encoding: 222 222 160
Width: 612
GlyphClass: 2
Flags: W
AnchorPoint: "Anchor-2" 306 714 basechar 0
AnchorPoint: "Anchor-0" 306 0 basechar 0
LayerCount: 2
Fore
SplineSet
563 380 m 0,0,1
 563 320 563 320 537 268 c 128,-1,2
 511 216 511 216 449.5 183.5 c 128,-1,3
 388 151 388 151 282 151 c 2,4,-1
 203 151 l 1,5,-1
 203 0 l 1,6,-1
 95 0 l 1,7,-1
 95 714 l 1,8,-1
 203 714 l 1,9,-1
 203 594 l 1,10,-1
 296 594 l 2,11,12
 437 594 437 594 500 537 c 128,-1,13
 563 480 563 480 563 380 c 0,0,1
203 241 m 1,14,-1
 268 241 l 2,15,16
 363 241 363 241 407.5 272.5 c 128,-1,17
 452 304 452 304 452 377 c 0,18,19
 452 441 452 441 412 472 c 128,-1,20
 372 503 372 503 284 503 c 2,21,-1
 203 503 l 1,22,-1
 203 241 l 1,14,-1
EndSplineSet
Substitution2: "'c2sc' Capitals to Small Capitals lookup 33 subtable" thorn.sc
EndChar

StartChar: germandbls
Encoding: 223 223 161
Width: 655
GlyphClass: 2
Flags: W
AnchorPoint: "Anchor-2" 328 765 basechar 0
AnchorPoint: "Anchor-0" 328 0 basechar 0
LayerCount: 2
Fore
SplineSet
548 614 m 0,0,1
 548 579 548 579 534 553 c 128,-1,2
 520 527 520 527 499 507.5 c 128,-1,3
 478 488 478 488 457 472.5 c 128,-1,4
 436 457 436 457 422 442.5 c 128,-1,5
 408 428 408 428 408 411 c 0,6,7
 408 398 408 398 416 387 c 128,-1,8
 424 376 424 376 444 361 c 128,-1,9
 464 346 464 346 501 322 c 0,10,11
 554 288 554 288 583.5 251 c 128,-1,12
 613 214 613 214 613 155 c 0,13,14
 613 70 613 70 559.5 30 c 128,-1,15
 506 -10 506 -10 415 -10 c 0,16,17
 323 -10 323 -10 269 23 c 1,18,-1
 269 114 l 1,19,20
 294 98 294 98 333 85 c 128,-1,21
 372 72 372 72 410 72 c 0,22,23
 460 72 460 72 483.5 92.5 c 128,-1,24
 507 113 507 113 507 150 c 0,25,26
 507 183 507 183 487.5 205.5 c 128,-1,27
 468 228 468 228 413 263 c 0,28,29
 351 302 351 302 327.5 331.5 c 128,-1,30
 304 361 304 361 304 401 c 0,31,32
 304 432 304 432 317.5 454 c 128,-1,33
 331 476 331 476 351.5 492.5 c 128,-1,34
 372 509 372 509 392.5 524.5 c 128,-1,35
 413 540 413 540 426.5 558.5 c 128,-1,36
 440 577 440 577 440 603 c 0,37,38
 440 641 440 641 405.5 660 c 128,-1,39
 371 679 371 679 318 679 c 0,40,41
 283 679 283 679 253.5 669.5 c 128,-1,42
 224 660 224 660 206.5 637 c 128,-1,43
 189 614 189 614 189 574 c 2,44,-1
 189 0 l 1,45,-1
 83 0 l 1,46,-1
 83 576 l 2,47,48
 83 644 83 644 114 685.5 c 128,-1,49
 145 727 145 727 198 746 c 128,-1,50
 251 765 251 765 318 765 c 0,51,52
 386 765 386 765 437.5 748 c 128,-1,53
 489 731 489 731 518.5 697.5 c 128,-1,54
 548 664 548 664 548 614 c 0,0,1
EndSplineSet
Substitution2: "'smcp' Lowercase to Small Capitals lookup 34 subtable" germandbls.sc
EndChar

StartChar: ae
Encoding: 230 230 168
Width: 880
GlyphClass: 2
Flags: W
AnchorPoint: "Anchor-2" 447 539 basechar 0
AnchorPoint: "Anchor-0" 440 0 basechar 0
LayerCount: 2
Fore
SplineSet
614 549 m 0,0,1
 680 549 680 549 729 519 c 128,-1,2
 778 489 778 489 804.5 434.5 c 128,-1,3
 831 380 831 380 831 307 c 2,4,-1
 831 247 l 1,5,-1
 485 247 l 1,6,7
 487 161 487 161 525.5 118.5 c 128,-1,8
 564 76 564 76 634 76 c 0,9,10
 684 76 684 76 724 85.5 c 128,-1,11
 764 95 764 95 805 114 c 1,12,-1
 805 26 l 1,13,14
 764 7 764 7 724.5 -1.5 c 128,-1,15
 685 -10 685 -10 630 -10 c 0,16,17
 562 -10 562 -10 509 17.5 c 128,-1,18
 456 45 456 45 424 99 c 1,19,20
 386 47 386 47 341 18.5 c 128,-1,21
 296 -10 296 -10 216 -10 c 0,22,23
 168 -10 168 -10 129 7.5 c 128,-1,24
 90 25 90 25 67.5 61 c 128,-1,25
 45 97 45 97 45 153 c 0,26,27
 45 318 45 318 286 325 c 2,28,-1
 377 328 l 1,29,-1
 377 364 l 2,30,31
 377 420 377 420 349 443 c 128,-1,32
 321 466 321 466 274 466 c 0,33,34
 235 466 235 466 197 454 c 128,-1,35
 159 442 159 442 125 426 c 1,36,-1
 92 502 l 1,37,38
 130 522 130 522 180 535.5 c 128,-1,39
 230 549 230 549 282 549 c 0,40,41
 402 549 402 549 447 469 c 1,42,43
 475 507 475 507 516.5 528 c 128,-1,44
 558 549 558 549 614 549 c 0,0,1
613 467 m 0,45,46
 558 467 558 467 525 431 c 128,-1,47
 492 395 492 395 487 325 c 1,48,-1
 724 325 l 1,49,50
 724 388 724 388 696.5 427.5 c 128,-1,51
 669 467 669 467 613 467 c 0,45,46
376 259 m 1,52,-1
 307 257 l 2,53,54
 221 253 221 253 187.5 226 c 128,-1,55
 154 199 154 199 154 152 c 0,56,57
 154 110 154 110 177.5 91 c 128,-1,58
 201 72 201 72 240 72 c 0,59,60
 298 72 298 72 337 107 c 128,-1,61
 376 142 376 142 376 212 c 2,62,-1
 376 259 l 1,52,-1
EndSplineSet
Substitution2: "'smcp' Lowercase to Small Capitals lookup 34 subtable" ae.sc
EndChar

StartChar: eth
Encoding: 240 240 178
Width: 609
GlyphClass: 2
Flags: W
AnchorPoint: "Anchor-2" 305 765 basechar 0
AnchorPoint: "Anchor-0" 305 0 basechar 0
LayerCount: 2
Fore
SplineSet
218 765 m 1,0,1
 251 750 251 750 283.5 732 c 128,-1,2
 316 714 316 714 344 694 c 1,3,-1
 458 761 l 1,4,-1
 499 701 l 1,5,-1
 405 646 l 1,6,7
 475 582 475 582 516.5 489.5 c 128,-1,8
 558 397 558 397 558 276 c 0,9,10
 558 135 558 135 489.5 62.5 c 128,-1,11
 421 -10 421 -10 303 -10 c 0,12,13
 230 -10 230 -10 173 19.5 c 128,-1,14
 116 49 116 49 84 103.5 c 128,-1,15
 52 158 52 158 52 235 c 0,16,17
 52 348 52 348 116 412.5 c 128,-1,18
 180 477 180 477 287 477 c 0,19,20
 392 477 392 477 437 422 c 1,21,-1
 441 424 l 1,22,23
 424 476 424 476 394 519.5 c 128,-1,24
 364 563 364 563 325 598 c 1,25,-1
 201 525 l 1,26,-1
 159 586 l 1,27,-1
 264 647 l 1,28,29
 224 674 224 674 179 697 c 1,30,-1
 218 765 l 1,0,1
305 394 m 0,31,32
 228 394 228 394 194 353 c 128,-1,33
 160 312 160 312 160 232 c 0,34,35
 160 162 160 162 194 117.5 c 128,-1,36
 228 73 228 73 305 73 c 0,37,38
 381 73 381 73 415.5 119.5 c 128,-1,39
 450 166 450 166 450 254 c 0,40,41
 450 311 450 311 414.5 352.5 c 128,-1,42
 379 394 379 394 305 394 c 0,31,32
EndSplineSet
Substitution2: "'smcp' Lowercase to Small Capitals lookup 34 subtable" eth.sc
EndChar

StartChar: divide
Encoding: 247 247 185
Width: 572
Flags: W
LayerCount: 2
Fore
SplineSet
285 458 m 0,0,1
 260 458 260 458 242.5 473 c 128,-1,2
 225 488 225 488 225 523 c 0,3,4
 225 559 225 559 242.5 573 c 128,-1,5
 260 587 260 587 285 587 c 0,6,7
 309 587 309 587 326.5 573 c 128,-1,8
 344 559 344 559 344 523 c 0,9,10
 344 488 344 488 326.5 473 c 128,-1,11
 309 458 309 458 285 458 c 0,0,1
48 312 m 1,12,-1
 48 393 l 1,13,-1
 523 393 l 1,14,-1
 523 312 l 1,15,-1
 48 312 l 1,12,-1
285 117 m 0,16,17
 260 117 260 117 242.5 132.5 c 128,-1,18
 225 148 225 148 225 182 c 0,19,20
 225 218 225 218 242.5 232 c 128,-1,21
 260 246 260 246 285 246 c 0,22,23
 309 246 309 246 326.5 232 c 128,-1,24
 344 218 344 218 344 182 c 0,25,26
 344 148 344 148 326.5 132.5 c 128,-1,27
 309 117 309 117 285 117 c 0,16,17
EndSplineSet
EndChar

StartChar: oslash
Encoding: 248 248 186
Width: 609
GlyphClass: 2
Flags: W
AnchorPoint: "Anchor-2" 305 539 basechar 0
AnchorPoint: "Anchor-0" 305 0 basechar 0
LayerCount: 2
Fore
SplineSet
558 270 m 0,0,1
 558 136 558 136 489 63 c 128,-1,2
 420 -10 420 -10 303 -10 c 0,3,4
 234 -10 234 -10 178 20 c 1,5,-1
 141 -34 l 1,6,-1
 78 8 l 1,7,-1
 119 67 l 1,8,9
 87 103 87 103 69.5 154 c 128,-1,10
 52 205 52 205 52 270 c 0,11,12
 52 404 52 404 120 476.5 c 128,-1,13
 188 549 188 549 306 549 c 0,14,15
 342 549 342 549 374 540.5 c 128,-1,16
 406 532 406 532 434 516 c 1,17,-1
 470 567 l 1,18,-1
 533 525 l 1,19,-1
 493 469 l 1,20,21
 523 433 523 433 540.5 383.5 c 128,-1,22
 558 334 558 334 558 270 c 0,0,1
161 270 m 0,23,24
 161 236 161 236 165.5 207 c 128,-1,25
 170 178 170 178 181 156 c 1,26,-1
 381 441 l 1,27,28
 350 461 350 461 304 461 c 0,29,30
 229 461 229 461 195 411.5 c 128,-1,31
 161 362 161 362 161 270 c 0,23,24
449 270 m 0,32,33
 449 334 449 334 431 378 c 1,34,-1
 231 95 l 1,35,36
 261 77 261 77 305 77 c 0,37,38
 380 77 380 77 414.5 128 c 128,-1,39
 449 179 449 179 449 270 c 0,32,33
EndSplineSet
Substitution2: "'smcp' Lowercase to Small Capitals lookup 34 subtable" oslash.sc
EndChar

StartChar: thorn
Encoding: 254 254 192
Width: 620
GlyphClass: 2
Flags: W
AnchorPoint: "Anchor-2" 311 760 basechar 0
AnchorPoint: "Anchor-0" 311 -240 basechar 0
LayerCount: 2
Fore
SplineSet
568 270 m 256,0,1
 568 133 568 133 509 61.5 c 128,-1,2
 450 -10 450 -10 352 -10 c 0,3,4
 290 -10 290 -10 251 12 c 128,-1,5
 212 34 212 34 189 65 c 1,6,-1
 183 65 l 1,7,8
 184 52 184 52 186.5 25.5 c 128,-1,9
 189 -1 189 -1 189 -17 c 2,10,-1
 189 -240 l 1,11,-1
 83 -240 l 1,12,-1
 83 760 l 1,13,-1
 189 760 l 1,14,-1
 189 546 l 2,15,16
 189 529 189 529 187.5 504.5 c 128,-1,17
 186 480 186 480 185 467 c 1,18,-1
 190 467 l 1,19,20
 212 501 212 501 251 525 c 128,-1,21
 290 549 290 549 352 549 c 0,22,23
 449 549 449 549 508.5 478 c 128,-1,24
 568 407 568 407 568 270 c 256,0,1
459 272 m 0,25,26
 459 367 459 367 427.5 414.5 c 128,-1,27
 396 462 396 462 328 462 c 0,28,29
 252 462 252 462 221 419 c 128,-1,30
 190 376 190 376 189 289 c 2,31,-1
 189 271 l 2,32,33
 189 177 189 177 219 127 c 128,-1,34
 249 77 249 77 329 77 c 0,35,36
 396 77 396 77 427.5 127.5 c 128,-1,37
 459 178 459 178 459 272 c 0,25,26
EndSplineSet
Substitution2: "'smcp' Lowercase to Small Capitals lookup 34 subtable" thorn.sc
EndChar

StartChar: dcroat
Encoding: 273 273 211
Width: 626
GlyphClass: 2
Flags: W
AnchorPoint: "Anchor-2" 314 760 basechar 0
AnchorPoint: "Anchor-0" 314 0 basechar 0
LayerCount: 2
Fore
SplineSet
268 -10 m 0,0,1
 170 -10 170 -10 111 59 c 128,-1,2
 52 128 52 128 52 263 c 0,3,4
 52 401 52 401 112 469.5 c 128,-1,5
 172 538 172 538 269 538 c 0,6,7
 330 538 330 538 369.5 515 c 128,-1,8
 409 492 409 492 433 459 c 1,9,-1
 439 459 l 1,10,11
 438 465 438 465 436 481 c 128,-1,12
 434 497 434 497 432.5 515.5 c 128,-1,13
 431 534 431 534 431 548 c 2,14,-1
 431 599 l 1,15,-1
 236 599 l 1,16,-1
 236 674 l 1,17,-1
 431 674 l 1,18,-1
 431 760 l 1,19,-1
 537 760 l 1,20,-1
 537 674 l 1,21,-1
 613 674 l 1,22,-1
 613 599 l 1,23,-1
 537 599 l 1,24,-1
 537 0 l 1,25,-1
 453 0 l 1,26,-1
 435 72 l 1,27,-1
 431 72 l 1,28,29
 408 38 408 38 369 14 c 128,-1,30
 330 -10 330 -10 268 -10 c 0,0,1
294 77 m 0,31,32
 371 77 371 77 402.5 119 c 128,-1,33
 434 161 434 161 435 246 c 2,34,-1
 435 262 l 2,35,36
 435 354 435 354 404.5 402.5 c 128,-1,37
 374 451 374 451 292 451 c 0,38,39
 227 451 227 451 194 400.5 c 128,-1,40
 161 350 161 350 161 261 c 256,41,42
 161 172 161 172 194 124.5 c 128,-1,43
 227 77 227 77 294 77 c 0,31,32
EndSplineSet
Substitution2: "'smcp' Lowercase to Small Capitals lookup 34 subtable" dcroat.sc
EndChar

StartChar: eogonek
Encoding: 281 281 219
Width: 572
GlyphClass: 2
Flags: W
AnchorPoint: "Anchor-3" 552 539 basechar 0
AnchorPoint: "Anchor-2" 288 539 basechar 0
AnchorPoint: "Anchor-0" 300 -226 basechar 0
LayerCount: 2
Fore
SplineSet
396 -115 m 0,0,1
 396 -137 396 -137 408 -147.5 c 128,-1,2
 420 -158 420 -158 439 -158 c 0,3,4
 456 -158 456 -158 468.5 -155.5 c 128,-1,5
 481 -153 481 -153 490 -151 c 1,6,-1
 490 -216 l 1,7,8
 475 -220 475 -220 459.5 -223 c 128,-1,9
 444 -226 444 -226 424 -226 c 0,10,11
 369 -226 369 -226 342 -199.5 c 128,-1,12
 315 -173 315 -173 315 -127 c 0,13,14
 315 -93 315 -93 335 -61.5 c 128,-1,15
 355 -30 355 -30 382 -7 c 1,16,17
 353 -10 353 -10 317 -10 c 0,18,19
 239 -10 239 -10 179 21 c 128,-1,20
 119 52 119 52 85.5 113 c 128,-1,21
 52 174 52 174 52 265 c 256,22,23
 52 356 52 356 82.5 419 c 128,-1,24
 113 482 113 482 167.5 515.5 c 128,-1,25
 222 549 222 549 295 549 c 0,26,27
 401 549 401 549 462 483.5 c 128,-1,28
 523 418 523 418 523 305 c 2,29,-1
 523 247 l 1,30,-1
 161 247 l 1,31,32
 163 164 163 164 204.5 120 c 128,-1,33
 246 76 246 76 321 76 c 0,34,35
 373 76 373 76 413.5 85.5 c 128,-1,36
 454 95 454 95 497 114 c 1,37,-1
 497 26 l 1,38,39
 437 -24 437 -24 416.5 -55 c 128,-1,40
 396 -86 396 -86 396 -115 c 0,0,1
295 467 m 0,41,42
 238 467 238 467 203.5 430 c 128,-1,43
 169 393 169 393 163 325 c 1,44,-1
 417 325 l 1,45,46
 416 388 416 388 386.5 427.5 c 128,-1,47
 357 467 357 467 295 467 c 0,41,42
EndSplineSet
Substitution2: "'smcp' Lowercase to Small Capitals lookup 34 subtable" eogonek.sc
Substitution2: "'locl' Localized Forms in Latin lookup 9 subtable" eogonek.loclNAV
Ligature2: "'ccmp' Glyph Composition/Decomposition lookup 6 subtable" e uni0328
EndChar

StartChar: Hbar
Encoding: 294 294 232
Width: 748
GlyphClass: 2
Flags: W
AnchorPoint: "Anchor-2" 375 714 basechar 0
AnchorPoint: "Anchor-0" 375 0 basechar 0
LayerCount: 2
Fore
SplineSet
95 0 m 1,0,-1
 95 523 l 1,1,-1
 0 523 l 1,2,-1
 0 602 l 1,3,-1
 95 602 l 1,4,-1
 95 714 l 1,5,-1
 203 714 l 1,6,-1
 203 602 l 1,7,-1
 544 602 l 1,8,-1
 544 714 l 1,9,-1
 652 714 l 1,10,-1
 652 602 l 1,11,-1
 747 602 l 1,12,-1
 747 523 l 1,13,-1
 652 523 l 1,14,-1
 652 0 l 1,15,-1
 544 0 l 1,16,-1
 544 326 l 1,17,-1
 203 326 l 1,18,-1
 203 0 l 1,19,-1
 95 0 l 1,0,-1
203 418 m 1,20,-1
 544 418 l 1,21,-1
 544 523 l 1,22,-1
 203 523 l 1,23,-1
 203 418 l 1,20,-1
EndSplineSet
Substitution2: "'c2sc' Capitals to Small Capitals lookup 33 subtable" hbar.sc
EndChar

StartChar: hbar
Encoding: 295 295 233
Width: 630
GlyphClass: 2
Flags: W
AnchorPoint: "Anchor-2" 137 760 basechar 0
AnchorPoint: "Anchor-0" 315 0 basechar 0
LayerCount: 2
Fore
SplineSet
189 760 m 1,0,-1
 189 673 l 1,1,-1
 384 673 l 1,2,-1
 384 598 l 1,3,-1
 189 598 l 1,4,-1
 189 534 l 2,5,6
 189 508 189 508 187 484 c 128,-1,7
 185 460 185 460 183 444 c 1,8,-1
 190 444 l 1,9,10
 216 485 216 485 259.5 505.5 c 128,-1,11
 303 526 303 526 355 526 c 0,12,13
 450 526 450 526 500 479 c 128,-1,14
 550 432 550 432 550 328 c 2,15,-1
 550 0 l 1,16,-1
 445 0 l 1,17,-1
 445 313 l 2,18,19
 445 439 445 439 334 439 c 0,20,21
 251 439 251 439 220 389.5 c 128,-1,22
 189 340 189 340 189 249 c 2,23,-1
 189 0 l 1,24,-1
 83 0 l 1,25,-1
 83 598 l 1,26,-1
 7 598 l 1,27,-1
 7 673 l 1,28,-1
 83 673 l 1,29,-1
 83 760 l 1,30,-1
 189 760 l 1,0,-1
EndSplineSet
Substitution2: "'smcp' Lowercase to Small Capitals lookup 34 subtable" hbar.sc
EndChar

StartChar: kgreenlandic
Encoding: 312 312 249
Width: 559
GlyphClass: 2
Flags: W
AnchorPoint: "Anchor-2" 280 539 basechar 0
AnchorPoint: "Anchor-0" 280 0 basechar 0
LayerCount: 2
Fore
SplineSet
538 539 m 1,0,-1
 331 298 l 1,1,-1
 553 0 l 1,2,-1
 429 0 l 1,3,-1
 260 232 l 1,4,-1
 192 181 l 1,5,-1
 192 0 l 1,6,-1
 83 0 l 1,7,-1
 83 539 l 1,8,-1
 192 539 l 1,9,-1
 192 399 l 2,10,11
 192 362 192 362 190.5 326 c 128,-1,12
 189 290 189 290 187 268 c 1,13,-1
 189 268 l 1,14,15
 201 283 201 283 213.5 298.5 c 128,-1,16
 226 314 226 314 237 328 c 2,17,-1
 416 539 l 1,18,-1
 538 539 l 1,0,-1
EndSplineSet
EndChar

StartChar: Lslash
Encoding: 321 321 258
Width: 536
GlyphClass: 2
Flags: W
AnchorPoint: "Anchor-2" 147 714 basechar 0
AnchorPoint: "Anchor-0" 302 0 basechar 0
LayerCount: 2
Fore
SplineSet
95 0 m 1,0,-1
 95 245 l 1,1,-1
 50 219 l 1,2,-1
 9 290 l 1,3,-1
 95 341 l 1,4,-1
 95 714 l 1,5,-1
 203 714 l 1,6,-1
 203 406 l 1,7,-1
 320 475 l 1,8,-1
 362 403 l 1,9,-1
 203 309 l 1,10,-1
 203 93 l 1,11,-1
 508 93 l 1,12,-1
 508 0 l 1,13,-1
 95 0 l 1,0,-1
EndSplineSet
Substitution2: "'c2sc' Capitals to Small Capitals lookup 33 subtable" lslash.sc
EndChar

StartChar: lslash
Encoding: 322 322 259
Width: 272
GlyphClass: 2
Flags: W
AnchorPoint: "Anchor-2" 136 760 basechar 0
AnchorPoint: "Anchor-0" 136 0 basechar 0
LayerCount: 2
Fore
SplineSet
78 0 m 1,0,-1
 78 270 l 1,1,-1
 32 241 l 1,2,-1
 -10 311 l 1,3,-1
 78 367 l 1,4,-1
 78 760 l 1,5,-1
 184 760 l 1,6,-1
 184 434 l 1,7,-1
 239 471 l 1,8,-1
 282 401 l 1,9,-1
 184 337 l 1,10,-1
 184 0 l 1,11,-1
 78 0 l 1,0,-1
EndSplineSet
Substitution2: "'smcp' Lowercase to Small Capitals lookup 34 subtable" lslash.sc
EndChar

StartChar: Eng
Encoding: 330 330 267
Width: 776
GlyphClass: 2
Flags: W
AnchorPoint: "Anchor-2" 388 714 basechar 0
AnchorPoint: "Anchor-0" 388 -196 basechar 0
LayerCount: 2
Fore
SplineSet
481 -196 m 0,0,1
 430 -196 430 -196 399 -183 c 1,2,-1
 399 -95 l 1,3,4
 416 -100 416 -100 435 -102.5 c 128,-1,5
 454 -105 454 -105 477 -105 c 0,6,7
 520 -105 520 -105 551 -82.5 c 128,-1,8
 582 -60 582 -60 583 1 c 1,9,-1
 189 577 l 1,10,-1
 185 577 l 1,11,12
 186 564 186 564 188 529 c 128,-1,13
 190 494 190 494 191.5 451 c 128,-1,14
 193 408 193 408 193 372 c 2,15,-1
 193 0 l 1,16,-1
 95 0 l 1,17,-1
 95 714 l 1,18,-1
 225 714 l 1,19,-1
 585 181 l 1,20,-1
 588 181 l 1,21,22
 587 196 587 196 585.5 229.5 c 128,-1,23
 584 263 584 263 582.5 303.5 c 128,-1,24
 581 344 581 344 581 380 c 2,25,-1
 581 714 l 1,26,-1
 681 714 l 1,27,-1
 681 4 l 2,28,29
 681 -99 681 -99 626.5 -147.5 c 128,-1,30
 572 -196 572 -196 481 -196 c 0,0,1
EndSplineSet
Substitution2: "'c2sc' Capitals to Small Capitals lookup 33 subtable" eng.sc
AlternateSubs2: "'aalt' Access All Alternates lookup 1 subtable" Eng.alt1 Eng.alt2 Eng.alt3
EndChar

StartChar: eng
Encoding: 331 331 268
Width: 630
GlyphClass: 2
Flags: W
AnchorPoint: "Anchor-2" 315 539 basechar 0
AnchorPoint: "Anchor-0" 315 -240 basechar 0
LayerCount: 2
Fore
SplineSet
397 -240 m 0,0,1
 374 -240 374 -240 354 -236.5 c 128,-1,2
 334 -233 334 -233 321 -228 c 1,3,-1
 321 -143 l 1,4,5
 334 -148 334 -148 348.5 -150.5 c 128,-1,6
 363 -153 363 -153 380 -153 c 0,7,8
 408 -153 408 -153 426.5 -135.5 c 128,-1,9
 445 -118 445 -118 445 -69 c 2,10,-1
 445 340 l 2,11,12
 445 462 445 462 335 462 c 0,13,14
 252 462 252 462 220.5 413 c 128,-1,15
 189 364 189 364 189 273 c 2,16,-1
 189 0 l 1,17,-1
 83 0 l 1,18,-1
 83 539 l 1,19,-1
 167 539 l 1,20,-1
 182 467 l 1,21,-1
 189 467 l 1,22,23
 215 509 215 509 259.5 529 c 128,-1,24
 304 549 304 549 356 549 c 0,25,26
 450 549 450 549 500.5 502.5 c 128,-1,27
 551 456 551 456 551 352 c 2,28,-1
 551 -74 l 2,29,30
 551 -149 551 -149 514.5 -194.5 c 128,-1,31
 478 -240 478 -240 397 -240 c 0,0,1
EndSplineSet
Substitution2: "'smcp' Lowercase to Small Capitals lookup 34 subtable" eng.sc
EndChar

StartChar: OE
Encoding: 338 338 275
Width: 941
GlyphClass: 2
Flags: W
AnchorPoint: "Anchor-2" 471 714 basechar 0
AnchorPoint: "Anchor-0" 471 0 basechar 0
LayerCount: 2
Fore
SplineSet
384 725 m 0,0,1
 438 725 438 725 484 714 c 1,2,-1
 882 714 l 1,3,-1
 882 622 l 1,4,-1
 598 622 l 1,5,-1
 598 418 l 1,6,-1
 863 418 l 1,7,-1
 863 327 l 1,8,-1
 598 327 l 1,9,-1
 598 93 l 1,10,-1
 882 93 l 1,11,-1
 882 0 l 1,12,-1
 488 0 l 1,13,14
 466 -4 466 -4 439 -7 c 128,-1,15
 412 -10 412 -10 387 -10 c 0,16,17
 276 -10 276 -10 203.5 36 c 128,-1,18
 131 82 131 82 95.5 165 c 128,-1,19
 60 248 60 248 60 359 c 256,20,21
 60 470 60 470 95.5 552 c 128,-1,22
 131 634 131 634 202.5 679.5 c 128,-1,23
 274 725 274 725 384 725 c 0,0,1
390 632 m 0,24,25
 278 632 278 632 225 559 c 128,-1,26
 172 486 172 486 172 358 c 256,27,28
 172 230 172 230 224.5 156 c 128,-1,29
 277 82 277 82 389 82 c 0,30,31
 447 82 447 82 491 100 c 1,32,-1
 491 615 l 1,33,34
 471 624 471 624 444.5 628 c 128,-1,35
 418 632 418 632 390 632 c 0,24,25
EndSplineSet
Substitution2: "'c2sc' Capitals to Small Capitals lookup 33 subtable" oe.sc
EndChar

StartChar: oe
Encoding: 339 339 276
Width: 955
GlyphClass: 2
Flags: W
AnchorPoint: "Anchor-2" 478 539 basechar 0
AnchorPoint: "Anchor-0" 478 0 basechar 0
LayerCount: 2
Fore
SplineSet
679 548 m 0,0,1
 785 548 785 548 845.5 483 c 128,-1,2
 906 418 906 418 906 305 c 2,3,-1
 906 247 l 1,4,-1
 548 247 l 1,5,6
 550 160 550 160 590 118 c 128,-1,7
 630 76 630 76 704 76 c 0,8,9
 756 76 756 76 797 85.5 c 128,-1,10
 838 95 838 95 880 114 c 1,11,-1
 880 26 l 1,12,13
 839 7 839 7 798.5 -1.5 c 128,-1,14
 758 -10 758 -10 701 -10 c 0,15,16
 634 -10 634 -10 582 15 c 128,-1,17
 530 40 530 40 497 91 c 1,18,19
 465 41 465 41 414.5 15.5 c 128,-1,20
 364 -10 364 -10 300 -10 c 0,21,22
 228 -10 228 -10 172 22.5 c 128,-1,23
 116 55 116 55 83.5 117.5 c 128,-1,24
 51 180 51 180 51 270 c 0,25,26
 51 404 51 404 118 476 c 128,-1,27
 185 548 185 548 302 548 c 0,28,29
 363 548 363 548 412.5 523 c 128,-1,30
 462 498 462 498 493 448 c 1,31,32
 558 548 558 548 679 548 c 0,0,1
679 466 m 0,33,34
 624 466 624 466 590 430.5 c 128,-1,35
 556 395 556 395 550 325 c 1,36,-1
 799 325 l 1,37,38
 799 388 799 388 770 427 c 128,-1,39
 741 466 741 466 679 466 c 0,33,34
299 461 m 256,40,41
 226 461 226 461 193.5 413 c 128,-1,42
 161 365 161 365 161 270 c 256,43,44
 161 175 161 175 194.5 126 c 128,-1,45
 228 77 228 77 301 77 c 0,46,47
 373 77 373 77 406.5 125.5 c 128,-1,48
 440 174 440 174 440 268 c 0,49,50
 440 366 440 366 406 413.5 c 128,-1,51
 372 461 372 461 299 461 c 256,40,41
EndSplineSet
Substitution2: "'smcp' Lowercase to Small Capitals lookup 34 subtable" oe.sc
EndChar

StartChar: Tbar
Encoding: 358 358 295
Width: 563
GlyphClass: 2
Flags: W
AnchorPoint: "Anchor-2" 282 714 basechar 0
AnchorPoint: "Anchor-0" 282 0 basechar 0
LayerCount: 2
Fore
SplineSet
227 0 m 1,0,-1
 227 315 l 1,1,-1
 86 315 l 1,2,-1
 86 404 l 1,3,-1
 227 404 l 1,4,-1
 227 620 l 1,5,-1
 13 620 l 1,6,-1
 13 714 l 1,7,-1
 549 714 l 1,8,-1
 549 620 l 1,9,-1
 335 620 l 1,10,-1
 335 404 l 1,11,-1
 475 404 l 1,12,-1
 475 315 l 1,13,-1
 335 315 l 1,14,-1
 335 0 l 1,15,-1
 227 0 l 1,0,-1
EndSplineSet
Substitution2: "'c2sc' Capitals to Small Capitals lookup 33 subtable" tbar.sc
EndChar

StartChar: tbar
Encoding: 359 359 296
Width: 383
GlyphClass: 2
Flags: W
AnchorPoint: "Anchor-3" 353 660 basechar 0
AnchorPoint: "Anchor-2" 167 660 basechar 0
AnchorPoint: "Anchor-1" 192 269 basechar 0
AnchorPoint: "Anchor-0" 222 0 basechar 0
LayerCount: 2
Fore
SplineSet
26 269 m 1,0,-1
 26 344 l 1,1,-1
 93 344 l 1,2,-1
 93 458 l 1,3,-1
 18 458 l 1,4,-1
 18 506 l 1,5,-1
 97 546 l 1,6,-1
 134 660 l 1,7,-1
 199 660 l 1,8,-1
 199 539 l 1,9,-1
 353 539 l 1,10,-1
 353 458 l 1,11,-1
 199 458 l 1,12,-1
 199 344 l 1,13,-1
 342 344 l 1,14,-1
 342 269 l 1,15,-1
 199 269 l 1,16,-1
 199 162 l 2,17,18
 199 118 199 118 220.5 97 c 128,-1,19
 242 76 242 76 277 76 c 0,20,21
 322 76 322 76 358 89 c 1,22,-1
 358 9 l 1,23,24
 341 1 341 1 312 -4.5 c 128,-1,25
 283 -10 283 -10 254 -10 c 0,26,27
 210 -10 210 -10 173.5 5 c 128,-1,28
 137 20 137 20 115 57 c 128,-1,29
 93 94 93 94 93 160 c 2,30,-1
 93 269 l 1,31,-1
 26 269 l 1,0,-1
EndSplineSet
Substitution2: "'smcp' Lowercase to Small Capitals lookup 34 subtable" tbar.sc
EndChar

StartChar: Uogonek
Encoding: 370 370 307
Width: 738
GlyphClass: 2
Flags: W
AnchorPoint: "Anchor-3" 718 714 basechar 0
AnchorPoint: "Anchor-2" 370 714 basechar 0
AnchorPoint: "Anchor-0" 368 -226 basechar 0
LayerCount: 2
Fore
SplineSet
472 -105 m 0,0,1
 472 -133 472 -133 484 -145.5 c 128,-1,2
 496 -158 496 -158 515 -158 c 0,3,4
 532 -158 532 -158 544.5 -155.5 c 128,-1,5
 557 -153 557 -153 565 -151 c 1,6,-1
 565 -216 l 1,7,8
 551 -220 551 -220 535.5 -223 c 128,-1,9
 520 -226 520 -226 499 -226 c 0,10,11
 390 -226 390 -226 390 -118 c 0,12,13
 390 -87 390 -87 405 -57.5 c 128,-1,14
 420 -28 420 -28 441 -3 c 1,15,16
 406 -10 406 -10 366 -10 c 0,17,18
 230 -10 230 -10 159.5 62.5 c 128,-1,19
 89 135 89 135 89 254 c 2,20,-1
 89 714 l 1,21,-1
 197 714 l 1,22,-1
 197 259 l 2,23,24
 197 82 197 82 371 82 c 0,25,26
 461 82 461 82 501.5 130 c 128,-1,27
 542 178 542 178 542 260 c 2,28,-1
 542 714 l 1,29,-1
 649 714 l 1,30,-1
 649 252 l 2,31,32
 649 189 649 189 626.5 135.5 c 128,-1,33
 604 82 604 82 558 46 c 1,34,35
 513 -2 513 -2 492.5 -37 c 128,-1,36
 472 -72 472 -72 472 -105 c 0,0,1
EndSplineSet
Substitution2: "'c2sc' Capitals to Small Capitals lookup 33 subtable" uogonek.sc
Substitution2: "'locl' Localized Forms in Latin lookup 9 subtable" Uogonek.loclNAV
Ligature2: "'ccmp' Glyph Composition/Decomposition lookup 6 subtable" U uni0328
EndChar

StartChar: longs
Encoding: 383 383 320
Width: 343
GlyphClass: 2
Flags: W
AnchorPoint: "Anchor-2" 219 765 basechar 0
AnchorPoint: "Anchor-0" 172 0 basechar 0
LayerCount: 2
Fore
SplineSet
269 679 m 0,0,1
 230 679 230 679 209.5 655 c 128,-1,2
 189 631 189 631 189 578 c 2,3,-1
 189 0 l 1,4,-1
 83 0 l 1,5,-1
 83 580 l 2,6,7
 83 683 83 683 132.5 724 c 128,-1,8
 182 765 182 765 264 765 c 0,9,10
 300 765 300 765 327.5 758.5 c 128,-1,11
 355 752 355 752 375 745 c 1,12,-1
 348 664 l 1,13,14
 332 669 332 669 311.5 674 c 128,-1,15
 291 679 291 679 269 679 c 0,0,1
EndSplineSet
EndChar

StartChar: florin
Encoding: 402 402 321
Width: 572
GlyphClass: 2
Flags: W
AnchorPoint: "Anchor-2" 366 724 basechar 0
AnchorPoint: "Anchor-0" 286 -240 basechar 0
LayerCount: 2
Fore
SplineSet
403 724 m 0,0,1
 439 724 439 724 466.5 717 c 128,-1,2
 494 710 494 710 514 702 c 1,3,-1
 488 622 l 1,4,5
 472 627 472 627 453 632.5 c 128,-1,6
 434 638 434 638 412 638 c 0,7,8
 373 638 373 638 355 616 c 128,-1,9
 337 594 337 594 337 542 c 2,10,-1
 337 483 l 1,11,-1
 465 483 l 1,12,-1
 465 402 l 1,13,-1
 339 402 l 1,14,-1
 339 -63 l 2,15,16
 339 -154 339 -154 296.5 -197 c 128,-1,17
 254 -240 254 -240 168 -240 c 0,18,19
 126 -240 126 -240 94 -230 c 1,20,-1
 94 -144 l 1,21,22
 109 -148 109 -148 123.5 -150.5 c 128,-1,23
 138 -153 138 -153 155 -153 c 0,24,25
 192 -153 192 -153 211.5 -132.5 c 128,-1,26
 231 -112 231 -112 231 -56 c 2,27,-1
 231 402 l 1,28,-1
 133 402 l 1,29,-1
 133 452 l 1,30,-1
 231 485 l 1,31,-1
 231 543 l 2,32,33
 231 612 231 612 251.5 651.5 c 128,-1,34
 272 691 272 691 310.5 707.5 c 128,-1,35
 349 724 349 724 403 724 c 0,0,1
EndSplineSet
EndChar

StartChar: Aringacute
Encoding: 506 506 322
Width: 655
GlyphClass: 2
Flags: W
AnchorPoint: "Anchor-2" 327 958 basechar 0
AnchorPoint: "Anchor-0" 327 0 basechar 0
LayerCount: 2
Fore
SplineSet
275 837 m 1,0,-1
 275 846 l 1,1,2
 296 868 296 868 320 900 c 128,-1,3
 344 932 344 932 360 958 c 1,4,-1
 484 958 l 1,5,-1
 484 951 l 1,6,7
 474 937 474 937 449.5 915.5 c 128,-1,8
 425 894 425 894 396.5 872.5 c 128,-1,9
 368 851 368 851 346 837 c 1,10,-1
 275 837 l 1,0,-1
0 0 m 1,11,-1
 254 618 l 1,12,13
 213 646 213 646 213 702 c 0,14,15
 213 754 213 754 244.5 782.5 c 128,-1,16
 276 811 276 811 326 811 c 0,17,18
 374 811 374 811 407.5 782.5 c 128,-1,19
 441 754 441 754 441 703 c 0,20,21
 441 674 441 674 430 653 c 128,-1,22
 419 632 419 632 401 619 c 1,23,-1
 655 0 l 1,24,-1
 541 0 l 1,25,-1
 468 183 l 1,26,-1
 183 183 l 1,27,-1
 113 0 l 1,28,-1
 0 0 l 1,11,-1
326 649 m 0,29,30
 350 649 350 649 364.5 662.5 c 128,-1,31
 379 676 379 676 379 702 c 256,32,33
 379 728 379 728 364 742 c 128,-1,34
 349 756 349 756 326 756 c 256,35,36
 303 756 303 756 287.5 742 c 128,-1,37
 272 728 272 728 272 702 c 0,38,39
 272 677 272 677 286 663 c 128,-1,40
 300 649 300 649 326 649 c 0,29,30
215 277 m 1,41,-1
 440 277 l 1,42,-1
 367 464 l 2,43,44
 359 484 359 484 346.5 518.5 c 128,-1,45
 334 553 334 553 327 579 c 1,46,47
 322 562 322 562 314.5 539 c 128,-1,48
 307 516 307 516 299.5 495 c 128,-1,49
 292 474 292 474 288 463 c 2,50,-1
 215 277 l 1,41,-1
EndSplineSet
Substitution2: "'c2sc' Capitals to Small Capitals lookup 33 subtable" aringacute.sc
EndChar

StartChar: aringacute
Encoding: 507 507 323
Width: 574
GlyphClass: 2
Flags: W
AnchorPoint: "Anchor-2" 287 958 basechar 0
AnchorPoint: "Anchor-0" 287 0 basechar 0
LayerCount: 2
Fore
SplineSet
457 958 m 1,0,-1
 457 952 l 1,1,2
 446 940 446 940 418 922 c 128,-1,3
 390 904 390 904 358 886 c 128,-1,4
 326 868 326 868 304 856 c 1,5,-1
 230 856 l 1,6,-1
 230 864 l 1,7,8
 251 883 251 883 275 909.5 c 128,-1,9
 299 936 299 936 315 958 c 1,10,-1
 457 958 l 1,0,-1
291 817 m 0,11,12
 340 817 340 817 373 788.5 c 128,-1,13
 406 760 406 760 406 710 c 0,14,15
 406 658 406 658 373 629 c 128,-1,16
 340 600 340 600 291 600 c 0,17,18
 241 600 241 600 210 628.5 c 128,-1,19
 179 657 179 657 179 709 c 0,20,21
 179 760 179 760 210 788.5 c 128,-1,22
 241 817 241 817 291 817 c 0,11,12
291 762 m 256,23,24
 268 762 268 762 253 748 c 128,-1,25
 238 734 238 734 238 709 c 256,26,27
 238 684 238 684 252 669.5 c 128,-1,28
 266 655 266 655 291 655 c 0,29,30
 314 655 314 655 329.5 669.5 c 128,-1,31
 345 684 345 684 345 709 c 256,32,33
 345 734 345 734 329.5 748 c 128,-1,34
 314 762 314 762 291 762 c 256,23,24
292 549 m 0,35,36
 393 549 393 549 443.5 504.5 c 128,-1,37
 494 460 494 460 494 365 c 2,38,-1
 494 0 l 1,39,-1
 419 0 l 1,40,-1
 398 75 l 1,41,-1
 394 75 l 1,42,43
 359 31 359 31 320.5 10.5 c 128,-1,44
 282 -10 282 -10 214 -10 c 0,45,46
 141 -10 141 -10 93 29.5 c 128,-1,47
 45 69 45 69 45 153 c 0,48,49
 45 236 45 236 107.5 278.5 c 128,-1,50
 170 321 170 321 298 325 c 2,51,-1
 390 328 l 1,52,-1
 390 358 l 2,53,54
 390 417 390 417 363 441.5 c 128,-1,55
 336 466 336 466 287 466 c 0,56,57
 246 466 246 466 208 454 c 128,-1,58
 170 442 170 442 135 425 c 1,59,-1
 101 502 l 1,60,61
 139 522 139 522 188.5 535.5 c 128,-1,62
 238 549 238 549 292 549 c 0,35,36
389 259 m 1,63,-1
 317 257 l 2,64,65
 225 253 225 253 189.5 226 c 128,-1,66
 154 199 154 199 154 152 c 0,67,68
 154 110 154 110 179 91 c 128,-1,69
 204 72 204 72 244 72 c 0,70,71
 306 72 306 72 347.5 107 c 128,-1,72
 389 142 389 142 389 212 c 2,73,-1
 389 259 l 1,63,-1
EndSplineSet
Substitution2: "'smcp' Lowercase to Small Capitals lookup 34 subtable" aringacute.sc
EndChar

StartChar: circumflex
Encoding: 710 710 330
Width: 443
Flags: W
LayerCount: 2
Fore
SplineSet
278 766 m 1,0,1
 291 744 291 744 313.5 716.5 c 128,-1,2
 336 689 336 689 360 662.5 c 128,-1,3
 384 636 384 636 403 618 c 1,4,-1
 403 606 l 1,5,-1
 330 606 l 1,6,7
 304 622 304 622 275 645 c 128,-1,8
 246 668 246 668 220 695 c 1,9,10
 193 668 193 668 165.5 645 c 128,-1,11
 138 622 138 622 112 606 c 1,12,-1
 40 606 l 1,13,-1
 40 618 l 1,14,15
 58 637 58 637 82 663 c 128,-1,16
 106 689 106 689 128 716.5 c 128,-1,17
 150 744 150 744 164 766 c 1,18,-1
 278 766 l 1,0,1
EndSplineSet
EndChar

StartChar: caron
Encoding: 711 711 331
Width: 443
Flags: W
LayerCount: 2
Fore
SplineSet
164 606 m 1,0,1
 150 628 150 628 128 655 c 128,-1,2
 106 682 106 682 82 708 c 128,-1,3
 58 734 58 734 40 753 c 1,4,-1
 40 766 l 1,5,-1
 112 766 l 1,6,7
 138 749 138 749 166 726 c 128,-1,8
 194 703 194 703 220 676 c 1,9,10
 246 703 246 703 275 726.5 c 128,-1,11
 304 750 304 750 330 766 c 1,12,-1
 403 766 l 1,13,-1
 403 753 l 1,14,15
 384 734 384 734 360 708.5 c 128,-1,16
 336 683 336 683 313.5 655.5 c 128,-1,17
 291 628 291 628 278 606 c 1,18,-1
 164 606 l 1,0,1
EndSplineSet
EndChar

StartChar: macron
Encoding: 713 713 332
Width: 387
Flags: W
LayerCount: 2
Fore
SplineSet
347 686 m 1,0,-1
 347 606 l 1,1,-1
 40 606 l 1,2,-1
 40 686 l 1,3,-1
 347 686 l 1,0,-1
EndSplineSet
EndChar

StartChar: breve
Encoding: 728 728 333
Width: 413
Flags: W
LayerCount: 2
Fore
SplineSet
373 749 m 1,0,1
 368 685 368 685 323.5 645.5 c 128,-1,2
 279 606 279 606 204 606 c 0,3,4
 126 606 126 606 85 645 c 128,-1,5
 44 684 44 684 40 749 c 1,6,-1
 103 749 l 1,7,8
 107 708 107 708 134 697.5 c 128,-1,9
 161 687 161 687 206 687 c 0,10,11
 244 687 244 687 274 698.5 c 128,-1,12
 304 710 304 710 309 749 c 1,13,-1
 373 749 l 1,0,1
EndSplineSet
EndChar

StartChar: dotaccent
Encoding: 729 729 334
Width: 200
Flags: W
LayerCount: 2
Fore
SplineSet
101 744 m 0,0,1
 125 744 125 744 142.5 730 c 128,-1,2
 160 716 160 716 160 683 c 0,3,4
 160 651 160 651 142.5 636.5 c 128,-1,5
 125 622 125 622 101 622 c 0,6,7
 76 622 76 622 58 636.5 c 128,-1,8
 40 651 40 651 40 683 c 0,9,10
 40 716 40 716 58 730 c 128,-1,11
 76 744 76 744 101 744 c 0,0,1
EndSplineSet
EndChar

StartChar: ring
Encoding: 730 730 335
Width: 307
Flags: W
LayerCount: 2
Fore
SplineSet
153 606 m 0,0,1
 102 606 102 606 71 634.5 c 128,-1,2
 40 663 40 663 40 715 c 0,3,4
 40 765 40 765 71 794 c 128,-1,5
 102 823 102 823 153 823 c 0,6,7
 201 823 201 823 234 794.5 c 128,-1,8
 267 766 267 766 267 716 c 0,9,10
 267 664 267 664 234.5 635 c 128,-1,11
 202 606 202 606 153 606 c 0,0,1
153 661 m 0,12,13
 176 661 176 661 191 675.5 c 128,-1,14
 206 690 206 690 206 715 c 256,15,16
 206 740 206 740 191 754 c 128,-1,17
 176 768 176 768 153 768 c 256,18,19
 130 768 130 768 114.5 754 c 128,-1,20
 99 740 99 740 99 715 c 0,21,22
 99 661 99 661 153 661 c 0,12,13
EndSplineSet
EndChar

StartChar: ogonek
Encoding: 731 731 336
Width: 255
Flags: W
LayerCount: 2
Fore
SplineSet
121 -115 m 0,0,1
 121 -137 121 -137 132.5 -147.5 c 128,-1,2
 144 -158 144 -158 164 -158 c 0,3,4
 180 -158 180 -158 193 -155.5 c 128,-1,5
 206 -153 206 -153 215 -151 c 1,6,-1
 215 -216 l 1,7,8
 200 -220 200 -220 184.5 -223 c 128,-1,9
 169 -226 169 -226 149 -226 c 0,10,11
 94 -226 94 -226 67 -199.5 c 128,-1,12
 40 -173 40 -173 40 -127 c 0,13,14
 40 -98 40 -98 54.5 -71 c 128,-1,15
 69 -44 69 -44 91.5 -21.5 c 128,-1,16
 114 1 114 1 137 16 c 1,17,-1
 190 0 l 1,18,19
 156 -32 156 -32 138.5 -59 c 128,-1,20
 121 -86 121 -86 121 -115 c 0,0,1
EndSplineSet
EndChar

StartChar: tilde
Encoding: 732 732 337
Width: 458
Flags: W
LayerCount: 2
Fore
SplineSet
40 606 m 1,0,1
 46 670 46 670 77 705 c 128,-1,2
 108 740 108 740 157 740 c 0,3,4
 186 740 186 740 212 726 c 128,-1,5
 238 712 238 712 262 698.5 c 128,-1,6
 286 685 286 685 308 685 c 0,7,8
 347 685 347 685 361 741 c 1,9,-1
 418 741 l 1,10,11
 412 677 412 677 381.5 642 c 128,-1,12
 351 607 351 607 302 607 c 0,13,14
 274 607 274 607 248 620.5 c 128,-1,15
 222 634 222 634 198 648 c 128,-1,16
 174 662 174 662 151 662 c 0,17,18
 110 662 110 662 97 606 c 1,19,-1
 40 606 l 1,0,1
EndSplineSet
EndChar

StartChar: hungarumlaut
Encoding: 733 733 338
Width: 462
Flags: W
LayerCount: 2
Fore
SplineSet
422 766 m 1,0,-1
 422 756 l 1,1,2
 412 738 412 738 386.5 709.5 c 128,-1,3
 361 681 361 681 332 652.5 c 128,-1,4
 303 624 303 624 280 606 c 1,5,-1
 221 606 l 1,6,-1
 221 618 l 1,7,8
 235 637 235 637 251.5 663 c 128,-1,9
 268 689 268 689 284 716.5 c 128,-1,10
 300 744 300 744 311 766 c 1,11,-1
 422 766 l 1,0,-1
240 766 m 1,12,-1
 240 756 l 1,13,14
 230 738 230 738 205 709.5 c 128,-1,15
 180 681 180 681 151 652.5 c 128,-1,16
 122 624 122 624 99 606 c 1,17,-1
 40 606 l 1,18,-1
 40 618 l 1,19,20
 54 637 54 637 70.5 663 c 128,-1,21
 87 689 87 689 102.5 716.5 c 128,-1,22
 118 744 118 744 129 766 c 1,23,-1
 240 766 l 1,12,-1
EndSplineSet
EndChar

StartChar: tonos
Encoding: 900 900 339
Width: 577
Flags: W
AnchorPoint: "Anchor-10" 291 539 mark 0
AnchorPoint: "Anchor-6" 291 539 mark 0
AnchorPoint: "Anchor-2" 291 539 mark 0
LayerCount: 2
Fore
SplineSet
248 606 m 1,0,-1
 248 620 l 1,1,2
 256 644 256 644 265 676.5 c 128,-1,3
 274 709 274 709 281 742.5 c 128,-1,4
 288 776 288 776 291 802 c 1,5,-1
 398 802 l 1,6,-1
 398 791 l 1,7,8
 391 768 391 768 377.5 736 c 128,-1,9
 364 704 364 704 346.5 669.5 c 128,-1,10
 329 635 329 635 311 606 c 1,11,-1
 248 606 l 1,0,-1
EndSplineSet
EndChar

StartChar: dieresistonos
Encoding: 901 901 340
Width: 577
Flags: W
AnchorPoint: "Anchor-10" 289 539 mark 0
AnchorPoint: "Anchor-6" 289 539 mark 0
AnchorPoint: "Anchor-2" 289 539 mark 0
LayerCount: 2
Fore
SplineSet
398 838 m 1,0,-1
 398 828 l 1,1,2
 382 796 382 796 356 755 c 128,-1,3
 330 714 330 714 301 678 c 1,4,-1
 252 678 l 1,5,-1
 252 690 l 1,6,7
 262 720 262 720 274 762 c 128,-1,8
 286 804 286 804 292 838 c 1,9,-1
 398 838 l 1,0,-1
178 736 m 0,10,11
 199 736 199 736 214 723.5 c 128,-1,12
 229 711 229 711 229 682 c 0,13,14
 229 655 229 655 214 641.5 c 128,-1,15
 199 628 199 628 178 628 c 0,16,17
 156 628 156 628 141 641.5 c 128,-1,18
 126 655 126 655 126 682 c 0,19,20
 126 711 126 711 141 723.5 c 128,-1,21
 156 736 156 736 178 736 c 0,10,11
411 736 m 0,22,23
 432 736 432 736 447 723.5 c 128,-1,24
 462 711 462 711 462 682 c 0,25,26
 462 655 462 655 447 641.5 c 128,-1,27
 432 628 432 628 411 628 c 0,28,29
 388 628 388 628 374 641.5 c 128,-1,30
 360 655 360 655 360 682 c 0,31,32
 360 711 360 711 374 723.5 c 128,-1,33
 388 736 388 736 411 736 c 0,22,23
EndSplineSet
EndChar

StartChar: Gamma
Encoding: 915 915 352
Width: 535
GlyphClass: 2
Flags: W
AnchorPoint: "Anchor-2" 311 714 basechar 0
AnchorPoint: "Anchor-0" 268 0 basechar 0
LayerCount: 2
Fore
SplineSet
512 714 m 1,0,-1
 512 621 l 1,1,-1
 203 621 l 1,2,-1
 203 0 l 1,3,-1
 95 0 l 1,4,-1
 95 714 l 1,5,-1
 512 714 l 1,0,-1
EndSplineSet
EndChar

StartChar: uni0394
Encoding: 916 916 353
Width: 604
GlyphClass: 2
Flags: W
AnchorPoint: "Anchor-2" 302 714 basechar 0
AnchorPoint: "Anchor-0" 302 0 basechar 0
LayerCount: 2
Fore
SplineSet
359 715 m 1,0,-1
 581 63 l 1,1,-1
 581 0 l 1,2,-1
 22 0 l 1,3,-1
 22 64 l 1,4,-1
 245 715 l 1,5,-1
 359 715 l 1,0,-1
466 93 m 1,6,-1
 342 466 l 2,7,8
 330 500 330 500 318.5 540.5 c 128,-1,9
 307 581 307 581 301 609 c 1,10,11
 294 581 294 581 283 541 c 128,-1,12
 272 501 272 501 261 468 c 2,13,-1
 135 93 l 1,14,-1
 466 93 l 1,6,-1
EndSplineSet
EndChar

StartChar: Theta
Encoding: 920 920 357
Width: 785
GlyphClass: 2
Flags: W
AnchorPoint: "Anchor-3" 765 714 basechar 0
AnchorPoint: "Anchor-2" 393 714 basechar 0
AnchorPoint: "Anchor-1" 393 357 basechar 0
AnchorPoint: "Anchor-0" 394 0 basechar 0
LayerCount: 2
Fore
SplineSet
725 358 m 256,0,1
 725 247 725 247 688 164.5 c 128,-1,2
 651 82 651 82 577 36 c 128,-1,3
 503 -10 503 -10 393 -10 c 0,4,5
 280 -10 280 -10 206 36 c 128,-1,6
 132 82 132 82 96 165 c 128,-1,7
 60 248 60 248 60 359 c 0,8,9
 60 469 60 469 96 551.5 c 128,-1,10
 132 634 132 634 206 679.5 c 128,-1,11
 280 725 280 725 394 725 c 0,12,13
 504 725 504 725 577.5 679.5 c 128,-1,14
 651 634 651 634 688 551.5 c 128,-1,15
 725 469 725 469 725 358 c 256,0,1
174 358 m 256,16,17
 174 230 174 230 227 156 c 128,-1,18
 280 82 280 82 393 82 c 0,19,20
 507 82 507 82 559 156 c 128,-1,21
 611 230 611 230 611 358 c 256,22,23
 611 486 611 486 559 559 c 128,-1,24
 507 632 507 632 394 632 c 0,25,26
 280 632 280 632 227 559 c 128,-1,27
 174 486 174 486 174 358 c 256,16,17
536 409 m 1,28,-1
 536 317 l 1,29,-1
 248 317 l 1,30,-1
 248 409 l 1,31,-1
 536 409 l 1,28,-1
EndSplineSet
EndChar

StartChar: Lambda
Encoding: 923 923 360
Width: 620
GlyphClass: 2
Flags: W
AnchorPoint: "Anchor-2" 310 714 basechar 0
AnchorPoint: "Anchor-0" 310 0 basechar 0
LayerCount: 2
Fore
SplineSet
367 714 m 1,0,-1
 620 0 l 1,1,-1
 508 0 l 1,2,-1
 357 444 l 2,3,4
 344 483 344 483 330 528 c 128,-1,5
 316 573 316 573 309 607 c 1,6,7
 302 573 302 573 289 527.5 c 128,-1,8
 276 482 276 482 263 444 c 2,9,-1
 112 0 l 1,10,-1
 0 0 l 1,11,-1
 252 714 l 1,12,-1
 367 714 l 1,0,-1
EndSplineSet
EndChar

StartChar: Xi
Encoding: 926 926 363
Width: 560
GlyphClass: 2
Flags: W
AnchorPoint: "Anchor-2" 280 714 basechar 0
AnchorPoint: "Anchor-0" 280 0 basechar 0
LayerCount: 2
Fore
SplineSet
56 622 m 1,0,-1
 56 714 l 1,1,-1
 503 714 l 1,2,-1
 503 622 l 1,3,-1
 56 622 l 1,0,-1
96 327 m 1,4,-1
 96 418 l 1,5,-1
 463 418 l 1,6,-1
 463 327 l 1,7,-1
 96 327 l 1,4,-1
36 0 m 1,8,-1
 36 93 l 1,9,-1
 523 93 l 1,10,-1
 523 0 l 1,11,-1
 36 0 l 1,8,-1
EndSplineSet
EndChar

StartChar: Pi
Encoding: 928 928 365
Width: 735
GlyphClass: 2
Flags: W
AnchorPoint: "Anchor-2" 368 714 basechar 0
AnchorPoint: "Anchor-0" 368 0 basechar 0
LayerCount: 2
Fore
SplineSet
95 0 m 1,0,-1
 95 714 l 1,1,-1
 639 714 l 1,2,-1
 639 0 l 1,3,-1
 532 0 l 1,4,-1
 532 621 l 1,5,-1
 203 621 l 1,6,-1
 203 0 l 1,7,-1
 95 0 l 1,0,-1
EndSplineSet
EndChar

StartChar: Sigma
Encoding: 931 931 367
Width: 577
GlyphClass: 2
Flags: W
AnchorPoint: "Anchor-2" 289 714 basechar 0
AnchorPoint: "Anchor-0" 289 0 basechar 0
LayerCount: 2
Fore
SplineSet
37 0 m 1,0,-1
 37 87 l 1,1,-1
 269 373 l 1,2,-1
 43 627 l 1,3,-1
 43 714 l 1,4,-1
 521 714 l 1,5,-1
 521 621 l 1,6,-1
 278 621 l 2,7,8
 262 621 262 621 240 621 c 128,-1,9
 218 621 218 621 197 621.5 c 128,-1,10
 176 622 176 622 163 623 c 1,11,-1
 387 374 l 1,12,-1
 152 90 l 1,13,14
 189 91 189 91 226 92 c 128,-1,15
 263 93 263 93 301 93 c 2,16,-1
 550 93 l 1,17,-1
 550 0 l 1,18,-1
 37 0 l 1,0,-1
EndSplineSet
EndChar

StartChar: Phi
Encoding: 934 934 370
Width: 821
GlyphClass: 2
Flags: W
AnchorPoint: "Anchor-2" 410 714 basechar 0
AnchorPoint: "Anchor-0" 410 0 basechar 0
LayerCount: 2
Fore
SplineSet
461 724 m 1,0,-1
 461 636 l 1,1,2
 578 634 578 634 645.5 597 c 128,-1,3
 713 560 713 560 742 501 c 128,-1,4
 771 442 771 442 771 370 c 0,5,6
 771 322 771 322 756 275 c 128,-1,7
 741 228 741 228 705.5 189 c 128,-1,8
 670 150 670 150 610.5 126 c 128,-1,9
 551 102 551 102 461 100 c 1,10,-1
 461 -10 l 1,11,-1
 358 -10 l 1,12,-1
 358 100 l 1,13,14
 267 102 267 102 207 127 c 128,-1,15
 147 152 147 152 112.5 191.5 c 128,-1,16
 78 231 78 231 63.5 277.5 c 128,-1,17
 49 324 49 324 49 370 c 0,18,19
 49 440 49 440 78.5 499.5 c 128,-1,20
 108 559 108 559 175.5 596.5 c 128,-1,21
 243 634 243 634 358 636 c 1,22,-1
 358 724 l 1,23,-1
 461 724 l 1,0,-1
358 548 m 1,24,25
 282 546 282 546 238 523 c 128,-1,26
 194 500 194 500 174.5 461 c 128,-1,27
 155 422 155 422 155 371 c 0,28,29
 155 288 155 288 203.5 239.5 c 128,-1,30
 252 191 252 191 358 187 c 1,31,-1
 358 548 l 1,24,25
461 548 m 1,32,-1
 461 187 l 1,33,34
 570 191 570 191 617.5 240.5 c 128,-1,35
 665 290 665 290 665 371 c 0,36,37
 665 423 665 423 645.5 462 c 128,-1,38
 626 501 626 501 581.5 523.5 c 128,-1,39
 537 546 537 546 461 548 c 1,32,-1
EndSplineSet
EndChar

StartChar: Psi
Encoding: 936 936 372
Width: 825
GlyphClass: 2
Flags: W
AnchorPoint: "Anchor-2" 413 714 basechar 0
AnchorPoint: "Anchor-0" 413 0 basechar 0
LayerCount: 2
Fore
SplineSet
772 714 m 1,0,-1
 772 479 l 2,1,2
 772 424 772 424 757 376 c 128,-1,3
 742 328 742 328 707 292 c 128,-1,4
 672 256 672 256 612.5 236 c 128,-1,5
 553 216 553 216 463 216 c 1,6,-1
 463 0 l 1,7,-1
 361 0 l 1,8,-1
 361 216 l 1,9,10
 270 216 270 216 210.5 236.5 c 128,-1,11
 151 257 151 257 116.5 293 c 128,-1,12
 82 329 82 329 67.5 376.5 c 128,-1,13
 53 424 53 424 53 478 c 2,14,-1
 53 714 l 1,15,-1
 158 714 l 1,16,-1
 158 480 l 2,17,18
 158 388 158 388 207 347 c 128,-1,19
 256 306 256 306 361 306 c 1,20,-1
 361 714 l 1,21,-1
 463 714 l 1,22,-1
 463 306 l 1,23,24
 567 306 567 306 616 347 c 128,-1,25
 665 388 665 388 665 478 c 2,26,-1
 665 714 l 1,27,-1
 772 714 l 1,0,-1
EndSplineSet
EndChar

StartChar: uni03A9
Encoding: 937 937 373
Width: 783
GlyphClass: 2
Flags: W
AnchorPoint: "Anchor-2" 392 714 basechar 0
AnchorPoint: "Anchor-0" 392 0 basechar 0
LayerCount: 2
Fore
SplineSet
392 632 m 256,0,1
 282 632 282 632 228 570.5 c 128,-1,2
 174 509 174 509 174 399 c 0,3,4
 174 303 174 303 208 226.5 c 128,-1,5
 242 150 242 150 330 91 c 1,6,-1
 330 0 l 1,7,-1
 35 0 l 1,8,-1
 35 93 l 1,9,-1
 214 93 l 1,10,11
 148 140 148 140 104.5 221 c 128,-1,12
 61 302 61 302 61 410 c 0,13,14
 61 506 61 506 100 577 c 128,-1,15
 139 648 139 648 213.5 686.5 c 128,-1,16
 288 725 288 725 392 725 c 0,17,18
 498 725 498 725 571.5 686.5 c 128,-1,19
 645 648 645 648 684 577.5 c 128,-1,20
 723 507 723 507 723 411 c 0,21,22
 723 302 723 302 680 221 c 128,-1,23
 637 140 637 140 570 93 c 1,24,-1
 749 93 l 1,25,-1
 749 0 l 1,26,-1
 453 0 l 1,27,-1
 453 91 l 1,28,29
 541 149 541 149 576 226.5 c 128,-1,30
 611 304 611 304 611 399 c 0,31,32
 611 509 611 509 556.5 570.5 c 128,-1,33
 502 632 502 632 392 632 c 256,0,1
EndSplineSet
EndChar

StartChar: alpha
Encoding: 945 945 381
Width: 624
GlyphClass: 2
Flags: W
AnchorPoint: "Anchor-2" 314 539 basechar 0
AnchorPoint: "Anchor-0" 306 0 basechar 0
LayerCount: 2
Fore
SplineSet
270 -10 m 0,0,1
 172 -10 172 -10 112 60 c 128,-1,2
 52 130 52 130 52 267 c 256,3,4
 52 404 52 404 112 476.5 c 128,-1,5
 172 549 172 549 279 549 c 0,6,7
 338 549 338 549 377 528.5 c 128,-1,8
 416 508 416 508 441 467 c 1,9,-1
 447 467 l 1,10,11
 452 484 452 484 460 504 c 128,-1,12
 468 524 468 524 480 539 c 1,13,-1
 565 539 l 1,14,15
 558 517 558 517 551.5 481.5 c 128,-1,16
 545 446 545 446 541 405 c 128,-1,17
 537 364 537 364 537 326 c 2,18,-1
 537 134 l 2,19,20
 537 102 537 102 549 90 c 128,-1,21
 561 78 561 78 578 78 c 0,22,23
 585 78 585 78 594 80 c 128,-1,24
 603 82 603 82 607 83 c 1,25,-1
 607 3 l 1,26,27
 600 -2 600 -2 582 -6 c 128,-1,28
 564 -10 564 -10 548 -10 c 0,29,30
 508 -10 508 -10 482 8 c 128,-1,31
 456 26 456 26 443 72 c 1,32,-1
 435 72 l 1,33,34
 412 38 412 38 374 14 c 128,-1,35
 336 -10 336 -10 270 -10 c 0,0,1
294 77 m 0,36,37
 370 77 370 77 402 121.5 c 128,-1,38
 434 166 434 166 434 262 c 2,39,-1
 434 268 l 2,40,41
 434 362 434 362 404 411.5 c 128,-1,42
 374 461 374 461 293 461 c 0,43,44
 226 461 226 461 193.5 411.5 c 128,-1,45
 161 362 161 362 161 266 c 0,46,47
 161 172 161 172 193 124.5 c 128,-1,48
 225 77 225 77 294 77 c 0,36,37
EndSplineSet
EndChar

StartChar: beta
Encoding: 946 946 382
Width: 640
GlyphClass: 2
Flags: W
AnchorPoint: "Anchor-3" 565 765 basechar 0
AnchorPoint: "Anchor-2" 328 765 basechar 0
AnchorPoint: "Anchor-0" 387 0 basechar 0
LayerCount: 2
Fore
SplineSet
328 765 m 0,0,1
 396 765 396 765 449.5 743.5 c 128,-1,2
 503 722 503 722 533 680 c 128,-1,3
 563 638 563 638 563 574 c 0,4,5
 563 502 563 502 524.5 459.5 c 128,-1,6
 486 417 486 417 414 406 c 1,7,-1
 414 402 l 1,8,9
 503 392 503 392 550.5 344 c 128,-1,10
 598 296 598 296 598 205 c 0,11,12
 598 102 598 102 533 46 c 128,-1,13
 468 -10 468 -10 355 -10 c 0,14,15
 300 -10 300 -10 260 -1.5 c 128,-1,16
 220 7 220 7 189 23 c 1,17,-1
 189 -240 l 1,18,-1
 83 -240 l 1,19,-1
 83 535 l 2,20,21
 83 616 83 616 115 666.5 c 128,-1,22
 147 717 147 717 202.5 741 c 128,-1,23
 258 765 258 765 328 765 c 0,0,1
326 679 m 0,24,25
 289 679 289 679 258 666 c 128,-1,26
 227 653 227 653 208 620 c 128,-1,27
 189 587 189 587 189 528 c 2,28,-1
 189 115 l 1,29,30
 220 98 220 98 257 87 c 128,-1,31
 294 76 294 76 338 76 c 0,32,33
 418 76 418 76 454 112 c 128,-1,34
 490 148 490 148 490 213 c 0,35,36
 490 287 490 287 445 320 c 128,-1,37
 400 353 400 353 330 353 c 2,38,-1
 282 353 l 1,39,-1
 282 440 l 1,40,-1
 320 440 l 2,41,42
 390 440 390 440 423 474.5 c 128,-1,43
 456 509 456 509 456 566 c 256,44,45
 456 623 456 623 420 651 c 128,-1,46
 384 679 384 679 326 679 c 0,24,25
EndSplineSet
EndChar

StartChar: gamma
Encoding: 947 947 383
Width: 533
GlyphClass: 2
Flags: W
AnchorPoint: "Anchor-3" 523 539 basechar 0
AnchorPoint: "Anchor-2" 266 539 basechar 0
AnchorPoint: "Anchor-0" 266 -240 basechar 0
LayerCount: 2
Fore
SplineSet
529 539 m 1,0,-1
 330 12 l 2,1,2
 314 -28 314 -28 303.5 -74 c 128,-1,3
 293 -120 293 -120 287 -163 c 128,-1,4
 281 -206 281 -206 281 -240 c 1,5,-1
 168 -240 l 1,6,7
 168 -212 168 -212 174.5 -170 c 128,-1,8
 181 -128 181 -128 192.5 -81.5 c 128,-1,9
 204 -35 204 -35 218 6 c 1,10,-1
 4 539 l 1,11,-1
 114 539 l 1,12,-1
 217 270 l 2,13,14
 227 244 227 244 238 210 c 128,-1,15
 249 176 249 176 257.5 146 c 128,-1,16
 266 116 266 116 269 98 c 1,17,-1
 273 98 l 1,18,19
 276 114 276 114 284 144 c 128,-1,20
 292 174 292 174 302 207 c 128,-1,21
 312 240 312 240 321 265 c 2,22,-1
 419 539 l 1,23,-1
 529 539 l 1,0,-1
EndSplineSet
EndChar

StartChar: delta
Encoding: 948 948 384
Width: 608
GlyphClass: 2
Flags: W
AnchorPoint: "Anchor-2" 304 761 basechar 0
AnchorPoint: "Anchor-0" 304 0 basechar 0
LayerCount: 2
Fore
SplineSet
326 761 m 0,0,1
 395 761 395 761 444.5 745 c 128,-1,2
 494 729 494 729 538 707 c 1,3,-1
 493 628 l 1,4,5
 454 649 454 649 412 663.5 c 128,-1,6
 370 678 370 678 321 678 c 0,7,8
 278 678 278 678 258.5 659 c 128,-1,9
 239 640 239 640 239 615 c 0,10,11
 239 582 239 582 270 555.5 c 128,-1,12
 301 529 301 529 373 490 c 0,13,14
 464 442 464 442 510.5 383.5 c 128,-1,15
 557 325 557 325 557 240 c 0,16,17
 557 116 557 116 487.5 53 c 128,-1,18
 418 -10 418 -10 302 -10 c 0,19,20
 229 -10 229 -10 172.5 16 c 128,-1,21
 116 42 116 42 83.5 92 c 128,-1,22
 51 142 51 142 51 214 c 0,23,24
 51 280 51 280 78 327 c 128,-1,25
 105 374 105 374 151.5 405.5 c 128,-1,26
 198 437 198 437 255 454 c 1,27,28
 202 485 202 485 168 524.5 c 128,-1,29
 134 564 134 564 134 619 c 0,30,31
 134 689 134 689 188 725 c 128,-1,32
 242 761 242 761 326 761 c 0,0,1
330 409 m 1,33,34
 294 400 294 400 254.5 378.5 c 128,-1,35
 215 357 215 357 188 317.5 c 128,-1,36
 161 278 161 278 161 215 c 0,37,38
 161 154 161 154 198 115.5 c 128,-1,39
 235 77 235 77 302 77 c 0,40,41
 372 77 372 77 410 118 c 128,-1,42
 448 159 448 159 448 236 c 0,43,44
 448 299 448 299 416.5 339.5 c 128,-1,45
 385 380 385 380 330 409 c 1,33,34
EndSplineSet
EndChar

StartChar: epsilon
Encoding: 949 949 385
Width: 504
GlyphClass: 2
Flags: W
AnchorPoint: "Anchor-2" 282 539 basechar 0
AnchorPoint: "Anchor-0" 253 0 basechar 0
LayerCount: 2
Fore
SplineSet
371 321 m 1,0,-1
 371 240 l 1,1,-1
 296 240 l 2,2,3
 219 240 219 240 183 218.5 c 128,-1,4
 147 197 147 197 147 155 c 0,5,6
 147 112 147 112 184.5 93.5 c 128,-1,7
 222 75 222 75 286 75 c 0,8,9
 343 75 343 75 388.5 88 c 128,-1,10
 434 101 434 101 468 117 c 1,11,-1
 468 27 l 1,12,13
 435 10 435 10 388.5 0 c 128,-1,14
 342 -10 342 -10 279 -10 c 0,15,16
 157 -10 157 -10 99.5 34.5 c 128,-1,17
 42 79 42 79 42 147 c 0,18,19
 42 207 42 207 77.5 236 c 128,-1,20
 113 265 113 265 165 278 c 1,21,-1
 165 283 l 1,22,23
 118 296 118 296 90.5 327 c 128,-1,24
 63 358 63 358 63 407 c 0,25,26
 63 454 63 454 91 485.5 c 128,-1,27
 119 517 119 517 168 533 c 128,-1,28
 217 549 217 549 279 549 c 0,29,30
 337 549 337 549 382.5 538.5 c 128,-1,31
 428 528 428 528 469 510 c 1,32,-1
 433 429 l 1,33,34
 398 444 398 444 362.5 454.5 c 128,-1,35
 327 465 327 465 279 465 c 0,36,37
 162 465 162 465 162 396 c 0,38,39
 162 356 162 356 201 338.5 c 128,-1,40
 240 321 240 321 310 321 c 2,41,-1
 371 321 l 1,0,-1
EndSplineSet
EndChar

StartChar: zeta
Encoding: 950 950 386
Width: 488
GlyphClass: 2
Flags: W
AnchorPoint: "Anchor-2" 244 760 basechar 0
AnchorPoint: "Anchor-0" 244 -192 basechar 0
LayerCount: 2
Fore
SplineSet
468 -34 m 256,0,1
 468 -78 468 -78 448 -119 c 128,-1,2
 428 -160 428 -160 403 -192 c 1,3,-1
 298 -192 l 1,4,5
 324 -158 324 -158 343.5 -120.5 c 128,-1,6
 363 -83 363 -83 363 -57 c 0,7,8
 363 -44 363 -44 355.5 -33.5 c 128,-1,9
 348 -23 348 -23 324 -13.5 c 128,-1,10
 300 -4 300 -4 252 5 c 0,11,12
 154 22 154 22 103 74 c 128,-1,13
 52 126 52 126 52 225 c 0,14,15
 52 297 52 297 75.5 358 c 128,-1,16
 99 419 99 419 140 473.5 c 128,-1,17
 181 528 181 528 233.5 579.5 c 128,-1,18
 286 631 286 631 344 682 c 1,19,20
 338 680 338 680 316 679 c 128,-1,21
 294 678 294 678 265 677 c 128,-1,22
 236 676 236 676 208 676 c 2,23,-1
 81 676 l 1,24,-1
 81 760 l 1,25,-1
 467 760 l 1,26,-1
 467 687 l 1,27,28
 365 602 365 602 303.5 534 c 128,-1,29
 242 466 242 466 211.5 411.5 c 128,-1,30
 181 357 181 357 171 313 c 128,-1,31
 161 269 161 269 161 231 c 0,32,33
 161 176 161 176 180 148.5 c 128,-1,34
 199 121 199 121 235.5 107.5 c 128,-1,35
 272 94 272 94 322 84 c 0,36,37
 402 68 402 68 435 39 c 128,-1,38
 468 10 468 10 468 -34 c 256,0,1
EndSplineSet
EndChar

StartChar: eta
Encoding: 951 951 387
Width: 630
GlyphClass: 2
Flags: W
AnchorPoint: "Anchor-2" 330 539 basechar 0
AnchorPoint: "Anchor-0" 315 -240 basechar 0
LayerCount: 2
Fore
SplineSet
356 549 m 0,0,1
 450 549 450 549 500 502 c 128,-1,2
 550 455 550 455 550 351 c 2,3,-1
 550 -240 l 1,4,-1
 445 -240 l 1,5,-1
 445 336 l 2,6,7
 445 398 445 398 418.5 430 c 128,-1,8
 392 462 392 462 334 462 c 0,9,10
 252 462 252 462 220.5 413 c 128,-1,11
 189 364 189 364 189 272 c 2,12,-1
 189 0 l 1,13,-1
 83 0 l 1,14,-1
 83 539 l 1,15,-1
 167 539 l 1,16,-1
 182 467 l 1,17,-1
 188 467 l 1,18,19
 214 509 214 509 259.5 529 c 128,-1,20
 305 549 305 549 356 549 c 0,0,1
EndSplineSet
EndChar

StartChar: theta
Encoding: 952 952 388
Width: 602
GlyphClass: 2
Flags: W
AnchorPoint: "Anchor-3" 522 765 basechar 0
AnchorPoint: "Anchor-2" 301 765 basechar 0
AnchorPoint: "Anchor-0" 301 0 basechar 0
LayerCount: 2
Fore
SplineSet
550 377 m 0,0,1
 550 256 550 256 525 169.5 c 128,-1,2
 500 83 500 83 445 36.5 c 128,-1,3
 390 -10 390 -10 300 -10 c 0,4,5
 173 -10 173 -10 112.5 93 c 128,-1,6
 52 196 52 196 52 377 c 0,7,8
 52 499 52 499 77 586 c 128,-1,9
 102 673 102 673 156.5 719 c 128,-1,10
 211 765 211 765 300 765 c 0,11,12
 427 765 427 765 488.5 663.5 c 128,-1,13
 550 562 550 562 550 377 c 0,0,1
300 682 m 256,14,15
 230 682 230 682 197 618 c 128,-1,16
 164 554 164 554 160 428 c 1,17,-1
 441 428 l 1,18,19
 436 554 436 554 403 618 c 128,-1,20
 370 682 370 682 300 682 c 256,14,15
300 73 m 0,21,22
 371 73 371 73 405 140 c 128,-1,23
 439 207 439 207 442 343 c 1,24,-1
 160 343 l 1,25,26
 162 209 162 209 194 141 c 128,-1,27
 226 73 226 73 300 73 c 0,21,22
EndSplineSet
EndChar

StartChar: iota
Encoding: 953 953 389
Width: 364
GlyphClass: 2
Flags: W
AnchorPoint: "Anchor-2" 139 539 basechar 0
AnchorPoint: "Anchor-0" 213 0 basechar 0
LayerCount: 2
Fore
SplineSet
186 539 m 1,0,-1
 186 162 l 2,1,2
 186 76 186 76 260 76 c 0,3,4
 282 76 282 76 305.5 80 c 128,-1,5
 329 84 329 84 345 89 c 1,6,-1
 345 9 l 1,7,8
 328 1 328 1 299.5 -4.5 c 128,-1,9
 271 -10 271 -10 241 -10 c 0,10,11
 195 -10 195 -10 159 5 c 128,-1,12
 123 20 123 20 102 57 c 128,-1,13
 81 94 81 94 81 161 c 2,14,-1
 81 539 l 1,15,-1
 186 539 l 1,0,-1
EndSplineSet
EndChar

StartChar: lambda
Encoding: 955 955 391
Width: 564
GlyphClass: 2
Flags: W
AnchorPoint: "Anchor-2" 282 766 basechar 0
AnchorPoint: "Anchor-0" 282 0 basechar 0
LayerCount: 2
Fore
SplineSet
-3 0 m 1,0,-1
 228 523 l 1,1,-1
 204 589 l 2,2,3
 187 635 187 635 166 656.5 c 128,-1,4
 145 678 145 678 103 678 c 0,5,6
 86 678 86 678 73 676 c 128,-1,7
 60 674 60 674 49 672 c 1,8,-1
 49 758 l 1,9,10
 62 761 62 761 82 763.5 c 128,-1,11
 102 766 102 766 120 766 c 0,12,13
 175 766 175 766 209 747 c 128,-1,14
 243 728 243 728 265.5 690.5 c 128,-1,15
 288 653 288 653 309 596 c 2,16,-1
 471 145 l 2,17,18
 484 107 484 107 498 92.5 c 128,-1,19
 512 78 512 78 531 78 c 0,20,21
 549 78 549 78 562 83 c 1,22,-1
 562 3 l 1,23,24
 551 -2 551 -2 532.5 -6 c 128,-1,25
 514 -10 514 -10 497 -10 c 0,26,27
 453 -10 453 -10 428.5 12 c 128,-1,28
 404 34 404 34 387 80 c 2,29,-1
 322 264 l 2,30,31
 309 298 309 298 295 340.5 c 128,-1,32
 281 383 281 383 276 410 c 1,33,-1
 272 410 l 1,34,35
 264 377 264 377 250.5 339.5 c 128,-1,36
 237 302 237 302 222 268 c 2,37,-1
 107 0 l 1,38,-1
 -3 0 l 1,0,-1
EndSplineSet
EndChar

StartChar: nu
Encoding: 957 957 393
Width: 561
GlyphClass: 2
Flags: W
AnchorPoint: "Anchor-2" 281 539 basechar 0
AnchorPoint: "Anchor-0" 281 0 basechar 0
LayerCount: 2
Fore
SplineSet
1 539 m 1,0,-1
 110 539 l 1,1,-1
 217 246 l 2,2,3
 225 224 225 224 235 195 c 128,-1,4
 245 166 245 166 254 137.5 c 128,-1,5
 263 109 263 109 268 91 c 1,6,-1
 272 91 l 1,7,8
 326 150 326 150 357.5 217 c 128,-1,9
 389 284 389 284 402 363 c 128,-1,10
 415 442 415 442 415 539 c 1,11,-1
 521 539 l 1,12,13
 521 433 521 433 502.5 342 c 128,-1,14
 484 251 484 251 438 167.5 c 128,-1,15
 392 84 392 84 309 0 c 1,16,-1
 202 0 l 1,17,-1
 1 539 l 1,0,-1
EndSplineSet
EndChar

StartChar: xi
Encoding: 958 958 394
Width: 483
GlyphClass: 2
Flags: W
AnchorPoint: "Anchor-2" 242 760 basechar 0
AnchorPoint: "Anchor-0" 242 -192 basechar 0
LayerCount: 2
Fore
SplineSet
51 208 m 0,0,1
 51 281 51 281 92 328.5 c 128,-1,2
 133 376 133 376 191 395 c 1,3,-1
 191 401 l 1,4,5
 141 414 141 414 112.5 446 c 128,-1,6
 84 478 84 478 84 533 c 0,7,8
 84 598 84 598 125 631.5 c 128,-1,9
 166 665 166 665 230 682 c 1,10,11
 230 682 230 682 209.5 680.5 c 128,-1,12
 189 679 189 679 160 677.5 c 128,-1,13
 131 676 131 676 106 676 c 2,14,-1
 81 676 l 1,15,-1
 81 760 l 1,16,-1
 441 760 l 1,17,-1
 441 682 l 1,18,-1
 412 682 l 2,19,20
 356 682 356 682 304.5 666 c 128,-1,21
 253 650 253 650 220.5 618 c 128,-1,22
 188 586 188 586 188 537 c 0,23,24
 188 489 188 489 222.5 463 c 128,-1,25
 257 437 257 437 343 437 c 2,26,-1
 425 437 l 1,27,-1
 425 360 l 1,28,-1
 340 360 l 2,29,30
 251 360 251 360 206 319.5 c 128,-1,31
 161 279 161 279 161 216 c 0,32,33
 161 168 161 168 181 143 c 128,-1,34
 201 118 201 118 237.5 106 c 128,-1,35
 274 94 274 94 324 84 c 0,36,37
 404 68 404 68 436 38 c 128,-1,38
 468 8 468 8 468 -34 c 0,39,40
 468 -78 468 -78 448 -119 c 128,-1,41
 428 -160 428 -160 406 -192 c 1,42,-1
 303 -192 l 1,43,44
 328 -158 328 -158 347 -120.5 c 128,-1,45
 366 -83 366 -83 366 -56 c 0,46,47
 366 -44 366 -44 358.5 -33.5 c 128,-1,48
 351 -23 351 -23 327 -13.5 c 128,-1,49
 303 -4 303 -4 254 5 c 0,50,51
 155 22 155 22 103 71.5 c 128,-1,52
 51 121 51 121 51 208 c 0,0,1
EndSplineSet
EndChar

StartChar: pi
Encoding: 960 960 396
Width: 683
GlyphClass: 2
Flags: W
AnchorPoint: "Anchor-2" 342 539 basechar 0
AnchorPoint: "Anchor-0" 342 0 basechar 0
LayerCount: 2
Fore
SplineSet
588 75 m 0,0,1
 602 75 602 75 615 78.5 c 128,-1,2
 628 82 628 82 637 87 c 1,3,-1
 637 7 l 1,4,5
 626 1 626 1 605 -4.5 c 128,-1,6
 584 -10 584 -10 559 -10 c 0,7,8
 500 -10 500 -10 468 23.5 c 128,-1,9
 436 57 436 57 436 127 c 2,10,-1
 436 454 l 1,11,-1
 228 454 l 1,12,-1
 228 0 l 1,13,-1
 122 0 l 1,14,-1
 122 454 l 1,15,-1
 12 454 l 1,16,-1
 12 500 l 1,17,-1
 88 539 l 1,18,-1
 650 539 l 1,19,-1
 650 454 l 1,20,-1
 542 454 l 1,21,-1
 542 133 l 2,22,23
 542 102 542 102 555 88.5 c 128,-1,24
 568 75 568 75 588 75 c 0,0,1
EndSplineSet
EndChar

StartChar: rho
Encoding: 961 961 397
Width: 609
GlyphClass: 2
Flags: W
AnchorPoint: "Anchor-2" 305 539 basechar 0
AnchorPoint: "Anchor-0" 305 -240 basechar 0
LayerCount: 2
Fore
SplineSet
557 269 m 0,0,1
 557 133 557 133 494 61.5 c 128,-1,2
 431 -10 431 -10 323 -10 c 0,3,4
 283 -10 283 -10 245.5 1.5 c 128,-1,5
 208 13 208 13 180 33 c 1,6,-1
 174 33 l 1,7,8
 176 21 176 21 178 -17 c 128,-1,9
 180 -55 180 -55 180 -99 c 2,10,-1
 180 -240 l 1,11,-1
 73 -240 l 1,12,-1
 73 275 l 2,13,14
 73 411 73 411 139 480 c 128,-1,15
 205 549 205 549 318 549 c 0,16,17
 388 549 388 549 442 516.5 c 128,-1,18
 496 484 496 484 526.5 421.5 c 128,-1,19
 557 359 557 359 557 269 c 0,0,1
315 461 m 0,20,21
 247 461 247 461 213.5 415.5 c 128,-1,22
 180 370 180 370 180 276 c 2,23,-1
 180 124 l 1,24,25
 206 100 206 100 241 88.5 c 128,-1,26
 276 77 276 77 313 77 c 0,27,28
 385 77 385 77 416.5 124.5 c 128,-1,29
 448 172 448 172 448 269 c 0,30,31
 448 367 448 367 417 414 c 128,-1,32
 386 461 386 461 315 461 c 0,20,21
EndSplineSet
EndChar

StartChar: sigma1
Encoding: 962 962 398
Width: 488
GlyphClass: 2
Flags: W
AnchorPoint: "Anchor-2" 244 539 basechar 0
AnchorPoint: "Anchor-0" 244 -192 basechar 0
LayerCount: 2
Fore
SplineSet
314 549 m 0,0,1
 356 549 356 549 396 540 c 128,-1,2
 436 531 436 531 468 517 c 1,3,-1
 436 432 l 1,4,5
 406 443 406 443 374.5 451 c 128,-1,6
 343 459 343 459 310 459 c 0,7,8
 231 459 231 459 196 406.5 c 128,-1,9
 161 354 161 354 161 251 c 0,10,11
 161 196 161 196 176 165 c 128,-1,12
 191 134 191 134 226.5 117.5 c 128,-1,13
 262 101 262 101 324 88 c 0,14,15
 404 71 404 71 436 41.5 c 128,-1,16
 468 12 468 12 468 -31 c 0,17,18
 468 -76 468 -76 448 -118 c 128,-1,19
 428 -160 428 -160 406 -192 c 1,20,-1
 303 -192 l 1,21,22
 328 -158 328 -158 347 -119.5 c 128,-1,23
 366 -81 366 -81 366 -53 c 0,24,25
 366 -40 366 -40 358.5 -30 c 128,-1,26
 351 -20 351 -20 327 -10 c 128,-1,27
 303 0 303 0 254 9 c 0,28,29
 196 20 196 20 150 47 c 128,-1,30
 104 74 104 74 78 123 c 128,-1,31
 52 172 52 172 52 249 c 0,32,33
 52 356 52 356 85 422 c 128,-1,34
 118 488 118 488 177 518.5 c 128,-1,35
 236 549 236 549 314 549 c 0,0,1
EndSplineSet
EndChar

StartChar: sigma
Encoding: 963 963 399
Width: 628
GlyphClass: 2
Flags: W
AnchorPoint: "Anchor-2" 314 539 basechar 0
AnchorPoint: "Anchor-0" 314 0 basechar 0
LayerCount: 2
Fore
SplineSet
559 242 m 0,0,1
 559 170 559 170 530.5 113 c 128,-1,2
 502 56 502 56 445 23 c 128,-1,3
 388 -10 388 -10 304 -10 c 0,4,5
 191 -10 191 -10 121.5 59 c 128,-1,6
 52 128 52 128 52 259 c 0,7,8
 52 360 52 360 88 421.5 c 128,-1,9
 124 483 124 483 190.5 511 c 128,-1,10
 257 539 257 539 348 539 c 2,11,-1
 605 539 l 1,12,-1
 605 456 l 1,13,-1
 472 456 l 1,14,15
 510 418 510 418 534.5 365 c 128,-1,16
 559 312 559 312 559 242 c 0,0,1
161 259 m 0,17,18
 161 179 161 179 195.5 128 c 128,-1,19
 230 77 230 77 306 77 c 256,20,21
 382 77 382 77 416.5 125 c 128,-1,22
 451 173 451 173 451 247 c 0,23,24
 451 310 451 310 431 362 c 128,-1,25
 411 414 411 414 374 456 c 1,26,-1
 345 456 l 2,27,28
 252 456 252 456 206.5 411.5 c 128,-1,29
 161 367 161 367 161 259 c 0,17,18
EndSplineSet
EndChar

StartChar: tau
Encoding: 964 964 400
Width: 496
GlyphClass: 2
Flags: W
AnchorPoint: "Anchor-2" 249 539 basechar 0
AnchorPoint: "Anchor-0" 249 0 basechar 0
LayerCount: 2
Fore
SplineSet
466 539 m 1,0,-1
 466 454 l 1,1,-1
 262 454 l 1,2,-1
 262 166 l 2,3,4
 262 116 262 116 286 95 c 128,-1,5
 310 74 310 74 348 74 c 0,6,7
 371 74 371 74 394.5 78 c 128,-1,8
 418 82 418 82 436 87 c 1,9,-1
 436 8 l 1,10,11
 420 0 420 0 390.5 -5.5 c 128,-1,12
 361 -11 361 -11 329 -11 c 0,13,14
 282 -11 282 -11 242 3.5 c 128,-1,15
 202 18 202 18 178.5 55 c 128,-1,16
 155 92 155 92 155 160 c 2,17,-1
 155 454 l 1,18,-1
 13 454 l 1,19,-1
 13 500 l 1,20,-1
 90 539 l 1,21,-1
 466 539 l 1,0,-1
EndSplineSet
EndChar

StartChar: upsilon
Encoding: 965 965 401
Width: 622
GlyphClass: 2
Flags: W
AnchorPoint: "Anchor-2" 310 539 basechar 0
AnchorPoint: "Anchor-0" 312 0 basechar 0
LayerCount: 2
Fore
SplineSet
311 -10 m 0,0,1
 220 -10 220 -10 168.5 24 c 128,-1,2
 117 58 117 58 96.5 115.5 c 128,-1,3
 76 173 76 173 76 245 c 2,4,-1
 76 539 l 1,5,-1
 182 539 l 1,6,-1
 182 245 l 2,7,8
 182 164 182 164 214.5 120 c 128,-1,9
 247 76 247 76 318 76 c 0,10,11
 391 76 391 76 426.5 129 c 128,-1,12
 462 182 462 182 462 297 c 0,13,14
 462 365 462 365 453.5 421.5 c 128,-1,15
 445 478 445 478 430 539 c 1,16,-1
 536 539 l 1,17,18
 552 478 552 478 560.5 422 c 128,-1,19
 569 366 569 366 569 293 c 0,20,21
 569 137 569 137 503.5 63.5 c 128,-1,22
 438 -10 438 -10 311 -10 c 0,0,1
EndSplineSet
EndChar

StartChar: phi
Encoding: 966 966 402
Width: 745
GlyphClass: 2
Flags: W
AnchorPoint: "Anchor-2" 373 539 basechar 0
AnchorPoint: "Anchor-0" 373 -240 basechar 0
LayerCount: 2
Fore
SplineSet
157 546 m 1,0,-1
 237 492 l 1,1,2
 200 442 200 442 177.5 389 c 128,-1,3
 155 336 155 336 155 268 c 0,4,5
 155 201 155 201 177 160.5 c 128,-1,6
 199 120 199 120 235.5 100.5 c 128,-1,7
 272 81 272 81 315 76 c 1,8,-1
 315 360 l 2,9,10
 315 452 315 452 361 500 c 128,-1,11
 407 548 407 548 484 548 c 0,12,13
 548 548 548 548 595 515 c 128,-1,14
 642 482 642 482 667.5 422.5 c 128,-1,15
 693 363 693 363 693 283 c 0,16,17
 693 187 693 187 654 124.5 c 128,-1,18
 615 62 615 62 552 29.5 c 128,-1,19
 489 -3 489 -3 416 -8 c 1,20,-1
 416 -240 l 1,21,-1
 315 -240 l 1,22,-1
 315 -8 l 1,23,24
 240 -2 240 -2 180.5 27 c 128,-1,25
 121 56 121 56 86.5 115.5 c 128,-1,26
 52 175 52 175 52 271 c 0,27,28
 52 353 52 353 81.5 421.5 c 128,-1,29
 111 490 111 490 157 546 c 1,0,-1
485 465 m 0,30,31
 456 465 456 465 436 442.5 c 128,-1,32
 416 420 416 420 416 361 c 2,33,-1
 416 76 l 1,34,35
 490 83 490 83 539 134.5 c 128,-1,36
 588 186 588 186 588 282 c 0,37,38
 588 368 588 368 560.5 416.5 c 128,-1,39
 533 465 533 465 485 465 c 0,30,31
EndSplineSet
EndChar

StartChar: chi
Encoding: 967 967 403
Width: 563
GlyphClass: 2
Flags: W
AnchorPoint: "Anchor-3" 543 539 basechar 0
AnchorPoint: "Anchor-2" 282 539 basechar 0
AnchorPoint: "Anchor-0" 282 -240 basechar 0
LayerCount: 2
Fore
SplineSet
98 543 m 0,0,1
 136 543 136 543 159 528.5 c 128,-1,2
 182 514 182 514 198 486 c 128,-1,3
 214 458 214 458 229 416 c 2,4,-1
 288 263 l 1,5,-1
 436 539 l 1,6,-1
 547 539 l 1,7,-1
 333 164 l 1,8,-1
 427 -71 l 2,9,10
 444 -113 444 -113 462 -132.5 c 128,-1,11
 480 -152 480 -152 514 -152 c 0,12,13
 527 -152 527 -152 538.5 -151 c 128,-1,14
 550 -150 550 -150 561 -148 c 1,15,-1
 561 -230 l 1,16,17
 547 -234 547 -234 530 -237 c 128,-1,18
 513 -240 513 -240 489 -240 c 0,19,20
 422 -240 422 -240 388.5 -204 c 128,-1,21
 355 -168 355 -168 331 -102 c 2,22,-1
 266 76 l 1,23,-1
 98 -240 l 1,24,-1
 -15 -240 l 1,25,-1
 218 176 l 1,26,-1
 141 377 l 2,27,28
 127 417 127 417 109.5 436.5 c 128,-1,29
 92 456 92 456 67 456 c 0,30,31
 58 456 58 456 47.5 454.5 c 128,-1,32
 37 453 37 453 27 449 c 1,33,-1
 27 533 l 1,34,35
 41 537 41 537 58.5 540 c 128,-1,36
 76 543 76 543 98 543 c 0,0,1
EndSplineSet
EndChar

StartChar: psi
Encoding: 968 968 404
Width: 783
GlyphClass: 2
Flags: W
AnchorPoint: "Anchor-2" 392 759 basechar 0
AnchorPoint: "Anchor-0" 392 -240 basechar 0
LayerCount: 2
Fore
SplineSet
445 759 m 1,0,-1
 445 77 l 1,1,2
 528 84 528 84 576 131 c 128,-1,3
 624 178 624 178 624 281 c 0,4,5
 624 348 624 348 615 408.5 c 128,-1,6
 606 469 606 469 590 539 c 1,7,-1
 692 539 l 1,8,9
 708 471 708 471 716.5 409.5 c 128,-1,10
 725 348 725 348 725 282 c 0,11,12
 725 180 725 180 687.5 117.5 c 128,-1,13
 650 55 650 55 586 25.5 c 128,-1,14
 522 -4 522 -4 445 -9 c 1,15,-1
 445 -240 l 1,16,-1
 344 -240 l 1,17,-1
 344 -9 l 1,18,19
 266 -6 266 -6 205.5 22 c 128,-1,20
 145 50 145 50 110.5 110 c 128,-1,21
 76 170 76 170 76 270 c 2,22,-1
 76 539 l 1,23,-1
 180 539 l 1,24,-1
 180 267 l 2,25,26
 180 197 180 197 201 156.5 c 128,-1,27
 222 116 222 116 259 98 c 128,-1,28
 296 80 296 80 344 76 c 1,29,-1
 344 759 l 1,30,-1
 445 759 l 1,0,-1
EndSplineSet
EndChar

StartChar: omega
Encoding: 969 969 405
Width: 806
GlyphClass: 2
Flags: W
AnchorPoint: "Anchor-2" 403 539 basechar 0
AnchorPoint: "Anchor-0" 403 0 basechar 0
LayerCount: 2
Fore
SplineSet
693 539 m 1,0,1
 723 468 723 468 737 404 c 128,-1,2
 751 340 751 340 751 261 c 0,3,4
 751 180 751 180 728.5 119 c 128,-1,5
 706 58 706 58 661 24 c 128,-1,6
 616 -10 616 -10 551 -10 c 0,7,8
 493 -10 493 -10 457.5 14.5 c 128,-1,9
 422 39 422 39 405 84 c 1,10,-1
 400 84 l 1,11,12
 384 39 384 39 348.5 14.5 c 128,-1,13
 313 -10 313 -10 255 -10 c 0,14,15
 190 -10 190 -10 145 24 c 128,-1,16
 100 58 100 58 77.5 119 c 128,-1,17
 55 180 55 180 55 261 c 0,18,19
 55 340 55 340 69 404 c 128,-1,20
 83 468 83 468 113 539 c 1,21,-1
 219 539 l 1,22,23
 188 470 188 470 173 405 c 128,-1,24
 158 340 158 340 158 262 c 0,25,26
 158 173 158 173 185 124.5 c 128,-1,27
 212 76 212 76 262 76 c 0,28,29
 311 76 311 76 332 111 c 128,-1,30
 353 146 353 146 353 203 c 2,31,-1
 353 352 l 1,32,-1
 453 352 l 1,33,-1
 453 203 l 2,34,35
 453 142 453 142 475.5 109 c 128,-1,36
 498 76 498 76 543 76 c 0,37,38
 593 76 593 76 620.5 124.5 c 128,-1,39
 648 173 648 173 648 262 c 0,40,41
 648 339 648 339 633 404.5 c 128,-1,42
 618 470 618 470 587 539 c 1,43,-1
 693 539 l 1,0,1
EndSplineSet
EndChar

StartChar: afii10051
Encoding: 1026 1026 412
Width: 760
GlyphClass: 2
Flags: W
AnchorPoint: "Anchor-2" 380 714 basechar 0
AnchorPoint: "Anchor-0" 380 0 basechar 0
LayerCount: 2
Fore
SplineSet
504 -10 m 0,0,1
 480 -10 480 -10 458.5 -6 c 128,-1,2
 437 -2 437 -2 422 4 c 1,3,-1
 422 96 l 1,4,5
 455 83 455 83 497 83 c 0,6,7
 518 83 518 83 538 90.5 c 128,-1,8
 558 98 558 98 571 119 c 128,-1,9
 584 140 584 140 584 183 c 2,10,-1
 584 247 l 2,11,12
 584 300 584 300 557.5 325 c 128,-1,13
 531 350 531 350 468 350 c 2,14,-1
 290 350 l 1,15,-1
 290 0 l 1,16,-1
 183 0 l 1,17,-1
 183 621 l 1,18,-1
 13 621 l 1,19,-1
 13 714 l 1,20,-1
 506 714 l 1,21,-1
 506 621 l 1,22,-1
 290 621 l 1,23,-1
 290 443 l 1,24,-1
 475 443 l 2,25,26
 579 443 579 443 635 395 c 128,-1,27
 691 347 691 347 691 258 c 2,28,-1
 691 191 l 2,29,30
 691 90 691 90 640.5 40 c 128,-1,31
 590 -10 590 -10 504 -10 c 0,0,1
EndSplineSet
EndChar

StartChar: afii10053
Encoding: 1028 1028 414
Width: 653
GlyphClass: 2
Flags: W
AnchorPoint: "Anchor-2" 327 714 basechar 0
AnchorPoint: "Anchor-0" 327 0 basechar 0
LayerCount: 2
Fore
SplineSet
408 631 m 0,0,1
 310 631 310 631 248 576 c 128,-1,2
 186 521 186 521 176 414 c 1,3,-1
 512 414 l 1,4,-1
 512 323 l 1,5,-1
 174 323 l 1,6,7
 179 208 179 208 237.5 145.5 c 128,-1,8
 296 83 296 83 409 83 c 0,9,10
 457 83 457 83 502.5 91.5 c 128,-1,11
 548 100 548 100 595 114 c 1,12,-1
 595 21 l 1,13,14
 551 5 551 5 503.5 -2.5 c 128,-1,15
 456 -10 456 -10 398 -10 c 0,16,17
 281 -10 281 -10 206.5 36 c 128,-1,18
 132 82 132 82 96 164.5 c 128,-1,19
 60 247 60 247 60 357 c 0,20,21
 60 466 60 466 100.5 549 c 128,-1,22
 141 632 141 632 219.5 678.5 c 128,-1,23
 298 725 298 725 412 725 c 0,24,25
 476 725 476 725 527 712.5 c 128,-1,26
 578 700 578 700 622 679 c 1,27,-1
 580 588 l 1,28,29
 542 606 542 606 500.5 618.5 c 128,-1,30
 459 631 459 631 408 631 c 0,0,1
EndSplineSet
EndChar

StartChar: afii10058
Encoding: 1033 1033 419
Width: 955
GlyphClass: 2
Flags: W
AnchorPoint: "Anchor-2" 477 714 basechar 0
AnchorPoint: "Anchor-0" 477 0 basechar 0
LayerCount: 2
Fore
SplineSet
70 -11 m 0,0,1
 52 -11 52 -11 34.5 -7.5 c 128,-1,2
 17 -4 17 -4 3 1 c 1,3,-1
 3 90 l 1,4,5
 15 86 15 86 28.5 82.5 c 128,-1,6
 42 79 42 79 57 79 c 0,7,8
 84 79 84 79 100 99.5 c 128,-1,9
 116 120 116 120 126 155 c 128,-1,10
 136 190 136 190 145 234 c 0,11,12
 152 272 152 272 163.5 343.5 c 128,-1,13
 175 415 175 415 188.5 510.5 c 128,-1,14
 202 606 202 606 216 714 c 1,15,-1
 579 714 l 1,16,-1
 579 420 l 1,17,-1
 637 420 l 2,18,19
 739 420 739 420 800 393 c 128,-1,20
 861 366 861 366 888 319 c 128,-1,21
 915 272 915 272 915 213 c 0,22,23
 915 116 915 116 850 58 c 128,-1,24
 785 0 785 0 645 0 c 2,25,-1
 471 0 l 1,26,-1
 471 621 l 1,27,-1
 306 621 l 1,28,29
 297 551 297 551 286.5 471.5 c 128,-1,30
 276 392 276 392 265 319 c 128,-1,31
 254 246 254 246 243 194 c 0,32,33
 230 128 230 128 210 82 c 128,-1,34
 190 36 190 36 157 12.5 c 128,-1,35
 124 -11 124 -11 70 -11 c 0,0,1
579 91 m 1,36,-1
 637 91 l 2,37,38
 721 91 721 91 762.5 120.5 c 128,-1,39
 804 150 804 150 804 213 c 0,40,41
 804 278 804 278 758.5 303.5 c 128,-1,42
 713 329 713 329 623 329 c 2,43,-1
 579 329 l 1,44,-1
 579 91 l 1,36,-1
EndSplineSet
EndChar

StartChar: afii10059
Encoding: 1034 1034 420
Width: 971
GlyphClass: 2
Flags: W
AnchorPoint: "Anchor-2" 485 714 basechar 0
AnchorPoint: "Anchor-0" 485 0 basechar 0
LayerCount: 2
Fore
SplineSet
95 0 m 1,0,-1
 95 714 l 1,1,-1
 203 714 l 1,2,-1
 203 418 l 1,3,-1
 487 418 l 1,4,-1
 487 714 l 1,5,-1
 596 714 l 1,6,-1
 596 420 l 1,7,-1
 654 420 l 2,8,9
 756 420 756 420 817 393 c 128,-1,10
 878 366 878 366 904.5 319 c 128,-1,11
 931 272 931 272 931 213 c 0,12,13
 931 116 931 116 866.5 58 c 128,-1,14
 802 0 802 0 662 0 c 2,15,-1
 487 0 l 1,16,-1
 487 326 l 1,17,-1
 203 326 l 1,18,-1
 203 0 l 1,19,-1
 95 0 l 1,0,-1
596 91 m 1,20,-1
 654 91 l 2,21,22
 737 91 737 91 778.5 120.5 c 128,-1,23
 820 150 820 150 820 213 c 0,24,25
 820 278 820 278 775 303.5 c 128,-1,26
 730 329 730 329 640 329 c 2,27,-1
 596 329 l 1,28,-1
 596 91 l 1,20,-1
EndSplineSet
EndChar

StartChar: afii10060
Encoding: 1035 1035 421
Width: 760
GlyphClass: 2
Flags: W
AnchorPoint: "Anchor-2" 380 714 basechar 0
AnchorPoint: "Anchor-0" 380 0 basechar 0
LayerCount: 2
Fore
SplineSet
526 714 m 1,0,-1
 526 620 l 1,1,-1
 290 620 l 1,2,-1
 290 442 l 1,3,-1
 482 442 l 2,4,5
 582 442 582 442 636.5 394.5 c 128,-1,6
 691 347 691 347 691 258 c 2,7,-1
 691 0 l 1,8,-1
 583 0 l 1,9,-1
 583 247 l 2,10,11
 583 300 583 300 558.5 324.5 c 128,-1,12
 534 349 534 349 475 349 c 2,13,-1
 290 349 l 1,14,-1
 290 0 l 1,15,-1
 182 0 l 1,16,-1
 182 620 l 1,17,-1
 13 620 l 1,18,-1
 13 714 l 1,19,-1
 526 714 l 1,0,-1
EndSplineSet
EndChar

StartChar: afii10145
Encoding: 1039 1039 424
Width: 735
GlyphClass: 2
Flags: W
AnchorPoint: "Anchor-2" 368 714 basechar 0
AnchorPoint: "Anchor-0" 368 -194 basechar 0
LayerCount: 2
Fore
SplineSet
639 0 m 1,0,-1
 419 0 l 1,1,-1
 419 -194 l 1,2,-1
 311 -194 l 1,3,-1
 311 0 l 1,4,-1
 95 0 l 1,5,-1
 95 714 l 1,6,-1
 203 714 l 1,7,-1
 203 94 l 1,8,-1
 532 94 l 1,9,-1
 532 714 l 1,10,-1
 639 714 l 1,11,-1
 639 0 l 1,0,-1
EndSplineSet
EndChar

StartChar: afii10018
Encoding: 1041 1041 426
Width: 622
GlyphClass: 2
Flags: W
AnchorPoint: "Anchor-2" 311 714 basechar 0
AnchorPoint: "Anchor-0" 311 0 basechar 0
LayerCount: 2
Fore
SplineSet
95 0 m 1,0,-1
 95 714 l 1,1,-1
 527 714 l 1,2,-1
 527 621 l 1,3,-1
 203 621 l 1,4,-1
 203 420 l 1,5,-1
 295 420 l 2,6,7
 400 420 400 420 461 393 c 128,-1,8
 522 366 522 366 547.5 319.5 c 128,-1,9
 573 273 573 273 573 213 c 0,10,11
 573 112 573 112 510 56 c 128,-1,12
 447 0 447 0 304 0 c 2,13,-1
 95 0 l 1,0,-1
203 91 m 1,14,-1
 296 91 l 2,15,16
 384 91 384 91 423 120.5 c 128,-1,17
 462 150 462 150 462 213 c 0,18,19
 462 278 462 278 419 303.5 c 128,-1,20
 376 329 376 329 281 329 c 2,21,-1
 203 329 l 1,22,-1
 203 91 l 1,14,-1
EndSplineSet
EndChar

StartChar: afii10021
Encoding: 1044 1044 429
Width: 713
GlyphClass: 2
Flags: W
AnchorPoint: "Anchor-2" 357 714 basechar 0
AnchorPoint: "Anchor-0" 357 -194 basechar 0
LayerCount: 2
Fore
SplineSet
599 714 m 1,0,-1
 599 94 l 1,1,-1
 691 94 l 1,2,-1
 691 -194 l 1,3,-1
 587 -194 l 1,4,-1
 587 0 l 1,5,-1
 109 0 l 1,6,-1
 109 -194 l 1,7,-1
 6 -194 l 1,8,-1
 6 94 l 1,9,-1
 61 94 l 1,10,11
 106 174 106 174 144 275.5 c 128,-1,12
 182 377 182 377 208.5 489 c 128,-1,13
 235 601 235 601 244 714 c 1,14,-1
 599 714 l 1,0,-1
492 620 m 1,15,-1
 335 620 l 1,16,17
 330 563 330 563 315.5 494.5 c 128,-1,18
 301 426 301 426 279 354.5 c 128,-1,19
 257 283 257 283 230.5 215.5 c 128,-1,20
 204 148 204 148 175 94 c 1,21,-1
 492 94 l 1,22,-1
 492 620 l 1,15,-1
EndSplineSet
EndChar

StartChar: afii10024
Encoding: 1046 1046 431
Width: 880
GlyphClass: 2
Flags: W
AnchorPoint: "Anchor-2" 441 714 basechar 0
AnchorPoint: "Anchor-0" 440 0 basechar 0
LayerCount: 2
Fore
SplineSet
278 368 m 1,0,-1
 12 714 l 1,1,-1
 128 714 l 1,2,-1
 389 368 l 1,3,-1
 389 714 l 1,4,-1
 491 714 l 1,5,-1
 491 368 l 1,6,-1
 752 714 l 1,7,-1
 868 714 l 1,8,-1
 602 369 l 1,9,-1
 879 0 l 1,10,-1
 758 0 l 1,11,-1
 491 362 l 1,12,-1
 491 0 l 1,13,-1
 389 0 l 1,14,-1
 389 362 l 1,15,-1
 121 0 l 1,16,-1
 1 0 l 1,17,-1
 278 368 l 1,0,-1
EndSplineSet
EndChar

StartChar: afii10025
Encoding: 1047 1047 432
Width: 606
GlyphClass: 2
Flags: W
AnchorPoint: "Anchor-2" 298 714 basechar 0
AnchorPoint: "Anchor-0" 303 0 basechar 0
LayerCount: 2
Fore
SplineSet
538 547 m 0,0,1
 538 474 538 474 490.5 431 c 128,-1,2
 443 388 443 388 365 377 c 1,3,-1
 365 373 l 1,4,5
 457 362 457 362 506 317.5 c 128,-1,6
 555 273 555 273 555 202 c 0,7,8
 555 108 555 108 481.5 49 c 128,-1,9
 408 -10 408 -10 263 -10 c 0,10,11
 198 -10 198 -10 142.5 -1 c 128,-1,12
 87 8 87 8 42 29 c 1,13,-1
 42 124 l 1,14,15
 88 102 88 102 146 89.5 c 128,-1,16
 204 77 204 77 254 77 c 0,17,18
 349 77 349 77 396.5 110.5 c 128,-1,19
 444 144 444 144 444 206 c 256,20,21
 444 268 444 268 385 297 c 128,-1,22
 326 326 326 326 222 326 c 2,23,-1
 130 326 l 1,24,-1
 130 414 l 1,25,-1
 216 414 l 2,26,27
 328 414 328 414 378.5 446 c 128,-1,28
 429 478 429 478 429 534 c 0,29,30
 429 583 429 583 391 609.5 c 128,-1,31
 353 636 353 636 289 636 c 256,32,33
 225 636 225 636 179.5 619.5 c 128,-1,34
 134 603 134 603 92 576 c 1,35,-1
 42 649 l 1,36,37
 88 681 88 681 151 702.5 c 128,-1,38
 214 724 214 724 296 724 c 0,39,40
 413 724 413 724 475.5 674 c 128,-1,41
 538 624 538 624 538 547 c 0,0,1
EndSplineSet
EndChar

StartChar: afii10026
Encoding: 1048 1048 433
Width: 784
GlyphClass: 2
Flags: W
AnchorPoint: "Anchor-2" 404 714 basechar 0
AnchorPoint: "Anchor-0" 392 0 basechar 0
LayerCount: 2
Fore
SplineSet
96 714 m 1,0,-1
 195 714 l 1,1,-1
 195 336 l 2,2,3
 195 302 195 302 194 261 c 128,-1,4
 193 220 193 220 191.5 185.5 c 128,-1,5
 190 151 190 151 188 137 c 1,6,-1
 192 137 l 1,7,-1
 566 714 l 1,8,-1
 690 714 l 1,9,-1
 690 0 l 1,10,-1
 591 0 l 1,11,-1
 591 375 l 2,12,13
 591 412 591 412 592.5 454.5 c 128,-1,14
 594 497 594 497 596 531.5 c 128,-1,15
 598 566 598 566 599 580 c 1,16,-1
 595 580 l 1,17,-1
 220 0 l 1,18,-1
 96 0 l 1,19,-1
 96 714 l 1,0,-1
EndSplineSet
EndChar

StartChar: afii10028
Encoding: 1050 1050 435
Width: 634
GlyphClass: 2
Flags: W
AnchorPoint: "Anchor-2" 345 714 basechar 0
AnchorPoint: "Anchor-0" 317 0 basechar 0
LayerCount: 2
Fore
SplineSet
634 0 m 1,0,-1
 507 0 l 1,1,-1
 203 362 l 1,2,-1
 203 0 l 1,3,-1
 95 0 l 1,4,-1
 95 714 l 1,5,-1
 203 714 l 1,6,-1
 203 368 l 1,7,-1
 501 714 l 1,8,-1
 620 714 l 1,9,-1
 325 368 l 1,10,-1
 634 0 l 1,0,-1
EndSplineSet
EndChar

StartChar: afii10029
Encoding: 1051 1051 436
Width: 719
GlyphClass: 2
Flags: W
AnchorPoint: "Anchor-2" 360 714 basechar 0
AnchorPoint: "Anchor-0" 360 0 basechar 0
LayerCount: 2
Fore
SplineSet
624 0 m 1,0,-1
 516 0 l 1,1,-1
 516 621 l 1,2,-1
 305 621 l 1,3,4
 296 551 296 551 285.5 471.5 c 128,-1,5
 275 392 275 392 264.5 319 c 128,-1,6
 254 246 254 246 243 194 c 0,7,8
 230 128 230 128 210 82 c 128,-1,9
 190 36 190 36 157 12.5 c 128,-1,10
 124 -11 124 -11 70 -11 c 0,11,12
 52 -11 52 -11 34 -7.5 c 128,-1,13
 16 -4 16 -4 3 1 c 1,14,-1
 3 90 l 1,15,16
 15 86 15 86 28.5 82.5 c 128,-1,17
 42 79 42 79 57 79 c 0,18,19
 84 79 84 79 100 100 c 128,-1,20
 116 121 116 121 126 156 c 128,-1,21
 136 191 136 191 145 233 c 0,22,23
 152 270 152 270 163.5 342 c 128,-1,24
 175 414 175 414 188.5 510 c 128,-1,25
 202 606 202 606 215 714 c 1,26,-1
 624 714 l 1,27,-1
 624 0 l 1,0,-1
EndSplineSet
EndChar

StartChar: afii10037
Encoding: 1059 1059 444
Width: 636
GlyphClass: 2
Flags: W
AnchorPoint: "Anchor-2" 330 714 basechar 0
AnchorPoint: "Anchor-0" 318 0 basechar 0
LayerCount: 2
Fore
SplineSet
636 714 m 1,0,-1
 410 205 l 2,1,2
 378 134 378 134 345.5 86.5 c 128,-1,3
 313 39 313 39 266.5 14.5 c 128,-1,4
 220 -10 220 -10 147 -10 c 0,5,6
 120 -10 120 -10 93.5 -6 c 128,-1,7
 67 -2 67 -2 45 5 c 1,8,-1
 45 106 l 1,9,10
 89 87 89 87 141 87 c 0,11,12
 194 87 194 87 224 111 c 128,-1,13
 254 135 254 135 277 188 c 1,14,-1
 11 714 l 1,15,-1
 128 714 l 1,16,-1
 307 346 l 2,17,18
 313 334 313 334 321.5 315 c 128,-1,19
 330 296 330 296 335 281 c 1,20,-1
 339 281 l 1,21,22
 344 294 344 294 351.5 313 c 128,-1,23
 359 332 359 332 365 346 c 2,24,-1
 523 714 l 1,25,-1
 636 714 l 1,0,-1
EndSplineSet
EndChar

StartChar: afii10040
Encoding: 1062 1062 447
Width: 753
GlyphClass: 2
Flags: W
AnchorPoint: "Anchor-2" 377 714 basechar 0
AnchorPoint: "Anchor-0" 377 -194 basechar 0
LayerCount: 2
Fore
SplineSet
732 91 m 1,0,-1
 732 -194 l 1,1,-1
 628 -194 l 1,2,-1
 628 0 l 1,3,-1
 95 0 l 1,4,-1
 95 714 l 1,5,-1
 203 714 l 1,6,-1
 203 94 l 1,7,-1
 532 94 l 1,8,-1
 532 714 l 1,9,-1
 639 714 l 1,10,-1
 639 91 l 1,11,-1
 732 91 l 1,0,-1
EndSplineSet
EndChar

StartChar: afii10041
Encoding: 1063 1063 448
Width: 707
GlyphClass: 2
Flags: W
AnchorPoint: "Anchor-2" 340 714 basechar 0
AnchorPoint: "Anchor-0" 353 0 basechar 0
LayerCount: 2
Fore
SplineSet
612 0 m 1,0,-1
 504 0 l 1,1,-1
 504 288 l 1,2,3
 445 267 445 267 393.5 255 c 128,-1,4
 342 243 342 243 283 243 c 0,5,6
 182 243 182 243 127 290.5 c 128,-1,7
 72 338 72 338 72 426 c 2,8,-1
 72 714 l 1,9,-1
 180 714 l 1,10,-1
 180 448 l 2,11,12
 180 392 180 392 208.5 364 c 128,-1,13
 237 336 237 336 302 336 c 0,14,15
 356 336 356 336 401.5 346 c 128,-1,16
 447 356 447 356 504 376 c 1,17,-1
 504 714 l 1,18,-1
 612 714 l 1,19,-1
 612 0 l 1,0,-1
EndSplineSet
EndChar

StartChar: afii10042
Encoding: 1064 1064 449
Width: 1049
GlyphClass: 2
Flags: W
AnchorPoint: "Anchor-2" 525 714 basechar 0
AnchorPoint: "Anchor-0" 525 0 basechar 0
LayerCount: 2
Fore
SplineSet
953 0 m 1,0,-1
 95 0 l 1,1,-1
 95 714 l 1,2,-1
 203 714 l 1,3,-1
 203 94 l 1,4,-1
 469 94 l 1,5,-1
 469 714 l 1,6,-1
 578 714 l 1,7,-1
 578 94 l 1,8,-1
 845 94 l 1,9,-1
 845 714 l 1,10,-1
 953 714 l 1,11,-1
 953 0 l 1,0,-1
EndSplineSet
EndChar

StartChar: afii10043
Encoding: 1065 1065 450
Width: 1063
GlyphClass: 2
Flags: W
AnchorPoint: "Anchor-2" 532 714 basechar 0
AnchorPoint: "Anchor-0" 532 0 basechar 0
LayerCount: 2
Fore
SplineSet
1035 91 m 1,0,-1
 1035 -194 l 1,1,-1
 932 -194 l 1,2,-1
 932 0 l 1,3,-1
 95 0 l 1,4,-1
 95 714 l 1,5,-1
 203 714 l 1,6,-1
 203 94 l 1,7,-1
 464 94 l 1,8,-1
 464 714 l 1,9,-1
 573 714 l 1,10,-1
 573 94 l 1,11,-1
 836 94 l 1,12,-1
 836 714 l 1,13,-1
 944 714 l 1,14,-1
 944 91 l 1,15,-1
 1035 91 l 1,0,-1
EndSplineSet
EndChar

StartChar: afii10044
Encoding: 1066 1066 451
Width: 702
GlyphClass: 2
Flags: W
AnchorPoint: "Anchor-2" 351 714 basechar 0
AnchorPoint: "Anchor-0" 351 0 basechar 0
LayerCount: 2
Fore
SplineSet
175 0 m 1,0,-1
 175 621 l 1,1,-1
 6 621 l 1,2,-1
 6 714 l 1,3,-1
 283 714 l 1,4,-1
 283 420 l 1,5,-1
 380 420 l 2,6,7
 480 420 480 420 540 392.5 c 128,-1,8
 600 365 600 365 626.5 318.5 c 128,-1,9
 653 272 653 272 653 213 c 0,10,11
 653 116 653 116 589.5 58 c 128,-1,12
 526 0 526 0 388 0 c 2,13,-1
 175 0 l 1,0,-1
283 91 m 1,14,-1
 380 91 l 2,15,16
 462 91 462 91 502 120.5 c 128,-1,17
 542 150 542 150 542 213 c 0,18,19
 542 278 542 278 498 303.5 c 128,-1,20
 454 329 454 329 366 329 c 2,21,-1
 283 329 l 1,22,-1
 283 91 l 1,14,-1
EndSplineSet
EndChar

StartChar: afii10045
Encoding: 1067 1067 452
Width: 872
GlyphClass: 2
Flags: W
AnchorPoint: "Anchor-2" 438 714 basechar 0
AnchorPoint: "Anchor-0" 436 0 basechar 0
LayerCount: 2
Fore
SplineSet
95 0 m 1,0,-1
 95 714 l 1,1,-1
 203 714 l 1,2,-1
 203 420 l 1,3,-1
 295 420 l 2,4,5
 394 420 394 420 453.5 392.5 c 128,-1,6
 513 365 513 365 539.5 318.5 c 128,-1,7
 566 272 566 272 566 213 c 0,8,9
 566 116 566 116 502.5 58 c 128,-1,10
 439 0 439 0 301 0 c 2,11,-1
 95 0 l 1,0,-1
669 0 m 1,12,-1
 669 714 l 1,13,-1
 777 714 l 1,14,-1
 777 0 l 1,15,-1
 669 0 l 1,12,-1
203 90 m 1,16,-1
 294 90 l 2,17,18
 455 90 455 90 455 213 c 0,19,20
 455 278 455 278 412 303 c 128,-1,21
 369 328 369 328 283 328 c 2,22,-1
 203 328 l 1,23,-1
 203 90 l 1,16,-1
EndSplineSet
EndChar

StartChar: afii10046
Encoding: 1068 1068 453
Width: 641
GlyphClass: 2
Flags: W
AnchorPoint: "Anchor-2" 320 714 basechar 0
AnchorPoint: "Anchor-0" 320 0 basechar 0
LayerCount: 2
Fore
SplineSet
95 0 m 1,0,-1
 95 714 l 1,1,-1
 203 714 l 1,2,-1
 203 420 l 1,3,-1
 315 420 l 2,4,5
 415 420 415 420 476 392.5 c 128,-1,6
 537 365 537 365 564.5 318.5 c 128,-1,7
 592 272 592 272 592 213 c 0,8,9
 592 116 592 116 526 58 c 128,-1,10
 460 0 460 0 322 0 c 2,11,-1
 95 0 l 1,0,-1
203 91 m 1,12,-1
 314 91 l 2,13,14
 396 91 396 91 438.5 120.5 c 128,-1,15
 481 150 481 150 481 213 c 0,16,17
 481 278 481 278 434.5 303.5 c 128,-1,18
 388 329 388 329 301 329 c 2,19,-1
 203 329 l 1,20,-1
 203 91 l 1,12,-1
EndSplineSet
EndChar

StartChar: afii10047
Encoding: 1069 1069 454
Width: 642
GlyphClass: 2
Flags: W
AnchorPoint: "Anchor-2" 247 714 basechar 0
AnchorPoint: "Anchor-0" 321 0 basechar 0
LayerCount: 2
Fore
SplineSet
243 631 m 0,0,1
 194 631 194 631 151 619 c 128,-1,2
 108 607 108 607 72 591 c 1,3,-1
 31 680 l 1,4,5
 76 701 76 701 130.5 712.5 c 128,-1,6
 185 724 185 724 245 724 c 0,7,8
 356 724 356 724 431 678.5 c 128,-1,9
 506 633 506 633 543.5 552.5 c 128,-1,10
 581 472 581 472 581 365 c 0,11,12
 581 251 581 251 543.5 166.5 c 128,-1,13
 506 82 506 82 429.5 36 c 128,-1,14
 353 -10 353 -10 236 -10 c 0,15,16
 174 -10 174 -10 129 -2.5 c 128,-1,17
 84 5 84 5 40 21 c 1,18,-1
 40 114 l 1,19,20
 86 100 86 100 130.5 91.5 c 128,-1,21
 175 83 175 83 223 83 c 0,22,23
 341 83 341 83 402 144.5 c 128,-1,24
 463 206 463 206 467 323 c 1,25,-1
 131 323 l 1,26,-1
 131 416 l 1,27,-1
 466 416 l 1,28,29
 458 517 458 517 398.5 574 c 128,-1,30
 339 631 339 631 243 631 c 0,0,1
EndSplineSet
EndChar

StartChar: afii10048
Encoding: 1070 1070 455
Width: 1057
GlyphClass: 2
Flags: W
AnchorPoint: "Anchor-2" 529 714 basechar 0
AnchorPoint: "Anchor-0" 529 0 basechar 0
LayerCount: 2
Fore
SplineSet
996 358 m 256,0,1
 996 247 996 247 961 164.5 c 128,-1,2
 926 82 926 82 856 36 c 128,-1,3
 786 -10 786 -10 681 -10 c 0,4,5
 580 -10 580 -10 511 31.5 c 128,-1,6
 442 73 442 73 405 148.5 c 128,-1,7
 368 224 368 224 362 326 c 1,8,-1
 203 326 l 1,9,-1
 203 0 l 1,10,-1
 95 0 l 1,11,-1
 95 714 l 1,12,-1
 203 714 l 1,13,-1
 203 418 l 1,14,-1
 365 418 l 1,15,16
 377 558 377 558 455 641.5 c 128,-1,17
 533 725 533 725 679 725 c 0,18,19
 784 725 784 725 854.5 679.5 c 128,-1,20
 925 634 925 634 960.5 551.5 c 128,-1,21
 996 469 996 469 996 358 c 256,0,1
474 358 m 256,22,23
 474 230 474 230 523.5 156 c 128,-1,24
 573 82 573 82 678 82 c 0,25,26
 786 82 786 82 835 156 c 128,-1,27
 884 230 884 230 884 358 c 256,28,29
 884 486 884 486 835.5 559 c 128,-1,30
 787 632 787 632 680 632 c 0,31,32
 574 632 574 632 524 559 c 128,-1,33
 474 486 474 486 474 358 c 256,22,23
EndSplineSet
EndChar

StartChar: afii10049
Encoding: 1071 1071 456
Width: 647
GlyphClass: 2
Flags: W
AnchorPoint: "Anchor-2" 324 714 basechar 0
AnchorPoint: "Anchor-0" 324 0 basechar 0
LayerCount: 2
Fore
SplineSet
317 290 m 1,0,-1
 138 0 l 1,1,-1
 14 0 l 1,2,-1
 215 313 l 1,3,4
 180 325 180 325 147.5 348 c 128,-1,5
 115 371 115 371 94.5 411 c 128,-1,6
 74 451 74 451 74 513 c 0,7,8
 74 610 74 610 142 662 c 128,-1,9
 210 714 210 714 342 714 c 2,10,-1
 552 714 l 1,11,-1
 552 0 l 1,12,-1
 444 0 l 1,13,-1
 444 290 l 1,14,-1
 317 290 l 1,0,-1
444 623 m 1,15,-1
 345 623 l 2,16,17
 268 623 268 623 226.5 595.5 c 128,-1,18
 185 568 185 568 185 507 c 256,19,20
 185 446 185 446 225 412.5 c 128,-1,21
 265 379 265 379 349 379 c 2,22,-1
 444 379 l 1,23,-1
 444 623 l 1,15,-1
EndSplineSet
EndChar

StartChar: afii10066
Encoding: 1073 1073 458
Width: 606
GlyphClass: 2
Flags: W
AnchorPoint: "Anchor-2" 303 765 basechar 0
AnchorPoint: "Anchor-0" 303 0 basechar 0
LayerCount: 2
Fore
SplineSet
53 323 m 0,0,1
 53 501 53 501 110.5 600 c 128,-1,2
 168 699 168 699 298 725 c 0,3,4
 360 737 360 737 420 747 c 128,-1,5
 480 757 480 757 535 765 c 1,6,-1
 550 672 l 1,7,8
 516 667 516 667 472.5 660.5 c 128,-1,9
 429 654 429 654 387.5 647 c 128,-1,10
 346 640 346 640 315 634 c 0,11,12
 270 625 270 625 237.5 601.5 c 128,-1,13
 205 578 205 578 187 533.5 c 128,-1,14
 169 489 169 489 166 416 c 1,15,-1
 172 416 l 1,16,17
 186 435 186 435 209.5 455 c 128,-1,18
 233 475 233 475 266.5 488.5 c 128,-1,19
 300 502 300 502 344 502 c 0,20,21
 446 502 446 502 500 437 c 128,-1,22
 554 372 554 372 554 262 c 0,23,24
 554 171 554 171 522.5 110.5 c 128,-1,25
 491 50 491 50 434.5 20 c 128,-1,26
 378 -10 378 -10 303 -10 c 0,27,28
 189 -10 189 -10 121 75.5 c 128,-1,29
 53 161 53 161 53 323 c 0,0,1
311 77 m 0,30,31
 370 77 370 77 407 116 c 128,-1,32
 444 155 444 155 444 251 c 0,33,34
 444 328 444 328 416 373 c 128,-1,35
 388 418 388 418 323 418 c 0,36,37
 282 418 282 418 249 399.5 c 128,-1,38
 216 381 216 381 193 357.5 c 128,-1,39
 170 334 170 334 162 319 c 1,40,41
 162 273 162 273 168.5 229.5 c 128,-1,42
 175 186 175 186 191.5 151.5 c 128,-1,43
 208 117 208 117 237 97 c 128,-1,44
 266 77 266 77 311 77 c 0,30,31
EndSplineSet
Substitution2: "'locl' Localized Forms in Cyrillic lookup 17 subtable" afii10066.loclSRB
EndChar

StartChar: afii10067
Encoding: 1074 1074 459
Width: 592
GlyphClass: 2
Flags: W
AnchorPoint: "Anchor-2" 296 539 basechar 0
AnchorPoint: "Anchor-0" 296 0 basechar 0
LayerCount: 2
Fore
SplineSet
530 402 m 0,0,1
 530 353 530 353 501 324.5 c 128,-1,2
 472 296 472 296 422 286 c 1,3,-1
 422 282 l 1,4,5
 474 275 474 275 510.5 245.5 c 128,-1,6
 547 216 547 216 547 159 c 0,7,8
 547 90 547 90 494.5 45 c 128,-1,9
 442 0 442 0 322 0 c 2,10,-1
 83 0 l 1,11,-1
 83 539 l 1,12,-1
 322 539 l 2,13,14
 381 539 381 539 428 526 c 128,-1,15
 475 513 475 513 502.5 483.5 c 128,-1,16
 530 454 530 454 530 402 c 0,0,1
422 390 m 0,17,18
 422 424 422 424 397 440.5 c 128,-1,19
 372 457 372 457 316 457 c 2,20,-1
 189 457 l 1,21,-1
 189 321 l 1,22,-1
 300 321 l 2,23,24
 422 321 422 321 422 390 c 0,17,18
437 161 m 0,25,26
 437 203 437 203 404.5 221.5 c 128,-1,27
 372 240 372 240 310 240 c 2,28,-1
 189 240 l 1,29,-1
 189 80 l 1,30,-1
 312 80 l 2,31,32
 371 80 371 80 404 98.5 c 128,-1,33
 437 117 437 117 437 161 c 0,25,26
EndSplineSet
EndChar

StartChar: afii10068
Encoding: 1075 1075 460
Width: 446
GlyphClass: 2
Flags: W
AnchorPoint: "Anchor-2" 256 539 basechar 0
AnchorPoint: "Anchor-0" 223 0 basechar 0
LayerCount: 2
Fore
SplineSet
425 539 m 1,0,-1
 425 454 l 1,1,-1
 189 454 l 1,2,-1
 189 0 l 1,3,-1
 83 0 l 1,4,-1
 83 539 l 1,5,-1
 425 539 l 1,0,-1
EndSplineSet
EndChar

StartChar: afii10069
Encoding: 1076 1076 461
Width: 605
GlyphClass: 2
Flags: W
AnchorPoint: "Anchor-2" 303 539 basechar 0
AnchorPoint: "Anchor-0" 303 -189 basechar 0
LayerCount: 2
Fore
SplineSet
508 539 m 1,0,-1
 508 84 l 1,1,-1
 587 84 l 1,2,-1
 587 -189 l 1,3,-1
 488 -189 l 1,4,-1
 488 0 l 1,5,-1
 116 0 l 1,6,-1
 116 -189 l 1,7,-1
 18 -189 l 1,8,-1
 18 84 l 1,9,-1
 61 84 l 1,10,11
 126 176 126 176 159 296 c 128,-1,12
 192 416 192 416 196 539 c 1,13,-1
 508 539 l 1,0,-1
404 457 m 1,14,-1
 288 457 l 1,15,16
 282 392 282 392 267 324 c 128,-1,17
 252 256 252 256 228 194 c 128,-1,18
 204 132 204 132 172 84 c 1,19,-1
 404 84 l 1,20,-1
 404 457 l 1,14,-1
EndSplineSet
EndChar

StartChar: afii10072
Encoding: 1078 1078 463
Width: 786
GlyphClass: 2
Flags: W
AnchorPoint: "Anchor-2" 391 539 basechar 0
AnchorPoint: "Anchor-0" 393 0 basechar 0
LayerCount: 2
Fore
SplineSet
765 539 m 1,0,-1
 550 278 l 1,1,-1
 784 0 l 1,2,-1
 667 0 l 1,3,-1
 442 273 l 1,4,-1
 442 0 l 1,5,-1
 343 0 l 1,6,-1
 343 273 l 1,7,-1
 118 0 l 1,8,-1
 1 0 l 1,9,-1
 235 278 l 1,10,-1
 20 539 l 1,11,-1
 133 539 l 1,12,-1
 343 277 l 1,13,-1
 343 539 l 1,14,-1
 442 539 l 1,15,-1
 442 277 l 1,16,-1
 653 539 l 1,17,-1
 765 539 l 1,0,-1
EndSplineSet
EndChar

StartChar: afii10073
Encoding: 1079 1079 464
Width: 509
GlyphClass: 2
Flags: W
AnchorPoint: "Anchor-2" 246 539 basechar 0
AnchorPoint: "Anchor-0" 255 0 basechar 0
LayerCount: 2
Fore
SplineSet
241 549 m 0,0,1
 332 549 332 549 390.5 513 c 128,-1,2
 449 477 449 477 449 407 c 0,3,4
 449 358 449 358 421 329 c 128,-1,5
 393 300 393 300 346 287 c 1,6,-1
 346 283 l 1,7,8
 378 274 378 274 405.5 258.5 c 128,-1,9
 433 243 433 243 449.5 217.5 c 128,-1,10
 466 192 466 192 466 151 c 0,11,12
 466 106 466 106 440.5 69.5 c 128,-1,13
 415 33 415 33 361.5 11.5 c 128,-1,14
 308 -10 308 -10 225 -10 c 0,15,16
 165 -10 165 -10 116 -1 c 128,-1,17
 67 8 67 8 34 25 c 1,18,-1
 34 117 l 1,19,20
 68 101 68 101 116 88 c 128,-1,21
 164 75 164 75 219 75 c 0,22,23
 279 75 279 75 320.5 93 c 128,-1,24
 362 111 362 111 362 157 c 0,25,26
 362 240 362 240 209 240 c 2,27,-1
 141 240 l 1,28,-1
 141 321 l 1,29,-1
 198 321 l 2,30,31
 268 321 268 321 309.5 338 c 128,-1,32
 351 355 351 355 351 396 c 0,33,34
 351 465 351 465 232 465 c 0,35,36
 189 465 189 465 152 456.5 c 128,-1,37
 115 448 115 448 75 431 c 1,38,-1
 40 511 l 1,39,40
 84 529 84 529 133.5 539 c 128,-1,41
 183 549 183 549 241 549 c 0,0,1
EndSplineSet
EndChar

StartChar: afii10074
Encoding: 1080 1080 465
Width: 666
GlyphClass: 2
Flags: W
AnchorPoint: "Anchor-2" 339 539 basechar 0
AnchorPoint: "Anchor-0" 333 0 basechar 0
LayerCount: 2
Fore
SplineSet
184 539 m 1,0,-1
 184 245 l 2,1,2
 184 230 184 230 182.5 202 c 128,-1,3
 181 174 181 174 179.5 148 c 128,-1,4
 178 122 178 122 176 109 c 1,5,-1
 453 539 l 1,6,-1
 582 539 l 1,7,-1
 582 0 l 1,8,-1
 482 0 l 1,9,-1
 482 287 l 2,10,11
 482 306 482 306 483 334 c 128,-1,12
 484 362 484 362 485.5 388.5 c 128,-1,13
 487 415 487 415 488 429 c 1,14,-1
 213 0 l 1,15,-1
 83 0 l 1,16,-1
 83 539 l 1,17,-1
 184 539 l 1,0,-1
EndSplineSet
EndChar

StartChar: afii10076
Encoding: 1082 1082 467
Width: 556
GlyphClass: 2
Flags: W
AnchorPoint: "Anchor-2" 294 539 basechar 0
AnchorPoint: "Anchor-0" 278 0 basechar 0
LayerCount: 2
Fore
SplineSet
412 539 m 1,0,-1
 528 539 l 1,1,-1
 303 280 l 1,2,-1
 547 0 l 1,3,-1
 425 0 l 1,4,-1
 189 273 l 1,5,-1
 189 0 l 1,6,-1
 83 0 l 1,7,-1
 83 539 l 1,8,-1
 189 539 l 1,9,-1
 189 277 l 1,10,-1
 412 539 l 1,0,-1
EndSplineSet
EndChar

StartChar: afii10077
Encoding: 1083 1083 468
Width: 598
GlyphClass: 2
Flags: W
AnchorPoint: "Anchor-2" 299 539 basechar 0
AnchorPoint: "Anchor-0" 299 0 basechar 0
LayerCount: 2
Fore
SplineSet
515 0 m 1,0,-1
 408 0 l 1,1,-1
 408 454 l 1,2,-1
 256 454 l 1,3,4
 243 288 243 288 220.5 186.5 c 128,-1,5
 198 85 198 85 160 38.5 c 128,-1,6
 122 -8 122 -8 62 -8 c 0,7,8
 25 -8 25 -8 5 2 c 1,9,-1
 5 83 l 1,10,11
 22 78 22 78 38 78 c 0,12,13
 70 78 70 78 94.5 124 c 128,-1,14
 119 170 119 170 136.5 271 c 128,-1,15
 154 372 154 372 165 539 c 1,16,-1
 515 539 l 1,17,-1
 515 0 l 1,0,-1
EndSplineSet
EndChar

StartChar: afii10078
Encoding: 1084 1084 469
Width: 775
GlyphClass: 2
Flags: W
AnchorPoint: "Anchor-2" 387 539 basechar 0
AnchorPoint: "Anchor-0" 387 0 basechar 0
LayerCount: 2
Fore
SplineSet
691 539 m 1,0,-1
 691 0 l 1,1,-1
 595 0 l 1,2,-1
 595 320 l 2,3,4
 595 347 595 347 596.5 374.5 c 128,-1,5
 598 402 598 402 600 427 c 1,6,-1
 597 427 l 1,7,-1
 429 0 l 1,8,-1
 344 0 l 1,9,-1
 179 427 l 1,10,-1
 175 427 l 1,11,12
 177 402 177 402 178.5 374.5 c 128,-1,13
 180 347 180 347 180 317 c 2,14,-1
 180 0 l 1,15,-1
 83 0 l 1,16,-1
 83 539 l 1,17,-1
 228 539 l 1,18,-1
 387 126 l 1,19,-1
 549 539 l 1,20,-1
 691 539 l 1,0,-1
EndSplineSet
EndChar

StartChar: afii10079
Encoding: 1085 1085 470
Width: 644
GlyphClass: 2
Flags: W
AnchorPoint: "Anchor-2" 323 539 basechar 0
AnchorPoint: "Anchor-0" 323 0 basechar 0
LayerCount: 2
Fore
SplineSet
189 539 m 1,0,-1
 189 320 l 1,1,-1
 455 320 l 1,2,-1
 455 539 l 1,3,-1
 561 539 l 1,4,-1
 561 0 l 1,5,-1
 455 0 l 1,6,-1
 455 235 l 1,7,-1
 189 235 l 1,8,-1
 189 0 l 1,9,-1
 83 0 l 1,10,-1
 83 539 l 1,11,-1
 189 539 l 1,0,-1
EndSplineSet
EndChar

StartChar: afii10081
Encoding: 1087 1087 472
Width: 632
GlyphClass: 2
Flags: W
AnchorPoint: "Anchor-2" 316 539 basechar 0
AnchorPoint: "Anchor-0" 316 0 basechar 0
LayerCount: 2
Fore
SplineSet
549 539 m 1,0,-1
 549 0 l 1,1,-1
 443 0 l 1,2,-1
 443 453 l 1,3,-1
 189 453 l 1,4,-1
 189 0 l 1,5,-1
 83 0 l 1,6,-1
 83 539 l 1,7,-1
 549 539 l 1,0,-1
EndSplineSet
EndChar

StartChar: afii10084
Encoding: 1090 1090 475
Width: 499
GlyphClass: 2
Flags: W
AnchorPoint: "Anchor-2" 250 539 basechar 0
AnchorPoint: "Anchor-0" 250 0 basechar 0
LayerCount: 2
Fore
SplineSet
477 454 m 1,0,-1
 301 454 l 1,1,-1
 301 0 l 1,2,-1
 196 0 l 1,3,-1
 196 454 l 1,4,-1
 21 454 l 1,5,-1
 21 539 l 1,6,-1
 477 539 l 1,7,-1
 477 454 l 1,0,-1
EndSplineSet
EndChar

